<?xml version="1.0" encoding="utf-8" standalone="no"?>
<!DOCTYPE svg PUBLIC "-//W3C//DTD SVG 1.1//EN"
  "http://www.w3.org/Graphics/SVG/1.1/DTD/svg11.dtd">
<svg xmlns:xlink="http://www.w3.org/1999/xlink" width="891.15pt" height="381.1025pt" viewBox="0 0 891.15 381.1025" xmlns="http://www.w3.org/2000/svg" version="1.1">
 <metadata>
  <rdf:RDF xmlns:dc="http://purl.org/dc/elements/1.1/" xmlns:cc="http://creativecommons.org/ns#" xmlns:rdf="http://www.w3.org/1999/02/22-rdf-syntax-ns#">
   <cc:Work>
    <dc:type rdf:resource="http://purl.org/dc/dcmitype/StillImage"/>
    <dc:date>2026-01-21T22:00:08.316834</dc:date>
    <dc:format>image/svg+xml</dc:format>
    <dc:creator>
     <cc:Agent>
      <dc:title>Matplotlib v3.10.6, https://matplotlib.org/</dc:title>
     </cc:Agent>
    </dc:creator>
   </cc:Work>
  </rdf:RDF>
 </metadata>
 <defs>
  <style type="text/css">*{stroke-linejoin: round; stroke-linecap: butt}</style>
 </defs>
 <g id="figure_1">
  <g id="patch_1">
   <path d="M 0 381.1025 
L 891.15 381.1025 
L 891.15 0 
L 0 0 
z
" style="fill: #ffffff"/>
  </g>
  <g id="axes_1">
   <g id="patch_2">
    <path d="M 46.95 355.465 
L 883.95 355.465 
L 883.95 22.825 
L 46.95 22.825 
z
" style="fill: #ffffff"/>
   </g>
   <g id="matplotlib.axis_1">
    <g id="xtick_1">
     <g id="line2d_1">
      <path d="M 84.995455 355.465 
L 84.995455 22.825 
" clip-path="url(#pd250f32587)" style="fill: none; stroke: #cccccc; stroke-linecap: round"/>
     </g>
     <g id="text_1">
      <!-- 2025-11-01 -->
      <g style="fill: #262626" transform="translate(57.495455 372.5275) scale(0.11 -0.11)">
       <defs>
        <path id="SimHei-32" d="M 300 250 
Q 325 625 650 925 
Q 975 1225 1475 1862 
Q 1975 2500 2125 2850 
Q 2275 3200 2237 3450 
Q 2200 3700 2000 3862 
Q 1800 4025 1537 4000 
Q 1275 3975 1037 3800 
Q 800 3625 675 3275 
L 200 3350 
Q 400 3925 712 4187 
Q 1025 4450 1450 4475 
Q 1700 4500 1900 4462 
Q 2100 4425 2312 4287 
Q 2525 4150 2662 3875 
Q 2800 3600 2762 3212 
Q 2725 2825 2375 2287 
Q 2025 1750 1025 600 
L 2825 600 
L 2825 150 
L 300 150 
L 300 250 
z
" transform="scale(0.015625)"/>
        <path id="SimHei-30" d="M 225 2537 
Q 250 3200 412 3587 
Q 575 3975 875 4225 
Q 1175 4475 1612 4475 
Q 2050 4475 2375 4112 
Q 2700 3750 2800 3200 
Q 2900 2650 2862 1937 
Q 2825 1225 2612 775 
Q 2400 325 1975 150 
Q 1550 -25 1125 187 
Q 700 400 525 750 
Q 350 1100 275 1487 
Q 200 1875 225 2537 
z
M 750 2687 
Q 675 2000 800 1462 
Q 925 925 1212 700 
Q 1500 475 1800 612 
Q 2100 750 2237 1162 
Q 2375 1575 2375 2062 
Q 2375 2550 2337 2950 
Q 2300 3350 2112 3675 
Q 1925 4000 1612 4012 
Q 1300 4025 1062 3700 
Q 825 3375 750 2687 
z
" transform="scale(0.015625)"/>
        <path id="SimHei-35" d="M 550 1325 
Q 725 650 1150 575 
Q 1575 500 1837 662 
Q 2100 825 2212 1087 
Q 2325 1350 2312 1675 
Q 2300 2000 2137 2225 
Q 1975 2450 1725 2525 
Q 1475 2600 1162 2525 
Q 850 2450 650 2175 
L 225 2225 
Q 275 2375 700 4375 
L 2675 4375 
L 2675 3925 
L 1075 3925 
Q 950 3250 825 2850 
Q 1200 3025 1525 3012 
Q 1850 3000 2150 2862 
Q 2450 2725 2587 2487 
Q 2725 2250 2787 2012 
Q 2850 1775 2837 1500 
Q 2825 1225 2725 937 
Q 2625 650 2425 462 
Q 2225 275 1937 162 
Q 1650 50 1275 75 
Q 900 100 562 350 
Q 225 600 100 1200 
L 550 1325 
z
" transform="scale(0.015625)"/>
        <path id="SimHei-2d" d="M 2975 2125 
L 125 2125 
L 125 2525 
L 2975 2525 
L 2975 2125 
z
" transform="scale(0.015625)"/>
        <path id="SimHei-31" d="M 1400 3600 
Q 1075 3275 575 2975 
L 575 3450 
Q 1200 3875 1600 4450 
L 1900 4450 
L 1900 150 
L 1400 150 
L 1400 3600 
z
" transform="scale(0.015625)"/>
       </defs>
       <use xlink:href="#SimHei-32"/>
       <use xlink:href="#SimHei-30" transform="translate(50 0)"/>
       <use xlink:href="#SimHei-32" transform="translate(100 0)"/>
       <use xlink:href="#SimHei-35" transform="translate(150 0)"/>
       <use xlink:href="#SimHei-2d" transform="translate(200 0)"/>
       <use xlink:href="#SimHei-31" transform="translate(250 0)"/>
       <use xlink:href="#SimHei-31" transform="translate(300 0)"/>
       <use xlink:href="#SimHei-2d" transform="translate(350 0)"/>
       <use xlink:href="#SimHei-30" transform="translate(400 0)"/>
       <use xlink:href="#SimHei-31" transform="translate(450 0)"/>
      </g>
     </g>
    </g>
    <g id="xtick_2">
     <g id="line2d_2">
      <path d="M 193.642861 355.465 
L 193.642861 22.825 
" clip-path="url(#pd250f32587)" style="fill: none; stroke: #cccccc; stroke-linecap: round"/>
     </g>
     <g id="text_2">
      <!-- 2025-11-02 -->
      <g style="fill: #262626" transform="translate(166.142861 372.5275) scale(0.11 -0.11)">
       <use xlink:href="#SimHei-32"/>
       <use xlink:href="#SimHei-30" transform="translate(50 0)"/>
       <use xlink:href="#SimHei-32" transform="translate(100 0)"/>
       <use xlink:href="#SimHei-35" transform="translate(150 0)"/>
       <use xlink:href="#SimHei-2d" transform="translate(200 0)"/>
       <use xlink:href="#SimHei-31" transform="translate(250 0)"/>
       <use xlink:href="#SimHei-31" transform="translate(300 0)"/>
       <use xlink:href="#SimHei-2d" transform="translate(350 0)"/>
       <use xlink:href="#SimHei-30" transform="translate(400 0)"/>
       <use xlink:href="#SimHei-32" transform="translate(450 0)"/>
      </g>
     </g>
    </g>
    <g id="xtick_3">
     <g id="line2d_3">
      <path d="M 302.290267 355.465 
L 302.290267 22.825 
" clip-path="url(#pd250f32587)" style="fill: none; stroke: #cccccc; stroke-linecap: round"/>
     </g>
     <g id="text_3">
      <!-- 2025-11-03 -->
      <g style="fill: #262626" transform="translate(274.790267 372.5275) scale(0.11 -0.11)">
       <defs>
        <path id="SimHei-33" d="M 250 1225 
L 700 1300 
Q 800 975 1025 762 
Q 1250 550 1587 562 
Q 1925 575 2125 837 
Q 2325 1100 2300 1437 
Q 2275 1775 2037 1962 
Q 1800 2150 1275 2225 
L 1275 2550 
Q 1800 2600 2037 2825 
Q 2275 3050 2250 3412 
Q 2225 3775 1925 3937 
Q 1625 4100 1287 3975 
Q 950 3850 750 3275 
L 300 3350 
Q 450 3800 712 4100 
Q 975 4400 1425 4450 
Q 1875 4500 2212 4337 
Q 2550 4175 2687 3837 
Q 2825 3500 2725 3100 
Q 2625 2700 2150 2400 
Q 2500 2250 2687 1950 
Q 2875 1650 2812 1162 
Q 2750 675 2375 375 
Q 2000 75 1525 87 
Q 1050 100 700 387 
Q 350 675 250 1225 
z
" transform="scale(0.015625)"/>
       </defs>
       <use xlink:href="#SimHei-32"/>
       <use xlink:href="#SimHei-30" transform="translate(50 0)"/>
       <use xlink:href="#SimHei-32" transform="translate(100 0)"/>
       <use xlink:href="#SimHei-35" transform="translate(150 0)"/>
       <use xlink:href="#SimHei-2d" transform="translate(200 0)"/>
       <use xlink:href="#SimHei-31" transform="translate(250 0)"/>
       <use xlink:href="#SimHei-31" transform="translate(300 0)"/>
       <use xlink:href="#SimHei-2d" transform="translate(350 0)"/>
       <use xlink:href="#SimHei-30" transform="translate(400 0)"/>
       <use xlink:href="#SimHei-33" transform="translate(450 0)"/>
      </g>
     </g>
    </g>
    <g id="xtick_4">
     <g id="line2d_4">
      <path d="M 410.937673 355.465 
L 410.937673 22.825 
" clip-path="url(#pd250f32587)" style="fill: none; stroke: #cccccc; stroke-linecap: round"/>
     </g>
     <g id="text_4">
      <!-- 2025-11-04 -->
      <g style="fill: #262626" transform="translate(383.437673 372.5275) scale(0.11 -0.11)">
       <defs>
        <path id="SimHei-34" d="M 2000 1100 
L 75 1100 
L 75 1525 
L 2100 4450 
L 2475 4450 
L 2475 1525 
L 3075 1525 
L 3075 1100 
L 2475 1100 
L 2475 150 
L 2000 150 
L 2000 1100 
z
M 2000 1525 
L 2000 3500 
L 600 1525 
L 2000 1525 
z
" transform="scale(0.015625)"/>
       </defs>
       <use xlink:href="#SimHei-32"/>
       <use xlink:href="#SimHei-30" transform="translate(50 0)"/>
       <use xlink:href="#SimHei-32" transform="translate(100 0)"/>
       <use xlink:href="#SimHei-35" transform="translate(150 0)"/>
       <use xlink:href="#SimHei-2d" transform="translate(200 0)"/>
       <use xlink:href="#SimHei-31" transform="translate(250 0)"/>
       <use xlink:href="#SimHei-31" transform="translate(300 0)"/>
       <use xlink:href="#SimHei-2d" transform="translate(350 0)"/>
       <use xlink:href="#SimHei-30" transform="translate(400 0)"/>
       <use xlink:href="#SimHei-34" transform="translate(450 0)"/>
      </g>
     </g>
    </g>
    <g id="xtick_5">
     <g id="line2d_5">
      <path d="M 519.585079 355.465 
L 519.585079 22.825 
" clip-path="url(#pd250f32587)" style="fill: none; stroke: #cccccc; stroke-linecap: round"/>
     </g>
     <g id="text_5">
      <!-- 2025-11-05 -->
      <g style="fill: #262626" transform="translate(492.085079 372.5275) scale(0.11 -0.11)">
       <use xlink:href="#SimHei-32"/>
       <use xlink:href="#SimHei-30" transform="translate(50 0)"/>
       <use xlink:href="#SimHei-32" transform="translate(100 0)"/>
       <use xlink:href="#SimHei-35" transform="translate(150 0)"/>
       <use xlink:href="#SimHei-2d" transform="translate(200 0)"/>
       <use xlink:href="#SimHei-31" transform="translate(250 0)"/>
       <use xlink:href="#SimHei-31" transform="translate(300 0)"/>
       <use xlink:href="#SimHei-2d" transform="translate(350 0)"/>
       <use xlink:href="#SimHei-30" transform="translate(400 0)"/>
       <use xlink:href="#SimHei-35" transform="translate(450 0)"/>
      </g>
     </g>
    </g>
    <g id="xtick_6">
     <g id="line2d_6">
      <path d="M 628.232485 355.465 
L 628.232485 22.825 
" clip-path="url(#pd250f32587)" style="fill: none; stroke: #cccccc; stroke-linecap: round"/>
     </g>
     <g id="text_6">
      <!-- 2025-11-06 -->
      <g style="fill: #262626" transform="translate(600.732485 372.5275) scale(0.11 -0.11)">
       <defs>
        <path id="SimHei-36" d="M 250 1612 
Q 275 1975 387 2225 
Q 500 2475 725 2850 
L 1750 4450 
L 2325 4450 
L 1275 2800 
Q 1950 2975 2350 2750 
Q 2750 2525 2887 2237 
Q 3025 1950 3037 1612 
Q 3050 1275 2937 950 
Q 2825 625 2537 362 
Q 2250 100 1737 75 
Q 1225 50 862 262 
Q 500 475 362 862 
Q 225 1250 250 1612 
z
M 1025 787 
Q 1250 550 1625 525 
Q 2000 500 2250 775 
Q 2500 1050 2500 1575 
Q 2500 2100 2187 2300 
Q 1875 2500 1487 2450 
Q 1100 2400 925 2075 
Q 750 1750 775 1387 
Q 800 1025 1025 787 
z
" transform="scale(0.015625)"/>
       </defs>
       <use xlink:href="#SimHei-32"/>
       <use xlink:href="#SimHei-30" transform="translate(50 0)"/>
       <use xlink:href="#SimHei-32" transform="translate(100 0)"/>
       <use xlink:href="#SimHei-35" transform="translate(150 0)"/>
       <use xlink:href="#SimHei-2d" transform="translate(200 0)"/>
       <use xlink:href="#SimHei-31" transform="translate(250 0)"/>
       <use xlink:href="#SimHei-31" transform="translate(300 0)"/>
       <use xlink:href="#SimHei-2d" transform="translate(350 0)"/>
       <use xlink:href="#SimHei-30" transform="translate(400 0)"/>
       <use xlink:href="#SimHei-36" transform="translate(450 0)"/>
      </g>
     </g>
    </g>
    <g id="xtick_7">
     <g id="line2d_7">
      <path d="M 736.879891 355.465 
L 736.879891 22.825 
" clip-path="url(#pd250f32587)" style="fill: none; stroke: #cccccc; stroke-linecap: round"/>
     </g>
     <g id="text_7">
      <!-- 2025-11-07 -->
      <g style="fill: #262626" transform="translate(709.379891 372.5275) scale(0.11 -0.11)">
       <defs>
        <path id="SimHei-37" d="M 850 150 
Q 1300 2050 2425 3925 
L 275 3925 
L 275 4375 
L 2950 4375 
L 2950 3950 
Q 1775 2050 1400 150 
L 850 150 
z
" transform="scale(0.015625)"/>
       </defs>
       <use xlink:href="#SimHei-32"/>
       <use xlink:href="#SimHei-30" transform="translate(50 0)"/>
       <use xlink:href="#SimHei-32" transform="translate(100 0)"/>
       <use xlink:href="#SimHei-35" transform="translate(150 0)"/>
       <use xlink:href="#SimHei-2d" transform="translate(200 0)"/>
       <use xlink:href="#SimHei-31" transform="translate(250 0)"/>
       <use xlink:href="#SimHei-31" transform="translate(300 0)"/>
       <use xlink:href="#SimHei-2d" transform="translate(350 0)"/>
       <use xlink:href="#SimHei-30" transform="translate(400 0)"/>
       <use xlink:href="#SimHei-37" transform="translate(450 0)"/>
      </g>
     </g>
    </g>
    <g id="xtick_8">
     <g id="line2d_8">
      <path d="M 845.527298 355.465 
L 845.527298 22.825 
" clip-path="url(#pd250f32587)" style="fill: none; stroke: #cccccc; stroke-linecap: round"/>
     </g>
     <g id="text_8">
      <!-- 2025-11-08 -->
      <g style="fill: #262626" transform="translate(818.027298 372.5275) scale(0.11 -0.11)">
       <defs>
        <path id="SimHei-38" d="M 175 1375 
Q 175 1675 325 1962 
Q 475 2250 825 2425 
Q 525 2600 425 2812 
Q 325 3025 312 3300 
Q 300 3575 387 3775 
Q 475 3975 650 4150 
Q 825 4325 1037 4387 
Q 1250 4450 1500 4450 
Q 1750 4450 1950 4400 
Q 2150 4350 2375 4187 
Q 2600 4025 2700 3725 
Q 2800 3425 2687 3025 
Q 2575 2625 2100 2400 
Q 2525 2275 2700 2012 
Q 2875 1750 2875 1375 
Q 2875 1000 2762 775 
Q 2650 550 2512 400 
Q 2375 250 2137 162 
Q 1900 75 1537 75 
Q 1175 75 912 162 
Q 650 250 475 425 
Q 300 600 237 837 
Q 175 1075 175 1375 
z
M 687 1400 
Q 675 1100 787 875 
Q 900 650 1200 587 
Q 1500 525 1825 600 
Q 2150 675 2275 950 
Q 2400 1225 2362 1500 
Q 2325 1775 2050 1962 
Q 1775 2150 1450 2125 
Q 1125 2100 912 1900 
Q 700 1700 687 1400 
z
M 775 3350 
Q 775 3100 950 2875 
Q 1125 2650 1500 2650 
Q 1875 2650 2062 2875 
Q 2250 3100 2237 3412 
Q 2225 3725 2012 3875 
Q 1800 4025 1437 4000 
Q 1075 3975 925 3787 
Q 775 3600 775 3350 
z
" transform="scale(0.015625)"/>
       </defs>
       <use xlink:href="#SimHei-32"/>
       <use xlink:href="#SimHei-30" transform="translate(50 0)"/>
       <use xlink:href="#SimHei-32" transform="translate(100 0)"/>
       <use xlink:href="#SimHei-35" transform="translate(150 0)"/>
       <use xlink:href="#SimHei-2d" transform="translate(200 0)"/>
       <use xlink:href="#SimHei-31" transform="translate(250 0)"/>
       <use xlink:href="#SimHei-31" transform="translate(300 0)"/>
       <use xlink:href="#SimHei-2d" transform="translate(350 0)"/>
       <use xlink:href="#SimHei-30" transform="translate(400 0)"/>
       <use xlink:href="#SimHei-38" transform="translate(450 0)"/>
      </g>
     </g>
    </g>
   </g>
   <g id="matplotlib.axis_2">
    <g id="ytick_1">
     <g id="line2d_9">
      <path d="M 46.95 340.345 
L 883.95 340.345 
" clip-path="url(#pd250f32587)" style="fill: none; stroke: #cccccc; stroke-linecap: round"/>
     </g>
     <g id="text_9">
      <!-- 0 -->
      <g style="fill: #262626" transform="translate(31.95 344.12625) scale(0.11 -0.11)">
       <use xlink:href="#SimHei-30"/>
      </g>
     </g>
    </g>
    <g id="ytick_2">
     <g id="line2d_10">
      <path d="M 46.95 295.545 
L 883.95 295.545 
" clip-path="url(#pd250f32587)" style="fill: none; stroke: #cccccc; stroke-linecap: round"/>
     </g>
     <g id="text_10">
      <!-- 20 -->
      <g style="fill: #262626" transform="translate(26.45 299.32625) scale(0.11 -0.11)">
       <use xlink:href="#SimHei-32"/>
       <use xlink:href="#SimHei-30" transform="translate(50 0)"/>
      </g>
     </g>
    </g>
    <g id="ytick_3">
     <g id="line2d_11">
      <path d="M 46.95 250.745 
L 883.95 250.745 
" clip-path="url(#pd250f32587)" style="fill: none; stroke: #cccccc; stroke-linecap: round"/>
     </g>
     <g id="text_11">
      <!-- 40 -->
      <g style="fill: #262626" transform="translate(26.45 254.52625) scale(0.11 -0.11)">
       <use xlink:href="#SimHei-34"/>
       <use xlink:href="#SimHei-30" transform="translate(50 0)"/>
      </g>
     </g>
    </g>
    <g id="ytick_4">
     <g id="line2d_12">
      <path d="M 46.95 205.945 
L 883.95 205.945 
" clip-path="url(#pd250f32587)" style="fill: none; stroke: #cccccc; stroke-linecap: round"/>
     </g>
     <g id="text_12">
      <!-- 60 -->
      <g style="fill: #262626" transform="translate(26.45 209.72625) scale(0.11 -0.11)">
       <use xlink:href="#SimHei-36"/>
       <use xlink:href="#SimHei-30" transform="translate(50 0)"/>
      </g>
     </g>
    </g>
    <g id="ytick_5">
     <g id="line2d_13">
      <path d="M 46.95 161.145 
L 883.95 161.145 
" clip-path="url(#pd250f32587)" style="fill: none; stroke: #cccccc; stroke-linecap: round"/>
     </g>
     <g id="text_13">
      <!-- 80 -->
      <g style="fill: #262626" transform="translate(26.45 164.92625) scale(0.11 -0.11)">
       <use xlink:href="#SimHei-38"/>
       <use xlink:href="#SimHei-30" transform="translate(50 0)"/>
      </g>
     </g>
    </g>
    <g id="ytick_6">
     <g id="line2d_14">
      <path d="M 46.95 116.345 
L 883.95 116.345 
" clip-path="url(#pd250f32587)" style="fill: none; stroke: #cccccc; stroke-linecap: round"/>
     </g>
     <g id="text_14">
      <!-- 100 -->
      <g style="fill: #262626" transform="translate(20.95 120.12625) scale(0.11 -0.11)">
       <use xlink:href="#SimHei-31"/>
       <use xlink:href="#SimHei-30" transform="translate(50 0)"/>
       <use xlink:href="#SimHei-30" transform="translate(100 0)"/>
      </g>
     </g>
    </g>
    <g id="ytick_7">
     <g id="line2d_15">
      <path d="M 46.95 71.545 
L 883.95 71.545 
" clip-path="url(#pd250f32587)" style="fill: none; stroke: #cccccc; stroke-linecap: round"/>
     </g>
     <g id="text_15">
      <!-- 120 -->
      <g style="fill: #262626" transform="translate(20.95 75.32625) scale(0.11 -0.11)">
       <use xlink:href="#SimHei-31"/>
       <use xlink:href="#SimHei-32" transform="translate(50 0)"/>
       <use xlink:href="#SimHei-30" transform="translate(100 0)"/>
      </g>
     </g>
    </g>
    <g id="ytick_8">
     <g id="line2d_16">
      <path d="M 46.95 26.745 
L 883.95 26.745 
" clip-path="url(#pd250f32587)" style="fill: none; stroke: #cccccc; stroke-linecap: round"/>
     </g>
     <g id="text_16">
      <!-- 140 -->
      <g style="fill: #262626" transform="translate(20.95 30.52625) scale(0.11 -0.11)">
       <use xlink:href="#SimHei-31"/>
       <use xlink:href="#SimHei-34" transform="translate(50 0)"/>
       <use xlink:href="#SimHei-30" transform="translate(100 0)"/>
      </g>
     </g>
    </g>
    <g id="text_17">
     <!-- Count / 5min -->
     <g style="fill: #262626" transform="translate(15.45 225.145) rotate(-90) scale(0.12 -0.12)">
      <defs>
       <path id="SimHei-43" d="M 2975 1825 
Q 2950 875 2575 475 
Q 2200 75 1675 75 
Q 1075 75 650 562 
Q 225 1050 225 2125 
Q 225 3300 637 3875 
Q 1050 4450 1700 4450 
Q 2250 4450 2612 4037 
Q 2975 3625 2950 2875 
L 2400 2875 
Q 2400 3425 2225 3700 
Q 2050 3975 1700 3975 
Q 1300 3975 1062 3562 
Q 825 3150 825 2175 
Q 825 1275 1062 912 
Q 1300 550 1675 550 
Q 1950 550 2175 812 
Q 2400 1075 2400 1825 
L 2975 1825 
z
" transform="scale(0.015625)"/>
       <path id="SimHei-6f" d="M 2925 1525 
Q 2925 875 2525 475 
Q 2125 75 1575 75 
Q 1025 75 625 475 
Q 225 875 225 1525 
Q 225 2175 625 2575 
Q 1025 2975 1575 2975 
Q 2125 2975 2525 2575 
Q 2925 2175 2925 1525 
z
M 2375 1525 
Q 2375 2025 2125 2275 
Q 1875 2525 1575 2525 
Q 1275 2525 1025 2275 
Q 775 2025 775 1525 
Q 775 1025 1025 775 
Q 1275 525 1575 525 
Q 1875 525 2125 775 
Q 2375 1025 2375 1525 
z
" transform="scale(0.015625)"/>
       <path id="SimHei-75" d="M 2800 125 
L 2300 125 
L 2300 650 
Q 2100 375 1862 225 
Q 1625 75 1250 75 
Q 800 75 575 325 
Q 350 575 350 950 
L 350 2925 
L 850 2925 
L 850 1125 
Q 850 825 1000 650 
Q 1150 475 1400 475 
Q 1725 475 2012 812 
Q 2300 1150 2300 1650 
L 2300 2925 
L 2800 2925 
L 2800 125 
z
" transform="scale(0.015625)"/>
       <path id="SimHei-6e" d="M 2800 125 
L 2300 125 
L 2300 1925 
Q 2300 2225 2150 2400 
Q 2000 2575 1750 2575 
Q 1425 2575 1137 2237 
Q 850 1900 850 1400 
L 850 125 
L 350 125 
L 350 2925 
L 850 2925 
L 850 2400 
Q 1050 2675 1287 2825 
Q 1525 2975 1900 2975 
Q 2350 2975 2575 2725 
Q 2800 2475 2800 2100 
L 2800 125 
z
" transform="scale(0.015625)"/>
       <path id="SimHei-74" d="M 2750 200 
Q 2625 150 2462 112 
Q 2300 75 2025 75 
Q 1575 75 1300 325 
Q 1025 575 1025 1025 
L 1025 2525 
L 175 2525 
L 175 2925 
L 1025 2925 
L 1025 3900 
L 1525 3900 
L 1525 2925 
L 2550 2925 
L 2550 2525 
L 1525 2525 
L 1525 1000 
Q 1525 800 1625 662 
Q 1725 525 2000 525 
Q 2275 525 2450 575 
Q 2625 625 2750 700 
L 2750 200 
z
" transform="scale(0.015625)"/>
       <path id="SimHei-20" transform="scale(0.015625)"/>
       <path id="SimHei-2f" d="M 3000 4550 
L 350 -175 
L 100 -25 
L 2750 4700 
L 3000 4550 
z
" transform="scale(0.015625)"/>
       <path id="SimHei-6d" d="M 3050 125 
L 2550 125 
L 2550 2150 
Q 2550 2300 2500 2400 
Q 2450 2500 2300 2500 
Q 2125 2500 1975 2312 
Q 1825 2125 1825 1825 
L 1825 125 
L 1325 125 
L 1325 2150 
Q 1325 2300 1275 2400 
Q 1225 2500 1075 2500 
Q 900 2500 750 2312 
Q 600 2125 600 1825 
L 600 125 
L 100 125 
L 100 2925 
L 600 2925 
L 600 2550 
Q 725 2750 900 2862 
Q 1075 2975 1275 2975 
Q 1475 2975 1612 2862 
Q 1750 2750 1800 2550 
Q 1925 2750 2087 2862 
Q 2250 2975 2450 2975 
Q 2750 2975 2900 2812 
Q 3050 2650 3050 2350 
L 3050 125 
z
" transform="scale(0.015625)"/>
       <path id="SimHei-69" d="M 1800 3725 
L 1300 3725 
L 1300 4375 
L 1800 4375 
L 1800 3725 
z
M 1800 125 
L 1300 125 
L 1300 2925 
L 1800 2925 
L 1800 125 
z
" transform="scale(0.015625)"/>
      </defs>
      <use xlink:href="#SimHei-43"/>
      <use xlink:href="#SimHei-6f" transform="translate(50 0)"/>
      <use xlink:href="#SimHei-75" transform="translate(100 0)"/>
      <use xlink:href="#SimHei-6e" transform="translate(150 0)"/>
      <use xlink:href="#SimHei-74" transform="translate(200 0)"/>
      <use xlink:href="#SimHei-20" transform="translate(250 0)"/>
      <use xlink:href="#SimHei-2f" transform="translate(300 0)"/>
      <use xlink:href="#SimHei-20" transform="translate(350 0)"/>
      <use xlink:href="#SimHei-35" transform="translate(400 0)"/>
      <use xlink:href="#SimHei-6d" transform="translate(450 0)"/>
      <use xlink:href="#SimHei-69" transform="translate(500 0)"/>
      <use xlink:href="#SimHei-6e" transform="translate(550 0)"/>
     </g>
    </g>
   </g>
   <g id="line2d_17">
    <path d="M 85.74995 335.865 
L 86.127198 335.865 
L 86.504446 340.345 
L 86.881694 331.385 
L 87.258942 340.345 
L 88.013438 340.345 
L 88.390686 335.865 
L 88.767934 340.345 
L 89.52243 340.345 
L 89.899678 326.905 
L 90.276926 340.345 
L 91.031422 340.345 
L 91.408669 335.865 
L 91.785917 340.345 
L 92.917661 340.345 
L 93.294909 326.905 
L 93.672157 340.345 
L 97.444636 340.345 
L 97.821884 335.865 
L 98.199132 340.345 
L 108.384827 340.345 
L 108.762075 313.465 
L 109.516571 340.345 
L 114.798042 340.345 
L 115.17529 335.865 
L 115.552538 340.345 
L 115.929785 340.345 
L 116.307033 335.865 
L 116.684281 340.345 
L 118.193273 340.345 
L 118.570521 335.865 
L 118.947769 322.425 
L 119.325017 317.945 
L 119.702265 306.745 
L 120.079513 304.505 
L 120.456761 320.185 
L 120.834009 326.905 
L 121.211257 340.345 
L 121.588505 326.905 
L 121.965752 340.345 
L 123.097496 340.345 
L 123.474744 331.385 
L 124.22924 340.345 
L 124.606488 326.905 
L 124.983736 335.865 
L 125.360984 340.345 
L 125.738232 335.865 
L 126.11548 340.345 
L 126.492728 326.905 
L 126.869976 335.865 
L 127.247224 326.905 
L 127.624472 340.345 
L 128.001719 331.385 
L 128.378967 331.385 
L 128.756215 335.865 
L 129.133463 335.865 
L 129.510711 331.385 
L 129.887959 317.945 
L 130.265207 313.465 
L 130.642455 326.905 
L 131.019703 326.905 
L 131.396951 331.385 
L 131.774199 338.105 
L 132.151447 311.225 
L 132.528695 304.505 
L 132.905943 308.985 
L 133.283191 320.185 
L 133.660439 315.705 
L 134.037686 326.905 
L 134.414934 320.185 
L 134.792182 338.105 
L 135.16943 335.865 
L 135.546678 340.345 
L 135.923926 335.865 
L 136.301174 340.345 
L 136.678422 335.865 
L 137.05567 340.345 
L 137.810166 340.345 
L 138.187414 331.385 
L 138.564662 340.345 
L 140.073653 340.345 
L 140.450901 322.425 
L 140.828149 340.345 
L 141.582645 340.345 
L 141.959893 331.385 
L 142.337141 335.865 
L 142.714389 331.385 
L 143.468885 340.345 
L 143.846133 331.385 
L 144.223381 340.345 
L 145.355125 326.905 
L 145.732373 335.865 
L 146.10962 335.865 
L 146.486868 306.745 
L 146.864116 324.665 
L 147.241364 300.025 
L 147.618612 317.945 
L 147.99586 286.585 
L 148.373108 331.385 
L 148.750356 322.425 
L 149.127604 335.865 
L 149.504852 322.425 
L 149.8821 324.665 
L 150.259348 333.625 
L 150.636596 335.865 
L 151.013844 340.345 
L 151.391092 335.865 
L 151.76834 340.345 
L 152.145588 335.865 
L 152.522835 340.345 
L 152.900083 335.865 
L 153.277331 335.865 
L 153.654579 340.345 
L 154.786323 340.345 
L 155.163571 335.865 
L 155.540819 326.905 
L 155.918067 340.345 
L 156.295315 335.865 
L 156.672563 326.905 
L 157.049811 335.865 
L 157.427059 326.905 
L 157.804307 313.465 
L 158.181555 335.865 
L 158.558802 338.105 
L 158.93605 320.185 
L 159.313298 331.385 
L 159.690546 335.865 
L 160.067794 317.945 
L 160.445042 340.345 
L 160.82229 331.385 
L 161.199538 331.385 
L 161.576786 340.345 
L 162.70853 340.345 
L 163.085778 335.865 
L 163.463026 335.865 
L 163.840274 340.345 
L 164.217522 338.105 
L 164.594769 333.625 
L 164.972017 335.865 
L 165.349265 340.345 
L 165.726513 335.865 
L 166.103761 340.345 
L 167.612753 340.345 
L 167.990001 335.865 
L 168.367249 340.345 
L 168.744497 340.345 
L 169.121745 335.865 
L 169.498993 322.425 
L 169.876241 335.865 
L 170.253489 340.345 
L 170.630736 335.865 
L 171.007984 340.345 
L 173.271472 340.345 
L 173.64872 331.385 
L 174.403216 340.345 
L 176.666703 340.345 
L 177.043951 335.865 
L 177.421199 340.345 
L 178.930191 340.345 
L 179.307439 331.385 
L 179.684687 340.345 
L 181.570927 340.345 
L 181.948175 331.385 
L 182.325423 340.345 
L 184.58891 340.345 
L 184.966158 333.625 
L 185.343406 333.625 
L 185.720654 340.345 
L 215.900489 340.345 
L 216.277737 315.705 
L 216.654985 311.225 
L 217.032233 340.345 
L 225.708935 340.345 
L 226.086183 331.385 
L 226.463431 340.345 
L 227.595175 340.345 
L 227.972423 324.665 
L 228.349671 338.105 
L 228.726919 340.345 
L 229.104167 340.345 
L 229.481415 317.945 
L 229.858663 335.865 
L 230.235911 340.345 
L 230.613159 340.345 
L 230.990407 335.865 
L 231.367654 340.345 
L 231.744902 340.345 
L 232.12215 326.905 
L 232.499398 340.345 
L 234.00839 340.345 
L 234.385638 331.385 
L 234.762886 331.385 
L 235.140134 340.345 
L 235.517382 331.385 
L 235.89463 335.865 
L 236.271878 335.865 
L 236.649126 340.345 
L 237.026374 333.625 
L 237.403621 338.105 
L 237.780869 340.345 
L 239.667109 340.345 
L 240.044357 329.145 
L 240.421605 333.625 
L 240.798853 335.865 
L 241.176101 331.385 
L 241.553349 340.345 
L 241.930597 331.385 
L 242.307845 335.865 
L 242.685093 326.905 
L 243.062341 333.625 
L 243.439588 338.105 
L 243.816836 340.345 
L 245.703076 340.345 
L 246.080324 331.385 
L 246.457572 340.345 
L 247.212068 340.345 
L 247.589316 338.105 
L 247.966564 338.105 
L 248.343812 329.145 
L 248.72106 338.105 
L 249.098308 333.625 
L 249.475556 333.625 
L 249.852803 329.145 
L 250.984547 335.865 
L 251.361795 326.905 
L 251.739043 335.865 
L 252.116291 333.625 
L 252.493539 329.145 
L 252.870787 322.425 
L 253.248035 329.145 
L 253.625283 333.625 
L 254.002531 329.145 
L 254.379779 335.865 
L 254.757027 335.865 
L 255.134275 331.385 
L 255.511523 331.385 
L 255.88877 317.945 
L 256.266018 317.945 
L 256.643266 326.905 
L 257.020514 331.385 
L 257.397762 326.905 
L 257.77501 331.385 
L 258.152258 340.345 
L 258.906754 322.425 
L 259.284002 335.865 
L 259.66125 340.345 
L 260.038498 333.625 
L 260.415746 333.625 
L 260.792994 340.345 
L 261.170242 340.345 
L 261.54749 331.385 
L 261.924737 340.345 
L 262.301985 340.345 
L 262.679233 333.625 
L 263.056481 329.145 
L 263.433729 338.105 
L 263.810977 317.945 
L 264.565473 331.385 
L 264.942721 335.865 
L 265.319969 322.425 
L 265.697217 329.145 
L 266.074465 320.185 
L 266.451713 335.865 
L 266.828961 326.905 
L 267.206209 335.865 
L 267.583457 326.905 
L 268.7152 340.345 
L 269.092448 335.865 
L 269.469696 340.345 
L 269.846944 335.865 
L 270.224192 326.905 
L 270.60144 335.865 
L 270.978688 329.145 
L 271.355936 333.625 
L 271.733184 331.385 
L 272.110432 331.385 
L 272.48768 335.865 
L 272.864928 338.105 
L 273.242176 324.665 
L 273.619424 335.865 
L 273.996671 331.385 
L 274.373919 340.345 
L 274.751167 340.345 
L 275.128415 322.425 
L 275.505663 340.345 
L 275.882911 329.145 
L 276.260159 324.665 
L 276.637407 304.505 
L 277.014655 324.665 
L 277.391903 338.105 
L 277.769151 304.505 
L 278.146399 320.185 
L 278.523647 315.705 
L 278.900895 340.345 
L 279.278143 331.385 
L 279.655391 340.345 
L 280.409886 340.345 
L 280.787134 326.905 
L 281.164382 340.345 
L 281.54163 340.345 
L 281.918878 335.865 
L 282.296126 340.345 
L 282.673374 326.905 
L 283.050622 340.345 
L 285.691358 340.345 
L 286.445853 331.385 
L 286.823101 340.345 
L 287.200349 331.385 
L 287.577597 340.345 
L 287.954845 340.345 
L 288.332093 335.865 
L 288.709341 340.345 
L 291.350077 340.345 
L 291.727325 335.865 
L 292.104572 340.345 
L 292.48182 340.345 
L 292.859068 331.385 
L 293.236316 340.345 
L 324.547895 340.345 
L 324.925143 331.385 
L 325.302391 293.305 
L 325.679639 338.105 
L 326.056887 340.345 
L 330.96111 340.345 
L 331.338358 331.385 
L 331.715606 331.385 
L 332.092854 340.345 
L 332.470102 331.385 
L 332.84735 335.865 
L 333.224598 308.985 
L 333.601846 308.985 
L 333.979094 326.905 
L 334.356342 331.385 
L 334.733589 324.665 
L 335.110837 315.705 
L 335.488085 324.665 
L 335.865333 338.105 
L 336.242581 331.385 
L 336.619829 322.425 
L 336.997077 340.345 
L 337.374325 329.145 
L 337.751573 311.225 
L 338.128821 335.865 
L 338.506069 335.865 
L 338.883317 340.345 
L 339.260565 326.905 
L 339.637813 335.865 
L 340.015061 333.625 
L 340.392309 311.225 
L 340.769556 331.385 
L 341.146804 302.265 
L 341.9013 320.185 
L 342.278548 295.545 
L 342.655796 304.505 
L 343.033044 306.745 
L 343.410292 275.385 
L 343.78754 295.545 
L 344.164788 293.305 
L 344.919284 255.225 
L 345.296532 268.665 
L 346.051028 235.065 
L 346.428276 235.065 
L 346.805524 244.025 
L 347.182771 244.025 
L 347.560019 223.865 
L 347.937267 219.385 
L 348.314515 217.145 
L 348.691763 208.185 
L 349.069011 217.145 
L 349.446259 230.585 
L 349.823507 219.385 
L 350.200755 223.865 
L 350.578003 252.985 
L 350.955251 239.545 
L 351.332499 219.385 
L 351.709747 212.665 
L 352.086995 241.785 
L 352.464243 214.905 
L 352.841491 241.785 
L 353.218738 239.545 
L 353.595986 241.785 
L 353.973234 223.865 
L 354.350482 248.505 
L 354.72773 246.265 
L 355.104978 248.505 
L 355.482226 270.905 
L 355.859474 261.945 
L 356.236722 257.465 
L 356.61397 286.585 
L 356.991218 261.945 
L 357.368466 250.745 
L 357.745714 268.665 
L 358.122962 268.665 
L 358.50021 259.705 
L 358.877458 270.905 
L 359.254705 286.585 
L 359.631953 282.105 
L 360.009201 268.665 
L 360.386449 277.625 
L 360.763697 255.225 
L 361.140945 270.905 
L 361.518193 264.185 
L 361.895441 261.945 
L 362.272689 261.945 
L 362.649937 268.665 
L 363.027185 248.505 
L 363.781681 248.505 
L 364.158929 232.825 
L 364.536177 250.745 
L 364.913425 257.465 
L 365.290672 210.425 
L 365.66792 223.865 
L 366.045168 221.625 
L 366.422416 167.865 
L 366.799664 228.345 
L 367.55416 183.545 
L 368.308656 297.785 
L 368.685904 248.505 
L 369.063152 277.625 
L 369.4404 252.985 
L 369.817648 277.625 
L 370.194896 250.745 
L 370.572144 244.025 
L 370.949392 264.185 
L 371.326639 270.905 
L 371.703887 266.425 
L 372.081135 270.905 
L 372.458383 248.505 
L 372.835631 275.385 
L 373.212879 264.185 
L 373.590127 273.145 
L 373.967375 261.945 
L 374.344623 255.225 
L 374.721871 284.345 
L 375.099119 259.705 
L 375.476367 270.905 
L 375.853615 266.425 
L 376.230863 266.425 
L 376.608111 244.025 
L 376.985359 264.185 
L 377.362606 264.185 
L 377.739854 266.425 
L 378.117102 282.105 
L 378.49435 241.785 
L 378.871598 255.225 
L 379.248846 248.505 
L 379.626094 268.665 
L 380.003342 259.705 
L 380.38059 264.185 
L 380.757838 255.225 
L 381.135086 275.385 
L 381.512334 261.945 
L 381.889582 284.345 
L 382.26683 282.105 
L 382.644078 286.585 
L 383.021326 266.425 
L 383.398573 286.585 
L 383.775821 259.705 
L 384.153069 286.585 
L 384.530317 266.425 
L 384.907565 288.825 
L 385.284813 297.785 
L 385.662061 273.145 
L 386.039309 297.785 
L 386.416557 288.825 
L 386.793805 304.505 
L 387.171053 297.785 
L 387.925549 288.825 
L 388.302797 291.065 
L 388.680045 297.785 
L 389.057293 306.745 
L 389.43454 302.265 
L 389.811788 302.265 
L 390.189036 324.665 
L 390.566284 279.865 
L 390.943532 295.545 
L 391.32078 304.505 
L 391.698028 297.785 
L 392.075276 286.585 
L 392.452524 313.465 
L 392.829772 331.385 
L 393.20702 304.505 
L 393.584268 308.985 
L 393.961516 335.865 
L 394.338764 300.025 
L 394.716012 295.545 
L 395.09326 331.385 
L 395.470508 331.385 
L 395.847755 322.425 
L 396.225003 322.425 
L 396.602251 335.865 
L 396.979499 317.945 
L 397.356747 313.465 
L 397.733995 331.385 
L 398.111243 335.865 
L 398.488491 335.865 
L 398.865739 326.905 
L 399.242987 326.905 
L 399.620235 324.665 
L 399.997483 324.665 
L 400.374731 340.345 
L 400.751979 326.905 
L 401.129227 324.665 
L 401.506475 329.145 
L 401.883722 331.385 
L 402.26097 331.385 
L 402.638218 340.345 
L 403.015466 331.385 
L 403.392714 340.345 
L 403.769962 331.385 
L 404.14721 331.385 
L 404.901706 340.345 
L 405.278954 335.865 
L 405.656202 340.345 
L 406.787946 340.345 
L 407.165194 331.385 
L 407.542442 340.345 
L 408.296937 340.345 
L 408.674185 335.865 
L 409.051433 340.345 
L 410.183177 340.345 
L 410.560425 335.865 
L 410.937673 340.345 
L 412.823913 340.345 
L 413.201161 335.865 
L 413.578409 340.345 
L 413.955656 340.345 
L 414.332904 338.105 
L 414.710152 338.105 
L 415.0874 340.345 
L 416.219144 340.345 
L 416.596392 335.865 
L 416.97364 340.345 
L 419.991623 340.345 
L 420.368871 335.865 
L 420.746119 340.345 
L 435.458789 340.345 
L 435.836037 331.385 
L 436.213285 308.985 
L 436.590533 340.345 
L 439.608516 340.345 
L 439.985764 331.385 
L 440.74026 331.385 
L 441.117508 335.865 
L 441.494756 320.185 
L 441.872004 324.665 
L 442.249252 324.665 
L 442.6265 329.145 
L 443.003748 340.345 
L 443.380996 326.905 
L 443.758244 329.145 
L 444.135492 335.865 
L 444.512739 324.665 
L 444.889987 335.865 
L 445.267235 326.905 
L 446.021731 335.865 
L 446.398979 335.865 
L 446.776227 331.385 
L 447.153475 317.945 
L 447.530723 326.905 
L 447.907971 340.345 
L 448.285219 335.865 
L 448.662467 322.425 
L 449.039715 326.905 
L 449.416963 313.465 
L 449.794211 317.945 
L 450.548706 308.985 
L 450.925954 308.985 
L 451.303202 295.545 
L 451.68045 306.745 
L 452.057698 295.545 
L 452.434946 302.265 
L 452.812194 295.545 
L 453.56669 275.385 
L 453.943938 270.905 
L 454.321186 261.945 
L 454.698434 270.905 
L 455.075682 252.985 
L 455.45293 255.225 
L 455.830178 246.265 
L 456.584673 199.225 
L 456.961921 221.625 
L 457.339169 228.345 
L 457.716417 221.625 
L 458.093665 255.225 
L 458.470913 226.105 
L 458.848161 228.345 
L 459.225409 228.345 
L 459.602657 230.585 
L 459.979905 210.425 
L 460.357153 239.545 
L 460.734401 241.785 
L 461.111649 230.585 
L 461.488897 223.865 
L 461.866145 244.025 
L 462.243393 226.105 
L 462.62064 223.865 
L 462.997888 264.185 
L 463.375136 241.785 
L 463.752384 273.145 
L 464.129632 241.785 
L 464.50688 282.105 
L 464.884128 264.185 
L 465.261376 259.705 
L 465.638624 264.185 
L 466.015872 252.985 
L 466.39312 277.625 
L 466.770368 259.705 
L 467.147616 266.425 
L 467.524864 279.865 
L 467.902112 264.185 
L 468.27936 266.425 
L 468.656607 270.905 
L 469.033855 268.665 
L 469.411103 275.385 
L 469.788351 259.705 
L 470.165599 277.625 
L 470.542847 270.905 
L 470.920095 268.665 
L 471.297343 273.145 
L 471.674591 273.145 
L 472.051839 255.225 
L 472.429087 259.705 
L 472.806335 246.265 
L 473.560831 282.105 
L 473.938079 266.425 
L 474.692574 252.985 
L 475.069822 230.585 
L 475.44707 223.865 
L 475.824318 219.385 
L 476.201566 219.385 
L 476.578814 261.945 
L 476.956062 268.665 
L 477.33331 257.465 
L 477.710558 282.105 
L 478.087806 248.505 
L 478.465054 241.785 
L 478.842302 259.705 
L 479.21955 259.705 
L 479.596798 261.945 
L 479.974046 277.625 
L 480.351294 250.745 
L 480.728541 259.705 
L 481.105789 257.465 
L 481.860285 261.945 
L 482.237533 268.665 
L 482.614781 293.305 
L 482.992029 252.985 
L 483.369277 277.625 
L 483.746525 284.345 
L 484.123773 270.905 
L 484.501021 268.665 
L 484.878269 275.385 
L 485.255517 288.825 
L 486.010013 259.705 
L 486.387261 266.425 
L 486.764508 259.705 
L 487.141756 259.705 
L 487.519004 252.985 
L 487.896252 264.185 
L 488.2735 279.865 
L 488.650748 261.945 
L 489.027996 300.025 
L 489.782492 235.065 
L 490.536988 277.625 
L 490.914236 275.385 
L 491.668732 279.865 
L 492.04598 273.145 
L 492.423228 302.265 
L 492.800476 266.425 
L 493.177723 291.065 
L 493.554971 288.825 
L 493.932219 259.705 
L 494.309467 308.985 
L 494.686715 286.585 
L 495.063963 282.105 
L 495.441211 297.785 
L 495.818459 306.745 
L 496.195707 304.505 
L 496.572955 284.345 
L 496.950203 293.305 
L 497.327451 295.545 
L 497.704699 291.065 
L 498.459195 315.705 
L 498.836443 284.345 
L 499.21369 288.825 
L 499.590938 313.465 
L 499.968186 295.545 
L 500.345434 297.785 
L 500.722682 311.225 
L 501.09993 302.265 
L 501.854426 320.185 
L 502.231674 302.265 
L 502.608922 313.465 
L 502.98617 295.545 
L 503.363418 306.745 
L 503.740666 308.985 
L 504.117914 297.785 
L 504.495162 329.145 
L 504.87241 315.705 
L 505.249657 331.385 
L 505.626905 324.665 
L 506.004153 329.145 
L 506.381401 331.385 
L 506.758649 306.745 
L 507.135897 324.665 
L 507.513145 315.705 
L 507.890393 329.145 
L 508.267641 331.385 
L 508.644889 313.465 
L 509.022137 313.465 
L 509.399385 335.865 
L 509.776633 329.145 
L 510.153881 320.185 
L 510.908377 340.345 
L 511.285624 335.865 
L 511.662872 340.345 
L 512.794616 340.345 
L 513.171864 326.905 
L 513.549112 335.865 
L 513.92636 331.385 
L 514.303608 335.865 
L 514.680856 331.385 
L 515.058104 335.865 
L 515.435352 331.385 
L 515.8126 340.345 
L 516.189848 340.345 
L 516.567096 335.865 
L 516.944344 340.345 
L 517.321591 335.865 
L 517.698839 340.345 
L 518.076087 340.345 
L 518.453335 335.865 
L 518.830583 340.345 
L 519.585079 340.345 
L 519.962327 335.865 
L 520.339575 340.345 
L 530.148021 340.345 
L 530.525269 331.385 
L 530.902517 340.345 
L 541.842707 340.345 
L 542.219955 331.385 
L 542.597203 313.465 
L 542.974451 340.345 
L 547.501427 340.345 
L 547.878674 331.385 
L 548.255922 331.385 
L 548.63317 340.345 
L 549.010418 331.385 
L 549.387666 326.905 
L 549.764914 340.345 
L 550.142162 320.185 
L 550.51941 315.705 
L 550.896658 326.905 
L 551.651154 335.865 
L 552.028402 335.865 
L 552.782898 304.505 
L 553.160146 333.625 
L 553.537394 322.425 
L 553.914641 340.345 
L 554.291889 322.425 
L 554.669137 331.385 
L 555.046385 311.225 
L 555.423633 338.105 
L 555.800881 326.905 
L 556.178129 331.385 
L 556.555377 313.465 
L 556.932625 335.865 
L 557.309873 331.385 
L 558.064369 331.385 
L 558.441617 340.345 
L 558.818865 331.385 
L 559.196113 300.025 
L 559.573361 295.545 
L 559.950608 304.505 
L 560.327856 304.505 
L 560.705104 295.545 
L 561.082352 300.025 
L 561.4596 279.865 
L 561.836848 300.025 
L 562.214096 286.585 
L 562.591344 266.425 
L 562.968592 266.425 
L 563.34584 252.985 
L 564.100336 257.465 
L 564.477584 257.465 
L 564.854832 210.425 
L 565.23208 190.265 
L 565.609328 223.865 
L 565.986575 217.145 
L 566.363823 235.065 
L 566.741071 208.185 
L 567.118319 257.465 
L 567.495567 230.585 
L 567.872815 228.345 
L 568.250063 223.865 
L 568.627311 223.865 
L 569.004559 210.425 
L 569.759055 248.505 
L 570.136303 244.025 
L 570.513551 237.305 
L 570.890799 248.505 
L 571.268047 235.065 
L 571.645295 235.065 
L 572.022542 264.185 
L 572.39979 257.465 
L 572.777038 302.265 
L 573.154286 261.945 
L 573.531534 252.985 
L 573.908782 277.625 
L 574.28603 266.425 
L 574.663278 266.425 
L 575.040526 288.825 
L 575.417774 284.345 
L 575.795022 308.985 
L 576.17227 315.705 
L 576.549518 252.985 
L 576.926766 266.425 
L 577.304014 261.945 
L 577.681262 277.625 
L 578.058509 268.665 
L 578.435757 268.665 
L 578.813005 282.105 
L 579.190253 261.945 
L 579.567501 257.465 
L 579.944749 279.865 
L 580.699245 244.025 
L 581.076493 235.065 
L 581.453741 237.305 
L 581.830989 244.025 
L 582.208237 217.145 
L 582.585485 241.785 
L 582.962733 241.785 
L 583.339981 248.505 
L 583.717229 192.505 
L 584.094476 208.185 
L 584.471724 179.065 
L 584.848972 199.225 
L 585.22622 246.265 
L 585.603468 261.945 
L 585.980716 268.665 
L 586.357964 248.505 
L 586.735212 257.465 
L 587.489708 244.025 
L 587.866956 255.225 
L 588.244204 275.385 
L 588.621452 275.385 
L 588.9987 277.625 
L 589.375948 282.105 
L 589.753196 239.545 
L 590.130444 259.705 
L 590.507691 288.825 
L 590.884939 277.625 
L 591.262187 259.705 
L 591.639435 259.705 
L 592.016683 244.025 
L 592.393931 255.225 
L 592.771179 277.625 
L 593.148427 261.945 
L 593.525675 252.985 
L 593.902923 266.425 
L 594.280171 270.905 
L 594.657419 277.625 
L 595.034667 259.705 
L 595.411915 250.745 
L 595.789163 252.985 
L 596.166411 257.465 
L 596.543658 293.305 
L 596.920906 277.625 
L 597.298154 244.025 
L 597.675402 266.425 
L 598.05265 270.905 
L 598.429898 273.145 
L 598.807146 273.145 
L 599.184394 261.945 
L 599.561642 259.705 
L 599.93889 308.985 
L 600.316138 275.385 
L 600.693386 286.585 
L 601.070634 268.665 
L 601.447882 293.305 
L 601.82513 295.545 
L 602.202378 268.665 
L 602.579625 282.105 
L 602.956873 268.665 
L 603.334121 297.785 
L 603.711369 293.305 
L 604.088617 306.745 
L 604.465865 306.745 
L 604.843113 293.305 
L 605.220361 293.305 
L 605.597609 288.825 
L 605.974857 308.985 
L 606.352105 308.985 
L 606.729353 315.705 
L 607.106601 297.785 
L 607.483849 295.545 
L 607.861097 315.705 
L 608.238345 311.225 
L 608.615592 313.465 
L 608.99284 293.305 
L 609.370088 324.665 
L 609.747336 313.465 
L 610.124584 317.945 
L 610.501832 317.945 
L 610.87908 282.105 
L 611.256328 317.945 
L 611.633576 317.945 
L 612.010824 304.505 
L 612.388072 322.425 
L 612.76532 320.185 
L 613.142568 315.705 
L 613.519816 324.665 
L 613.897064 315.705 
L 614.274312 326.905 
L 614.651559 322.425 
L 615.028807 331.385 
L 615.783303 322.425 
L 616.160551 313.465 
L 616.537799 320.185 
L 616.915047 315.705 
L 617.292295 326.905 
L 617.669543 308.985 
L 618.046791 331.385 
L 618.424039 331.385 
L 618.801287 340.345 
L 619.178535 331.385 
L 620.310279 331.385 
L 620.687526 340.345 
L 622.196518 340.345 
L 622.951014 331.385 
L 623.328262 340.345 
L 631.627717 340.345 
L 632.004965 335.865 
L 632.382213 340.345 
L 650.490114 340.345 
L 650.867362 331.385 
L 651.244609 300.025 
L 651.621857 335.865 
L 651.999105 340.345 
L 652.376353 335.865 
L 652.753601 335.865 
L 653.130849 340.345 
L 656.148833 340.345 
L 656.903329 331.385 
L 657.280576 331.385 
L 657.657824 340.345 
L 658.035072 335.865 
L 658.41232 329.145 
L 658.789568 333.625 
L 659.166816 315.705 
L 659.544064 326.905 
L 659.921312 333.625 
L 660.29856 335.865 
L 660.675808 331.385 
L 661.053056 320.185 
L 661.430304 333.625 
L 661.807552 286.585 
L 662.1848 331.385 
L 662.562048 315.705 
L 662.939296 329.145 
L 663.316543 326.905 
L 663.693791 340.345 
L 664.071039 322.425 
L 664.448287 295.545 
L 664.825535 335.865 
L 665.202783 331.385 
L 665.957279 331.385 
L 666.334527 306.745 
L 666.711775 329.145 
L 667.089023 326.905 
L 667.843519 302.265 
L 668.220767 308.985 
L 668.598015 308.985 
L 668.975263 286.585 
L 669.35251 291.065 
L 669.729758 279.865 
L 670.107006 291.065 
L 670.484254 295.545 
L 670.861502 273.145 
L 671.23875 273.145 
L 671.615998 282.105 
L 671.993246 279.865 
L 672.370494 261.945 
L 672.747742 250.745 
L 673.12499 235.065 
L 673.502238 205.945 
L 673.879486 217.145 
L 674.256734 212.665 
L 674.633982 226.105 
L 675.01123 235.065 
L 675.388477 232.825 
L 675.765725 214.905 
L 676.142973 248.505 
L 676.520221 210.425 
L 676.897469 232.825 
L 677.274717 210.425 
L 677.651965 246.265 
L 678.029213 250.745 
L 678.406461 241.785 
L 678.783709 241.785 
L 679.160957 232.825 
L 679.538205 248.505 
L 679.915453 244.025 
L 680.292701 237.305 
L 680.669949 241.785 
L 681.047197 244.025 
L 681.424444 237.305 
L 681.801692 259.705 
L 682.17894 275.385 
L 682.556188 279.865 
L 682.933436 264.185 
L 683.310684 268.665 
L 683.687932 286.585 
L 684.06518 279.865 
L 684.442428 266.425 
L 684.819676 279.865 
L 685.196924 266.425 
L 685.574172 279.865 
L 685.95142 257.465 
L 686.328668 268.665 
L 686.705916 259.705 
L 687.083164 279.865 
L 687.460412 257.465 
L 687.837659 259.705 
L 688.214907 257.465 
L 688.592155 259.705 
L 688.969403 268.665 
L 689.346651 248.505 
L 689.723899 214.905 
L 690.101147 239.545 
L 690.478395 244.025 
L 690.855643 230.585 
L 691.232891 246.265 
L 691.610139 217.145 
L 691.987387 223.865 
L 692.364635 228.345 
L 692.741883 201.465 
L 693.119131 212.665 
L 693.496379 205.945 
L 693.873626 261.945 
L 694.250874 268.665 
L 694.628122 257.465 
L 695.00537 270.905 
L 695.382618 250.745 
L 695.759866 279.865 
L 696.137114 275.385 
L 696.89161 248.505 
L 697.268858 264.185 
L 697.646106 257.465 
L 698.023354 255.225 
L 698.400602 257.465 
L 698.77785 275.385 
L 699.155098 268.665 
L 699.909593 259.705 
L 700.286841 266.425 
L 700.664089 277.625 
L 701.041337 257.465 
L 701.418585 273.145 
L 701.795833 266.425 
L 702.173081 268.665 
L 702.550329 255.225 
L 702.927577 261.945 
L 703.304825 279.865 
L 703.682073 286.585 
L 704.059321 270.905 
L 704.813817 266.425 
L 705.568313 270.905 
L 705.94556 275.385 
L 706.322808 275.385 
L 706.700056 261.945 
L 707.454552 284.345 
L 707.8318 266.425 
L 708.209048 268.665 
L 708.586296 273.145 
L 708.963544 273.145 
L 709.340792 268.665 
L 709.71804 282.105 
L 710.095288 288.825 
L 710.472536 270.905 
L 710.849784 311.225 
L 711.227032 288.825 
L 711.60428 277.625 
L 711.981527 293.305 
L 712.358775 286.585 
L 712.736023 293.305 
L 713.113271 288.825 
L 713.490519 302.265 
L 713.867767 279.865 
L 714.245015 300.025 
L 714.622263 286.585 
L 714.999511 302.265 
L 715.376759 284.345 
L 715.754007 308.985 
L 716.131255 304.505 
L 716.508503 304.505 
L 716.885751 300.025 
L 717.262999 308.985 
L 717.640247 300.025 
L 718.017494 317.945 
L 718.394742 286.585 
L 718.77199 295.545 
L 719.149238 300.025 
L 719.526486 313.465 
L 719.903734 300.025 
L 720.280982 324.665 
L 720.65823 315.705 
L 721.035478 326.905 
L 721.412726 320.185 
L 721.789974 311.225 
L 722.167222 317.945 
L 722.921718 335.865 
L 723.298966 308.985 
L 723.676214 340.345 
L 724.053461 326.905 
L 724.430709 335.865 
L 725.185205 302.265 
L 725.562453 320.185 
L 725.939701 326.905 
L 726.316949 326.905 
L 726.694197 340.345 
L 727.448693 340.345 
L 727.825941 326.905 
L 728.203189 322.425 
L 728.957685 340.345 
L 729.334933 331.385 
L 729.712181 331.385 
L 730.089428 340.345 
L 730.466676 331.385 
L 730.843924 340.345 
L 731.221172 340.345 
L 731.59842 335.865 
L 731.975668 340.345 
L 732.352916 340.345 
L 732.730164 335.865 
L 733.107412 340.345 
L 733.48466 335.865 
L 733.861908 333.625 
L 734.239156 338.105 
L 734.616404 331.385 
L 734.993652 340.345 
L 735.3709 340.345 
L 735.748148 335.865 
L 736.125396 335.865 
L 736.502643 331.385 
L 736.879891 340.345 
L 737.257139 331.385 
L 737.634387 340.345 
L 741.029619 340.345 
L 741.406867 335.865 
L 741.784115 340.345 
L 743.293106 340.345 
L 743.670354 331.385 
L 744.047602 340.345 
L 759.514768 340.345 
L 759.892016 308.985 
L 760.269264 331.385 
L 760.646511 340.345 
L 764.418991 340.345 
L 764.796239 335.865 
L 765.173487 335.865 
L 765.550735 340.345 
L 765.927983 335.865 
L 766.305231 335.865 
L 766.682478 326.905 
L 767.059726 335.865 
L 767.436974 335.865 
L 767.814222 315.705 
L 768.19147 320.185 
L 768.568718 338.105 
L 768.945966 333.625 
L 769.323214 335.865 
L 769.700462 326.905 
L 770.07771 340.345 
L 770.454958 306.745 
L 770.832206 333.625 
L 771.209454 311.225 
L 771.586702 320.185 
L 771.96395 317.945 
L 772.341198 340.345 
L 772.718445 335.865 
L 773.472941 335.865 
L 773.850189 331.385 
L 774.227437 331.385 
L 774.604685 335.865 
L 774.981933 326.905 
L 775.359181 322.425 
L 775.736429 322.425 
L 776.113677 304.505 
L 776.490925 293.305 
L 776.868173 308.985 
L 777.245421 302.265 
L 777.622669 306.745 
L 777.999917 286.585 
L 778.377165 291.065 
L 778.754412 291.065 
L 779.13166 266.425 
L 779.508908 288.825 
L 779.886156 273.145 
L 780.263404 279.865 
L 780.640652 268.665 
L 781.395148 259.705 
L 781.772396 273.145 
L 782.149644 214.905 
L 782.526892 196.985 
L 782.90414 219.385 
L 783.281388 219.385 
L 783.658636 214.905 
L 784.035884 237.305 
L 784.413132 230.585 
L 784.79038 226.105 
L 785.167627 237.305 
L 785.544875 239.545 
L 785.922123 221.625 
L 786.299371 223.865 
L 786.676619 221.625 
L 787.053867 241.785 
L 787.431115 232.825 
L 787.808363 255.225 
L 788.185611 217.145 
L 788.940107 257.465 
L 789.317355 235.065 
L 789.694603 239.545 
L 790.071851 266.425 
L 790.449099 266.425 
L 790.826347 273.145 
L 791.203594 273.145 
L 791.580842 257.465 
L 791.95809 270.905 
L 792.335338 268.665 
L 792.712586 288.825 
L 793.089834 288.825 
L 793.467082 275.385 
L 793.84433 270.905 
L 794.221578 264.185 
L 794.598826 291.065 
L 794.976074 270.905 
L 795.353322 259.705 
L 795.73057 277.625 
L 796.107818 270.905 
L 796.485066 270.905 
L 797.616809 237.305 
L 797.994057 199.225 
L 798.371305 248.505 
L 798.748553 239.545 
L 799.125801 237.305 
L 799.503049 257.465 
L 799.880297 214.905 
L 800.257545 246.265 
L 800.634793 203.705 
L 801.012041 219.385 
L 801.389289 244.025 
L 802.143785 201.465 
L 802.521033 248.505 
L 802.898281 275.385 
L 803.275528 270.905 
L 803.652776 277.625 
L 804.030024 295.545 
L 804.407272 268.665 
L 804.78452 261.945 
L 805.161768 275.385 
L 805.539016 252.985 
L 805.916264 244.025 
L 806.293512 277.625 
L 806.67076 273.145 
L 807.048008 255.225 
L 807.425256 257.465 
L 807.802504 279.865 
L 808.179752 259.705 
L 808.557 261.945 
L 809.311495 252.985 
L 809.688743 268.665 
L 810.065991 261.945 
L 810.443239 268.665 
L 810.820487 266.425 
L 811.197735 277.625 
L 811.574983 266.425 
L 811.952231 270.905 
L 812.329479 279.865 
L 812.706727 259.705 
L 813.083975 266.425 
L 813.461223 284.345 
L 813.838471 259.705 
L 814.215719 293.305 
L 814.592967 282.105 
L 814.970215 293.305 
L 815.347462 282.105 
L 815.72471 279.865 
L 816.101958 291.065 
L 816.479206 277.625 
L 816.856454 304.505 
L 817.233702 291.065 
L 817.61095 284.345 
L 817.988198 291.065 
L 818.365446 293.305 
L 818.742694 279.865 
L 819.119942 293.305 
L 819.49719 295.545 
L 819.874438 277.625 
L 820.251686 311.225 
L 820.628934 270.905 
L 821.383429 300.025 
L 821.760677 326.905 
L 822.137925 291.065 
L 822.515173 308.985 
L 822.892421 295.545 
L 823.269669 297.785 
L 823.646917 306.745 
L 824.024165 300.025 
L 824.401413 297.785 
L 824.778661 326.905 
L 825.155909 277.625 
L 825.533157 313.465 
L 826.287653 322.425 
L 826.664901 317.945 
L 827.042149 317.945 
L 827.419396 322.425 
L 827.796644 335.865 
L 828.173892 297.785 
L 828.55114 326.905 
L 828.928388 333.625 
L 829.305636 313.465 
L 829.682884 326.905 
L 830.060132 326.905 
L 830.43738 313.465 
L 830.814628 335.865 
L 831.191876 335.865 
L 831.569124 340.345 
L 831.946372 335.865 
L 832.32362 324.665 
L 832.700868 324.665 
L 833.078116 335.865 
L 833.455364 311.225 
L 833.832611 311.225 
L 834.209859 340.345 
L 834.587107 335.865 
L 834.964355 329.145 
L 835.341603 329.145 
L 835.718851 340.345 
L 836.096099 326.905 
L 836.473347 331.385 
L 836.850595 322.425 
L 837.227843 335.865 
L 837.982339 335.865 
L 838.359587 340.345 
L 838.736835 331.385 
L 839.114083 335.865 
L 839.491331 335.865 
L 839.868578 340.345 
L 840.245826 335.865 
L 840.623074 340.345 
L 841.000322 335.865 
L 841.37757 340.345 
L 841.754818 340.345 
L 842.132066 331.385 
L 842.509314 335.865 
L 842.886562 335.865 
L 843.26381 340.345 
L 843.641058 340.345 
L 844.018306 335.865 
L 844.395554 340.345 
L 844.772802 340.345 
L 845.15005 331.385 
L 845.527298 340.345 
L 845.904545 340.345 
L 845.904545 340.345 
" clip-path="url(#pd250f32587)" style="fill: none; stroke: #d62728; stroke-opacity: 0.7; stroke-width: 1.5; stroke-linecap: round"/>
   </g>
   <g id="line2d_18">
    <path d="M 84.995455 320.185 
L 85.372702 315.705 
L 85.74995 340.345 
L 86.127198 331.385 
L 86.881694 335.865 
L 87.258942 324.665 
L 87.63619 340.345 
L 88.013438 335.865 
L 88.390686 340.345 
L 89.899678 340.345 
L 90.276926 335.865 
L 90.654174 335.865 
L 91.031422 331.385 
L 91.408669 340.345 
L 91.785917 335.865 
L 92.163165 340.345 
L 93.294909 340.345 
L 93.672157 335.865 
L 94.803901 335.865 
L 95.181149 340.345 
L 95.935645 340.345 
L 96.312893 335.865 
L 96.690141 340.345 
L 97.067389 335.865 
L 97.444636 340.345 
L 100.085372 340.345 
L 100.46262 331.385 
L 100.839868 340.345 
L 111.780058 340.345 
L 112.157306 335.865 
L 112.534554 340.345 
L 119.702265 340.345 
L 120.079513 335.865 
L 120.456761 340.345 
L 120.834009 340.345 
L 121.211257 335.865 
L 121.588505 340.345 
L 121.965752 335.865 
L 122.343 335.865 
L 122.720248 340.345 
L 123.097496 331.385 
L 123.474744 335.865 
L 123.851992 335.865 
L 124.22924 331.385 
L 124.606488 335.865 
L 124.983736 326.905 
L 125.360984 335.865 
L 125.738232 335.865 
L 126.11548 340.345 
L 126.492728 340.345 
L 126.869976 322.425 
L 127.247224 322.425 
L 127.624472 326.905 
L 128.001719 335.865 
L 128.378967 335.865 
L 128.756215 340.345 
L 129.510711 331.385 
L 129.887959 317.945 
L 130.642455 338.105 
L 131.019703 338.105 
L 131.396951 340.345 
L 131.774199 335.865 
L 132.151447 326.905 
L 132.528695 335.865 
L 132.905943 331.385 
L 133.660439 331.385 
L 134.037686 335.865 
L 136.301174 335.865 
L 136.678422 326.905 
L 137.05567 331.385 
L 137.432918 331.385 
L 138.187414 340.345 
L 138.564662 340.345 
L 138.94191 331.385 
L 139.319158 331.385 
L 139.696406 340.345 
L 140.073653 331.385 
L 140.450901 340.345 
L 141.205397 340.345 
L 141.582645 338.105 
L 141.959893 333.625 
L 142.337141 340.345 
L 143.091637 340.345 
L 143.468885 335.865 
L 143.846133 340.345 
L 144.223381 331.385 
L 144.600629 331.385 
L 144.977877 340.345 
L 145.355125 331.385 
L 146.10962 331.385 
L 146.486868 335.865 
L 146.864116 324.665 
L 147.241364 324.665 
L 147.618612 335.865 
L 147.99586 326.905 
L 148.373108 335.865 
L 148.750356 331.385 
L 149.127604 340.345 
L 149.504852 326.905 
L 150.259348 335.865 
L 150.636596 338.105 
L 151.013844 333.625 
L 151.391092 340.345 
L 151.76834 335.865 
L 152.145588 340.345 
L 152.522835 340.345 
L 152.900083 331.385 
L 153.277331 340.345 
L 153.654579 340.345 
L 154.031827 335.865 
L 154.409075 340.345 
L 154.786323 340.345 
L 155.163571 331.385 
L 155.540819 331.385 
L 155.918067 335.865 
L 156.672563 335.865 
L 157.049811 331.385 
L 157.427059 340.345 
L 157.804307 335.865 
L 158.181555 329.145 
L 158.558802 338.105 
L 158.93605 340.345 
L 159.313298 335.865 
L 159.690546 340.345 
L 160.067794 335.865 
L 160.445042 326.905 
L 160.82229 326.905 
L 161.199538 329.145 
L 161.576786 333.625 
L 161.954034 335.865 
L 162.331282 331.385 
L 162.70853 340.345 
L 163.085778 335.865 
L 163.463026 340.345 
L 164.594769 340.345 
L 164.972017 335.865 
L 166.103761 335.865 
L 166.481009 340.345 
L 166.858257 335.865 
L 167.235505 340.345 
L 167.612753 335.865 
L 168.367249 335.865 
L 168.744497 331.385 
L 169.498993 340.345 
L 169.876241 340.345 
L 170.253489 335.865 
L 170.630736 340.345 
L 172.139728 340.345 
L 172.516976 335.865 
L 172.894224 340.345 
L 173.64872 340.345 
L 174.025968 335.865 
L 174.403216 335.865 
L 174.780464 340.345 
L 176.289456 340.345 
L 176.666703 335.865 
L 177.043951 340.345 
L 179.307439 340.345 
L 179.684687 335.865 
L 180.061935 340.345 
L 181.570927 340.345 
L 181.948175 335.865 
L 182.325423 340.345 
L 182.70267 335.865 
L 183.079918 340.345 
L 184.211662 340.345 
L 184.58891 335.865 
L 184.966158 340.345 
L 185.343406 331.385 
L 186.097902 340.345 
L 194.774604 340.345 
L 195.151852 335.865 
L 195.5291 340.345 
L 229.104167 340.345 
L 229.481415 331.385 
L 229.858663 340.345 
L 230.235911 335.865 
L 230.613159 335.865 
L 230.990407 340.345 
L 231.744902 340.345 
L 232.12215 329.145 
L 232.499398 333.625 
L 232.876646 335.865 
L 233.253894 340.345 
L 233.631142 340.345 
L 234.00839 335.865 
L 234.385638 326.905 
L 234.762886 340.345 
L 235.140134 331.385 
L 235.89463 340.345 
L 236.649126 340.345 
L 237.026374 335.865 
L 237.403621 340.345 
L 239.289861 340.345 
L 239.667109 335.865 
L 240.044357 335.865 
L 240.421605 340.345 
L 240.798853 335.865 
L 241.176101 335.865 
L 241.553349 340.345 
L 241.930597 335.865 
L 242.307845 340.345 
L 242.685093 317.945 
L 243.062341 335.865 
L 243.439588 340.345 
L 247.212068 340.345 
L 247.589316 338.105 
L 248.72106 338.105 
L 249.098308 331.385 
L 249.475556 340.345 
L 249.852803 335.865 
L 250.230051 340.345 
L 250.607299 335.865 
L 251.361795 335.865 
L 251.739043 340.345 
L 252.116291 335.865 
L 252.493539 340.345 
L 252.870787 340.345 
L 253.248035 335.865 
L 253.625283 340.345 
L 254.002531 331.385 
L 254.379779 340.345 
L 254.757027 340.345 
L 255.134275 335.865 
L 255.511523 333.625 
L 255.88877 333.625 
L 256.266018 335.865 
L 256.643266 329.145 
L 257.020514 338.105 
L 257.397762 331.385 
L 257.77501 340.345 
L 258.529506 340.345 
L 258.906754 335.865 
L 259.284002 335.865 
L 259.66125 340.345 
L 261.170242 340.345 
L 261.54749 331.385 
L 261.924737 340.345 
L 263.056481 340.345 
L 263.433729 338.105 
L 263.810977 331.385 
L 264.188225 333.625 
L 264.565473 340.345 
L 264.942721 340.345 
L 265.697217 331.385 
L 266.074465 340.345 
L 266.451713 335.865 
L 267.583457 335.865 
L 267.960704 340.345 
L 268.337952 335.865 
L 268.7152 340.345 
L 269.092448 335.865 
L 269.469696 340.345 
L 269.846944 331.385 
L 270.224192 335.865 
L 270.978688 335.865 
L 271.355936 340.345 
L 271.733184 335.865 
L 272.48768 335.865 
L 272.864928 338.105 
L 273.242176 338.105 
L 273.619424 335.865 
L 273.996671 331.385 
L 274.373919 340.345 
L 275.505663 340.345 
L 275.882911 338.105 
L 276.260159 333.625 
L 276.637407 331.385 
L 277.014655 340.345 
L 277.391903 331.385 
L 277.769151 340.345 
L 279.278143 340.345 
L 279.655391 335.865 
L 280.032638 340.345 
L 280.409886 340.345 
L 280.787134 335.865 
L 281.164382 340.345 
L 281.54163 340.345 
L 281.918878 335.865 
L 282.296126 340.345 
L 285.691358 340.345 
L 286.068605 322.425 
L 286.445853 340.345 
L 286.823101 335.865 
L 287.200349 340.345 
L 287.954845 340.345 
L 288.332093 335.865 
L 288.709341 335.865 
L 289.086589 340.345 
L 293.236316 340.345 
L 293.613564 335.865 
L 293.990812 340.345 
L 301.913019 340.345 
L 302.290267 335.865 
L 302.667515 340.345 
L 333.979094 340.345 
L 334.356342 335.865 
L 334.733589 340.345 
L 335.110837 331.385 
L 335.488085 331.385 
L 336.242581 340.345 
L 336.619829 335.865 
L 336.997077 340.345 
L 337.374325 340.345 
L 337.751573 333.625 
L 338.128821 338.105 
L 338.506069 335.865 
L 338.883317 340.345 
L 339.637813 340.345 
L 340.015061 335.865 
L 341.146804 335.865 
L 341.524052 340.345 
L 342.278548 331.385 
L 342.655796 317.945 
L 343.033044 295.545 
L 343.410292 322.425 
L 343.78754 335.865 
L 344.164788 326.905 
L 344.919284 326.905 
L 345.296532 315.705 
L 346.051028 315.705 
L 346.428276 306.745 
L 346.805524 315.705 
L 347.182771 304.505 
L 347.560019 320.185 
L 347.937267 304.505 
L 348.691763 257.465 
L 349.069011 286.585 
L 349.446259 284.345 
L 349.823507 259.705 
L 350.200755 277.625 
L 350.578003 248.505 
L 350.955251 239.545 
L 351.332499 270.905 
L 351.709747 264.185 
L 352.086995 248.505 
L 352.464243 264.185 
L 352.841491 257.465 
L 353.595986 235.065 
L 353.973234 255.225 
L 354.350482 230.585 
L 354.72773 237.305 
L 355.104978 214.905 
L 355.482226 203.705 
L 355.859474 210.425 
L 356.236722 145.465 
L 356.61397 145.465 
L 356.991218 140.985 
L 357.368466 132.025 
L 357.745714 179.065 
L 358.122962 165.625 
L 358.50021 176.825 
L 358.877458 174.585 
L 359.254705 138.745 
L 359.631953 196.985 
L 360.386449 158.905 
L 360.763697 165.625 
L 361.140945 181.305 
L 361.518193 230.585 
L 361.895441 212.665 
L 362.272689 237.305 
L 362.649937 226.105 
L 363.027185 208.185 
L 363.404433 239.545 
L 363.781681 239.545 
L 364.158929 205.945 
L 364.536177 239.545 
L 364.913425 223.865 
L 365.290672 246.265 
L 365.66792 221.625 
L 366.045168 214.905 
L 366.422416 255.225 
L 366.799664 217.145 
L 367.176912 252.985 
L 367.55416 257.465 
L 367.931408 252.985 
L 368.308656 237.305 
L 368.685904 248.505 
L 369.063152 266.425 
L 369.4404 235.065 
L 369.817648 230.585 
L 370.194896 230.585 
L 370.572144 266.425 
L 370.949392 244.025 
L 371.326639 257.465 
L 371.703887 266.425 
L 372.458383 230.585 
L 372.835631 255.225 
L 373.590127 259.705 
L 374.344623 217.145 
L 374.721871 221.625 
L 375.099119 228.345 
L 375.476367 232.825 
L 375.853615 212.665 
L 376.230863 221.625 
L 376.608111 248.505 
L 377.362606 228.345 
L 377.739854 235.065 
L 378.117102 217.145 
L 378.49435 255.225 
L 378.871598 192.505 
L 379.626094 244.025 
L 380.003342 259.705 
L 380.38059 257.465 
L 380.757838 286.585 
L 381.135086 268.665 
L 381.512334 221.625 
L 381.889582 248.505 
L 382.26683 244.025 
L 382.644078 252.985 
L 383.021326 273.145 
L 383.398573 232.825 
L 383.775821 100.665 
L 384.153069 98.425 
L 384.530317 116.345 
L 384.907565 91.705 
L 385.284813 91.705 
L 385.662061 78.265 
L 386.039309 73.785 
L 386.416557 76.025 
L 386.793805 44.665 
L 387.171053 87.225 
L 387.548301 87.225 
L 387.925549 82.745 
L 388.302797 87.225 
L 389.057293 51.385 
L 389.43454 87.225 
L 389.811788 87.225 
L 390.189036 102.905 
L 390.566284 55.865 
L 390.943532 116.345 
L 391.32078 84.985 
L 391.698028 172.345 
L 392.075276 208.185 
L 392.452524 192.505 
L 392.829772 241.785 
L 393.20702 237.305 
L 393.584268 201.465 
L 393.961516 214.905 
L 394.338764 217.145 
L 394.716012 232.825 
L 395.09326 228.345 
L 395.470508 273.145 
L 395.847755 266.425 
L 396.225003 266.425 
L 396.602251 288.825 
L 397.356747 293.305 
L 397.733995 248.505 
L 398.111243 282.105 
L 398.865739 282.105 
L 399.242987 288.825 
L 399.620235 293.305 
L 399.997483 300.025 
L 400.374731 264.185 
L 400.751979 291.065 
L 401.129227 266.425 
L 401.506475 308.985 
L 401.883722 302.265 
L 402.26097 315.705 
L 402.638218 315.705 
L 403.015466 295.545 
L 403.392714 304.505 
L 403.769962 295.545 
L 404.14721 313.465 
L 404.524458 306.745 
L 404.901706 331.385 
L 405.278954 311.225 
L 406.03345 335.865 
L 406.410698 331.385 
L 406.787946 322.425 
L 407.165194 335.865 
L 407.542442 331.385 
L 407.919689 322.425 
L 408.296937 326.905 
L 408.674185 322.425 
L 409.051433 331.385 
L 409.428681 326.905 
L 409.805929 326.905 
L 410.183177 335.865 
L 410.560425 317.945 
L 410.937673 322.425 
L 411.314921 333.625 
L 411.692169 329.145 
L 412.069417 335.865 
L 412.446665 326.905 
L 412.823913 335.865 
L 413.201161 317.945 
L 413.578409 331.385 
L 413.955656 331.385 
L 414.710152 322.425 
L 415.0874 335.865 
L 415.464648 331.385 
L 415.841896 340.345 
L 416.219144 326.905 
L 416.596392 340.345 
L 416.97364 335.865 
L 417.728136 335.865 
L 418.105384 338.105 
L 418.482632 333.625 
L 418.85988 335.865 
L 419.237128 335.865 
L 419.614376 331.385 
L 419.991623 340.345 
L 420.368871 335.865 
L 420.746119 335.865 
L 421.123367 340.345 
L 423.009607 340.345 
L 423.386855 335.865 
L 423.764103 340.345 
L 438.099524 340.345 
L 438.476772 335.865 
L 438.85402 340.345 
L 442.6265 340.345 
L 443.003748 335.865 
L 443.380996 335.865 
L 443.758244 331.385 
L 444.135492 340.345 
L 444.512739 329.145 
L 444.889987 333.625 
L 445.267235 340.345 
L 445.644483 326.905 
L 446.021731 340.345 
L 446.398979 340.345 
L 446.776227 322.425 
L 447.153475 335.865 
L 447.530723 340.345 
L 447.907971 326.905 
L 448.285219 340.345 
L 448.662467 335.865 
L 449.039715 340.345 
L 449.416963 322.425 
L 449.794211 340.345 
L 450.171459 331.385 
L 450.548706 326.905 
L 450.925954 335.865 
L 451.303202 340.345 
L 451.68045 315.705 
L 452.057698 333.625 
L 452.434946 326.905 
L 452.812194 331.385 
L 453.189442 317.945 
L 453.56669 333.625 
L 453.943938 324.665 
L 454.321186 300.025 
L 454.698434 297.785 
L 455.45293 317.945 
L 455.830178 302.265 
L 456.207426 315.705 
L 456.584673 300.025 
L 456.961921 304.505 
L 457.339169 293.305 
L 457.716417 306.745 
L 458.093665 306.745 
L 458.470913 300.025 
L 458.848161 286.585 
L 459.225409 277.625 
L 459.979905 268.665 
L 460.357153 259.705 
L 460.734401 270.905 
L 461.111649 230.585 
L 461.488897 221.625 
L 461.866145 261.945 
L 462.243393 237.305 
L 462.62064 268.665 
L 462.997888 255.225 
L 463.375136 257.465 
L 463.752384 228.345 
L 464.129632 261.945 
L 464.884128 201.465 
L 465.261376 152.185 
L 465.638624 158.905 
L 466.015872 152.185 
L 466.39312 125.305 
L 466.770368 152.185 
L 467.147616 165.625 
L 467.524864 161.145 
L 467.902112 152.185 
L 468.27936 163.385 
L 468.656607 183.545 
L 469.033855 176.825 
L 469.411103 179.065 
L 469.788351 201.465 
L 470.165599 199.225 
L 470.542847 214.905 
L 470.920095 223.865 
L 471.297343 223.865 
L 471.674591 244.025 
L 472.051839 235.065 
L 472.429087 246.265 
L 472.806335 246.265 
L 473.183583 252.985 
L 473.560831 255.225 
L 473.938079 255.225 
L 474.315327 223.865 
L 474.692574 279.865 
L 475.069822 248.505 
L 475.44707 268.665 
L 475.824318 237.305 
L 476.201566 232.825 
L 476.578814 226.105 
L 476.956062 246.265 
L 477.33331 248.505 
L 477.710558 284.345 
L 478.087806 244.025 
L 478.465054 246.265 
L 478.842302 241.785 
L 479.21955 252.985 
L 479.596798 248.505 
L 480.351294 212.665 
L 480.728541 212.665 
L 481.105789 237.305 
L 481.483037 235.065 
L 481.860285 237.305 
L 482.237533 246.265 
L 482.614781 259.705 
L 482.992029 221.625 
L 484.123773 268.665 
L 484.501021 223.865 
L 484.878269 221.625 
L 485.255517 259.705 
L 485.632765 237.305 
L 486.010013 230.585 
L 486.387261 241.785 
L 486.764508 219.385 
L 487.141756 266.425 
L 487.519004 248.505 
L 487.896252 217.145 
L 488.2735 228.345 
L 488.650748 270.905 
L 489.027996 219.385 
L 489.405244 264.185 
L 489.782492 246.265 
L 490.536988 228.345 
L 490.914236 237.305 
L 491.291484 257.465 
L 491.668732 223.865 
L 492.04598 237.305 
L 492.423228 98.425 
L 492.800476 138.745 
L 493.554971 105.145 
L 493.932219 69.305 
L 494.309467 62.585 
L 494.686715 67.065 
L 495.063963 60.345 
L 495.441211 76.025 
L 495.818459 76.025 
L 496.572955 55.865 
L 496.950203 76.025 
L 497.327451 62.585 
L 497.704699 80.505 
L 498.081947 82.745 
L 498.459195 78.265 
L 498.836443 62.585 
L 499.21369 102.905 
L 499.590938 107.385 
L 500.345434 199.225 
L 500.722682 205.945 
L 501.09993 230.585 
L 501.477178 226.105 
L 501.854426 199.225 
L 502.231674 241.785 
L 502.608922 232.825 
L 502.98617 232.825 
L 503.363418 284.345 
L 503.740666 259.705 
L 504.117914 277.625 
L 504.495162 266.425 
L 504.87241 268.665 
L 505.249657 261.945 
L 505.626905 268.665 
L 506.004153 255.225 
L 506.758649 286.585 
L 507.135897 277.625 
L 507.890393 282.105 
L 508.267641 275.385 
L 508.644889 264.185 
L 509.022137 286.585 
L 509.399385 302.265 
L 509.776633 302.265 
L 510.153881 288.825 
L 510.531129 268.665 
L 511.285624 317.945 
L 511.662872 291.065 
L 512.04012 313.465 
L 512.794616 313.465 
L 513.171864 320.185 
L 513.549112 320.185 
L 513.92636 306.745 
L 514.303608 326.905 
L 514.680856 329.145 
L 515.058104 306.745 
L 515.435352 322.425 
L 515.8126 308.985 
L 516.189848 304.505 
L 516.567096 320.185 
L 516.944344 329.145 
L 517.321591 329.145 
L 517.698839 320.185 
L 518.076087 335.865 
L 518.453335 326.905 
L 518.830583 322.425 
L 519.207831 340.345 
L 519.585079 322.425 
L 519.962327 322.425 
L 520.339575 331.385 
L 520.716823 326.905 
L 521.094071 317.945 
L 521.471319 331.385 
L 522.225815 340.345 
L 522.603063 331.385 
L 522.980311 331.385 
L 523.357558 326.905 
L 523.734806 331.385 
L 524.112054 338.105 
L 524.489302 324.665 
L 524.86655 331.385 
L 525.243798 340.345 
L 526.375542 340.345 
L 526.75279 338.105 
L 527.130038 338.105 
L 527.507286 340.345 
L 527.884534 335.865 
L 528.261782 340.345 
L 528.63903 335.865 
L 529.016278 340.345 
L 529.393525 340.345 
L 529.770773 331.385 
L 530.148021 340.345 
L 530.525269 335.865 
L 530.902517 340.345 
L 531.279765 335.865 
L 531.657013 340.345 
L 532.034261 340.345 
L 532.411509 335.865 
L 532.788757 335.865 
L 533.166005 340.345 
L 533.543253 335.865 
L 533.920501 340.345 
L 534.297749 340.345 
L 534.674997 335.865 
L 535.052245 335.865 
L 535.429492 340.345 
L 538.824724 340.345 
L 539.201972 331.385 
L 539.57922 340.345 
L 541.088212 340.345 
L 541.46546 335.865 
L 541.842707 340.345 
L 545.615187 340.345 
L 545.992435 335.865 
L 546.369683 340.345 
L 550.896658 340.345 
L 551.273906 335.865 
L 551.651154 335.865 
L 552.028402 340.345 
L 552.40565 326.905 
L 552.782898 335.865 
L 553.160146 317.945 
L 553.537394 335.865 
L 554.291889 335.865 
L 554.669137 340.345 
L 555.046385 331.385 
L 555.423633 340.345 
L 555.800881 326.905 
L 556.178129 340.345 
L 556.555377 340.345 
L 556.932625 335.865 
L 557.309873 340.345 
L 557.687121 340.345 
L 558.064369 335.865 
L 558.441617 326.905 
L 558.818865 340.345 
L 559.196113 335.865 
L 559.573361 340.345 
L 560.327856 324.665 
L 560.705104 324.665 
L 561.4596 333.625 
L 561.836848 322.425 
L 562.214096 322.425 
L 562.591344 317.945 
L 562.968592 322.425 
L 563.34584 331.385 
L 563.723088 304.505 
L 564.100336 313.465 
L 564.477584 317.945 
L 564.854832 308.985 
L 565.23208 308.985 
L 565.609328 317.945 
L 565.986575 295.545 
L 566.363823 326.905 
L 567.118319 259.705 
L 567.495567 279.865 
L 567.872815 286.585 
L 568.250063 279.865 
L 568.627311 268.665 
L 569.004559 250.745 
L 569.381807 275.385 
L 569.759055 255.225 
L 570.136303 261.945 
L 570.513551 252.985 
L 570.890799 275.385 
L 571.268047 261.945 
L 571.645295 264.185 
L 572.022542 264.185 
L 572.39979 230.585 
L 572.777038 252.985 
L 573.154286 208.185 
L 573.531534 192.505 
L 574.28603 145.465 
L 574.663278 167.865 
L 575.040526 140.985 
L 575.417774 172.345 
L 575.795022 286.585 
L 576.17227 270.905 
L 576.549518 170.105 
L 577.304014 203.705 
L 577.681262 170.105 
L 578.058509 194.745 
L 578.435757 205.945 
L 578.813005 190.265 
L 579.190253 192.505 
L 579.567501 196.985 
L 579.944749 250.745 
L 580.321997 250.745 
L 580.699245 246.265 
L 581.076493 266.425 
L 581.453741 246.265 
L 581.830989 259.705 
L 582.208237 248.505 
L 582.585485 257.465 
L 582.962733 221.625 
L 583.339981 235.065 
L 583.717229 252.985 
L 584.094476 232.825 
L 584.471724 237.305 
L 584.848972 239.545 
L 585.22622 261.945 
L 585.603468 228.345 
L 585.980716 217.145 
L 586.357964 252.985 
L 586.735212 219.385 
L 587.11246 239.545 
L 587.489708 203.705 
L 587.866956 244.025 
L 588.244204 199.225 
L 588.621452 235.065 
L 588.9987 239.545 
L 589.375948 241.785 
L 589.753196 223.865 
L 590.507691 270.905 
L 590.884939 248.505 
L 591.639435 217.145 
L 592.016683 244.025 
L 592.393931 244.025 
L 592.771179 252.985 
L 593.148427 241.785 
L 593.525675 214.905 
L 593.902923 248.505 
L 594.280171 248.505 
L 594.657419 241.785 
L 595.034667 237.305 
L 595.411915 270.905 
L 595.789163 230.585 
L 596.166411 250.745 
L 596.543658 261.945 
L 596.920906 259.705 
L 597.298154 248.505 
L 597.675402 241.785 
L 598.05265 208.185 
L 598.429898 226.105 
L 598.807146 266.425 
L 599.184394 252.985 
L 599.561642 264.185 
L 599.93889 252.985 
L 600.316138 257.465 
L 601.070634 194.745 
L 601.447882 134.265 
L 601.82513 93.945 
L 602.202378 100.665 
L 602.579625 98.425 
L 602.956873 93.945 
L 603.334121 55.865 
L 603.711369 55.865 
L 604.088617 51.385 
L 604.465865 64.825 
L 604.843113 42.425 
L 605.220361 62.585 
L 605.597609 58.105 
L 605.974857 46.905 
L 606.352105 55.865 
L 606.729353 73.785 
L 607.106601 78.265 
L 607.483849 100.665 
L 607.861097 93.945 
L 608.238345 91.705 
L 608.615592 111.865 
L 608.99284 201.465 
L 609.747336 228.345 
L 610.124584 226.105 
L 610.501832 210.425 
L 610.87908 257.465 
L 611.256328 226.105 
L 611.633576 261.945 
L 612.010824 264.185 
L 612.388072 257.465 
L 612.76532 255.225 
L 613.142568 275.385 
L 613.519816 282.105 
L 613.897064 279.865 
L 614.274312 279.865 
L 615.406055 250.745 
L 615.783303 295.545 
L 616.160551 300.025 
L 616.537799 288.825 
L 616.915047 264.185 
L 617.292295 288.825 
L 617.669543 297.785 
L 618.046791 284.345 
L 618.424039 308.985 
L 618.801287 304.505 
L 619.178535 295.545 
L 619.555783 304.505 
L 620.310279 288.825 
L 620.687526 311.225 
L 621.064774 320.185 
L 621.442022 311.225 
L 621.81927 315.705 
L 622.196518 313.465 
L 622.573766 324.665 
L 622.951014 311.225 
L 623.328262 315.705 
L 623.70551 322.425 
L 624.082758 326.905 
L 624.460006 326.905 
L 624.837254 315.705 
L 625.214502 320.185 
L 625.59175 322.425 
L 625.968998 326.905 
L 626.723493 326.905 
L 627.100741 322.425 
L 627.477989 326.905 
L 627.855237 326.905 
L 628.232485 340.345 
L 628.609733 322.425 
L 628.986981 322.425 
L 629.364229 329.145 
L 629.741477 326.905 
L 630.118725 329.145 
L 630.495973 326.905 
L 630.873221 331.385 
L 631.250469 331.385 
L 631.627717 326.905 
L 632.004965 340.345 
L 632.75946 331.385 
L 633.136708 340.345 
L 633.513956 331.385 
L 633.891204 335.865 
L 634.268452 331.385 
L 634.6457 340.345 
L 635.022948 335.865 
L 635.400196 340.345 
L 635.777444 335.865 
L 636.154692 340.345 
L 637.663684 340.345 
L 638.040932 335.865 
L 638.41818 340.345 
L 638.795428 335.865 
L 639.172675 340.345 
L 639.549923 335.865 
L 639.927171 340.345 
L 644.076899 340.345 
L 644.454147 335.865 
L 644.831395 340.345 
L 651.244609 340.345 
L 651.621857 335.865 
L 651.999105 340.345 
L 658.41232 340.345 
L 658.789568 335.865 
L 659.166816 340.345 
L 660.675808 340.345 
L 661.053056 326.905 
L 661.430304 340.345 
L 661.807552 322.425 
L 662.1848 335.865 
L 662.562048 335.865 
L 662.939296 331.385 
L 663.316543 331.385 
L 663.693791 335.865 
L 664.071039 335.865 
L 664.448287 340.345 
L 664.825535 340.345 
L 665.202783 335.865 
L 666.334527 335.865 
L 666.711775 329.145 
L 667.089023 329.145 
L 667.466271 340.345 
L 667.843519 340.345 
L 668.220767 335.865 
L 668.598015 326.905 
L 668.975263 335.865 
L 669.35251 326.905 
L 669.729758 331.385 
L 670.107006 331.385 
L 670.484254 324.665 
L 670.861502 311.225 
L 671.23875 322.425 
L 671.993246 304.505 
L 672.370494 313.465 
L 672.747742 313.465 
L 673.12499 306.745 
L 673.502238 302.265 
L 673.879486 333.625 
L 674.256734 306.745 
L 674.633982 306.745 
L 675.01123 297.785 
L 675.388477 279.865 
L 675.765725 302.265 
L 676.142973 277.625 
L 676.520221 266.425 
L 676.897469 288.825 
L 677.274717 273.145 
L 677.651965 273.145 
L 678.029213 250.745 
L 678.406461 257.465 
L 678.783709 270.905 
L 679.538205 261.945 
L 680.292701 244.025 
L 680.669949 255.225 
L 681.047197 237.305 
L 681.424444 246.265 
L 681.801692 163.385 
L 682.17894 170.105 
L 682.556188 127.545 
L 682.933436 149.945 
L 683.310684 125.305 
L 683.687932 109.625 
L 684.06518 174.585 
L 684.442428 183.545 
L 684.819676 114.105 
L 685.196924 201.465 
L 685.574172 192.505 
L 685.95142 156.665 
L 686.328668 188.025 
L 686.705916 208.185 
L 687.083164 183.545 
L 687.460412 217.145 
L 687.837659 232.825 
L 688.214907 217.145 
L 688.592155 230.585 
L 688.969403 239.545 
L 689.723899 239.545 
L 690.101147 230.585 
L 690.478395 257.465 
L 690.855643 273.145 
L 691.232891 232.825 
L 691.610139 230.585 
L 691.987387 252.985 
L 692.364635 223.865 
L 692.741883 244.025 
L 693.119131 228.345 
L 693.496379 226.105 
L 693.873626 217.145 
L 694.250874 217.145 
L 694.628122 277.625 
L 695.00537 244.025 
L 695.382618 255.225 
L 695.759866 226.105 
L 696.137114 264.185 
L 696.514362 237.305 
L 696.89161 255.225 
L 697.646106 239.545 
L 698.023354 268.665 
L 698.400602 252.985 
L 698.77785 273.145 
L 699.155098 268.665 
L 699.532346 266.425 
L 699.909593 266.425 
L 700.286841 226.105 
L 700.664089 241.785 
L 701.041337 268.665 
L 701.418585 228.345 
L 702.173081 246.265 
L 702.927577 212.665 
L 703.304825 250.745 
L 703.682073 264.185 
L 704.059321 252.985 
L 704.436569 259.705 
L 704.813817 237.305 
L 705.191065 257.465 
L 705.568313 228.345 
L 705.94556 270.905 
L 706.322808 255.225 
L 706.700056 261.945 
L 707.077304 259.705 
L 707.8318 246.265 
L 708.209048 277.625 
L 708.586296 241.785 
L 708.963544 248.505 
L 709.340792 252.985 
L 709.71804 138.745 
L 710.095288 60.345 
L 710.472536 76.025 
L 710.849784 129.785 
L 711.227032 89.465 
L 711.60428 84.985 
L 711.981527 37.945 
L 712.358775 55.865 
L 712.736023 58.105 
L 713.113271 64.825 
L 713.490519 51.385 
L 713.867767 98.425 
L 714.245015 42.425 
L 714.622263 49.145 
L 714.999511 73.785 
L 715.376759 73.785 
L 715.754007 62.585 
L 716.131255 71.545 
L 716.508503 87.225 
L 716.885751 152.185 
L 717.262999 145.465 
L 717.640247 179.065 
L 718.017494 188.025 
L 718.394742 223.865 
L 718.77199 217.145 
L 719.149238 232.825 
L 719.526486 239.545 
L 719.903734 266.425 
L 720.280982 246.265 
L 720.65823 255.225 
L 721.035478 270.905 
L 721.412726 268.665 
L 721.789974 246.265 
L 722.167222 257.465 
L 722.54447 275.385 
L 722.921718 282.105 
L 723.298966 295.545 
L 723.676214 288.825 
L 724.053461 295.545 
L 724.430709 264.185 
L 724.807957 284.345 
L 725.562453 284.345 
L 725.939701 311.225 
L 726.316949 284.345 
L 726.694197 286.585 
L 727.071445 302.265 
L 727.448693 293.305 
L 727.825941 304.505 
L 728.203189 293.305 
L 728.580437 306.745 
L 728.957685 306.745 
L 729.334933 326.905 
L 729.712181 300.025 
L 730.089428 313.465 
L 730.466676 322.425 
L 730.843924 306.745 
L 731.221172 300.025 
L 731.975668 320.185 
L 732.352916 331.385 
L 732.730164 320.185 
L 733.107412 320.185 
L 733.48466 335.865 
L 733.861908 322.425 
L 734.239156 317.945 
L 734.616404 326.905 
L 734.993652 331.385 
L 735.3709 326.905 
L 735.748148 331.385 
L 736.125396 317.945 
L 736.502643 340.345 
L 736.879891 313.465 
L 737.257139 326.905 
L 738.011635 335.865 
L 738.388883 326.905 
L 738.766131 326.905 
L 739.520627 335.865 
L 739.897875 331.385 
L 740.275123 340.345 
L 740.652371 335.865 
L 741.029619 335.865 
L 741.406867 331.385 
L 742.161363 340.345 
L 742.53861 329.145 
L 742.915858 338.105 
L 743.293106 335.865 
L 743.670354 335.865 
L 744.047602 329.145 
L 744.42485 333.625 
L 744.802098 340.345 
L 745.556594 331.385 
L 745.933842 340.345 
L 746.688338 340.345 
L 747.442834 331.385 
L 748.19733 340.345 
L 748.951825 340.345 
L 749.329073 335.865 
L 749.706321 340.345 
L 750.460817 340.345 
L 750.838065 335.865 
L 751.215313 340.345 
L 754.610544 340.345 
L 754.987792 335.865 
L 755.36504 340.345 
L 762.532751 340.345 
L 762.909999 335.865 
L 763.287247 340.345 
L 768.945966 340.345 
L 769.323214 335.865 
L 769.700462 326.905 
L 770.07771 340.345 
L 770.832206 340.345 
L 771.209454 326.905 
L 771.586702 331.385 
L 771.96395 324.665 
L 772.341198 329.145 
L 772.718445 340.345 
L 773.095693 340.345 
L 773.472941 326.905 
L 773.850189 340.345 
L 774.604685 340.345 
L 774.981933 331.385 
L 775.359181 340.345 
L 776.113677 340.345 
L 776.490925 331.385 
L 776.868173 340.345 
L 777.245421 340.345 
L 777.622669 315.705 
L 777.999917 324.665 
L 778.377165 322.425 
L 778.754412 331.385 
L 779.508908 308.985 
L 779.886156 315.705 
L 780.263404 326.905 
L 780.640652 322.425 
L 781.0179 302.265 
L 781.395148 313.465 
L 781.772396 306.745 
L 782.149644 295.545 
L 782.526892 315.705 
L 782.90414 293.305 
L 783.281388 297.785 
L 783.658636 304.505 
L 784.035884 279.865 
L 784.413132 282.105 
L 784.79038 273.145 
L 785.167627 284.345 
L 785.544875 268.665 
L 785.922123 266.425 
L 786.299371 291.065 
L 786.676619 279.865 
L 787.053867 264.185 
L 787.431115 273.145 
L 787.808363 259.705 
L 788.185611 297.785 
L 788.562859 266.425 
L 788.940107 252.985 
L 789.317355 257.465 
L 789.694603 255.225 
L 790.071851 221.625 
L 790.449099 210.425 
L 791.203594 118.585 
L 791.580842 125.305 
L 791.95809 111.865 
L 792.335338 147.705 
L 792.712586 136.505 
L 793.467082 172.345 
L 793.84433 152.185 
L 794.221578 163.385 
L 794.598826 183.545 
L 794.976074 170.105 
L 795.353322 205.945 
L 795.73057 201.465 
L 796.107818 203.705 
L 796.485066 210.425 
L 796.862314 208.185 
L 797.239561 217.145 
L 797.616809 250.745 
L 797.994057 232.825 
L 798.371305 250.745 
L 798.748553 217.145 
L 799.125801 241.785 
L 799.503049 246.265 
L 799.880297 230.585 
L 800.257545 201.465 
L 800.634793 273.145 
L 801.012041 255.225 
L 801.389289 223.865 
L 802.143785 266.425 
L 802.521033 246.265 
L 802.898281 302.265 
L 803.275528 239.545 
L 803.652776 275.385 
L 804.030024 228.345 
L 804.407272 232.825 
L 804.78452 255.225 
L 805.161768 241.785 
L 805.539016 239.545 
L 805.916264 257.465 
L 806.293512 228.345 
L 806.67076 219.385 
L 807.048008 246.265 
L 807.425256 257.465 
L 807.802504 241.785 
L 808.179752 241.785 
L 808.557 277.625 
L 808.934248 228.345 
L 809.311495 255.225 
L 809.688743 221.625 
L 810.065991 241.785 
L 810.443239 252.985 
L 810.820487 241.785 
L 811.197735 239.545 
L 811.574983 264.185 
L 811.952231 228.345 
L 812.706727 288.825 
L 813.083975 246.265 
L 813.461223 237.305 
L 813.838471 279.865 
L 814.215719 284.345 
L 814.970215 246.265 
L 815.347462 239.545 
L 815.72471 244.025 
L 816.101958 259.705 
L 816.479206 239.545 
L 816.856454 248.505 
L 817.233702 266.425 
L 817.61095 255.225 
L 817.988198 212.665 
L 818.365446 111.865 
L 818.742694 84.985 
L 819.119942 109.625 
L 819.49719 78.265 
L 819.874438 60.345 
L 820.251686 55.865 
L 820.628934 53.625 
L 821.006182 49.145 
L 821.383429 76.025 
L 821.760677 51.385 
L 822.137925 37.945 
L 822.515173 114.105 
L 822.892421 102.905 
L 823.269669 71.545 
L 823.646917 100.665 
L 824.401413 40.185 
L 824.778661 116.345 
L 825.155909 127.545 
L 825.533157 109.625 
L 825.910405 127.545 
L 826.287653 208.185 
L 826.664901 250.745 
L 827.042149 230.585 
L 827.419396 232.825 
L 827.796644 239.545 
L 828.173892 241.785 
L 828.55114 239.545 
L 828.928388 214.905 
L 829.305636 282.105 
L 829.682884 282.105 
L 830.060132 268.665 
L 830.43738 250.745 
L 831.191876 302.265 
L 831.569124 284.345 
L 831.946372 302.265 
L 832.32362 279.865 
L 833.078116 313.465 
L 833.832611 275.385 
L 834.587107 317.945 
L 834.964355 297.785 
L 835.341603 315.705 
L 835.718851 317.945 
L 836.096099 317.945 
L 836.473347 291.065 
L 837.227843 329.145 
L 837.605091 326.905 
L 837.982339 322.425 
L 838.359587 326.905 
L 838.736835 335.865 
L 839.114083 326.905 
L 839.491331 313.465 
L 839.868578 335.865 
L 840.245826 331.385 
L 840.623074 322.425 
L 841.000322 326.905 
L 841.37757 326.905 
L 841.754818 322.425 
L 842.132066 326.905 
L 842.509314 324.665 
L 842.886562 326.905 
L 843.26381 331.385 
L 843.641058 331.385 
L 844.395554 340.345 
L 844.772802 335.865 
L 845.15005 340.345 
L 845.15005 340.345 
" clip-path="url(#pd250f32587)" style="fill: none; stroke: #2ca02c; stroke-opacity: 0.7; stroke-width: 1.5; stroke-linecap: round"/>
   </g>
   <g id="patch_3">
    <path d="M 46.95 355.465 
L 46.95 22.825 
" style="fill: none; stroke: #cccccc; stroke-width: 1.25; stroke-linejoin: miter; stroke-linecap: square"/>
   </g>
   <g id="patch_4">
    <path d="M 883.95 355.465 
L 883.95 22.825 
" style="fill: none; stroke: #cccccc; stroke-width: 1.25; stroke-linejoin: miter; stroke-linecap: square"/>
   </g>
   <g id="patch_5">
    <path d="M 46.95 355.465 
L 883.95 355.465 
" style="fill: none; stroke: #cccccc; stroke-width: 1.25; stroke-linejoin: miter; stroke-linecap: square"/>
   </g>
   <g id="patch_6">
    <path d="M 46.95 22.825 
L 883.95 22.825 
" style="fill: none; stroke: #cccccc; stroke-width: 1.25; stroke-linejoin: miter; stroke-linecap: square"/>
   </g>
   <g id="text_18">
    <!-- Directional Request Distribution -->
    <g style="fill: #262626" transform="translate(353.45 16.825) scale(0.14 -0.14)">
     <defs>
      <path id="SimHei-44" d="M 2925 2250 
Q 2925 1100 2437 612 
Q 1950 125 1125 125 
L 275 125 
L 275 4400 
L 1125 4400 
Q 2050 4400 2487 3900 
Q 2925 3400 2925 2250 
z
M 2325 2250 
Q 2325 3175 2025 3550 
Q 1725 3925 1125 3925 
L 850 3925 
L 850 600 
L 1125 600 
Q 1725 600 2025 962 
Q 2325 1325 2325 2250 
z
" transform="scale(0.015625)"/>
      <path id="SimHei-72" d="M 2500 2425 
Q 2025 2500 1700 2287 
Q 1375 2075 1150 1550 
L 1150 125 
L 650 125 
L 650 2925 
L 1150 2925 
L 1150 2200 
Q 1375 2600 1712 2787 
Q 2050 2975 2500 2975 
L 2500 2425 
z
" transform="scale(0.015625)"/>
      <path id="SimHei-65" d="M 2850 1075 
Q 2800 625 2450 350 
Q 2100 75 1625 75 
Q 1025 75 637 462 
Q 250 850 250 1525 
Q 250 2200 637 2587 
Q 1025 2975 1625 2975 
Q 2150 2975 2487 2637 
Q 2825 2300 2825 1525 
L 800 1525 
Q 800 975 1037 750 
Q 1275 525 1625 525 
Q 1900 525 2075 662 
Q 2250 800 2300 1075 
L 2850 1075 
z
M 2250 1925 
Q 2200 2275 2025 2412 
Q 1850 2550 1575 2550 
Q 1325 2550 1125 2412 
Q 925 2275 825 1925 
L 2250 1925 
z
" transform="scale(0.015625)"/>
      <path id="SimHei-63" d="M 2850 1250 
Q 2850 725 2487 400 
Q 2125 75 1575 75 
Q 1025 75 625 462 
Q 225 850 225 1525 
Q 225 2200 625 2587 
Q 1025 2975 1575 2975 
Q 2125 2975 2450 2687 
Q 2775 2400 2775 2000 
L 2225 2000 
Q 2200 2300 2012 2412 
Q 1825 2525 1575 2525 
Q 1275 2525 1025 2287 
Q 775 2050 775 1525 
Q 775 1000 1025 762 
Q 1275 525 1575 525 
Q 1900 525 2100 700 
Q 2300 875 2300 1250 
L 2850 1250 
z
" transform="scale(0.015625)"/>
      <path id="SimHei-61" d="M 2875 125 
L 2275 125 
Q 2225 175 2200 262 
Q 2175 350 2175 475 
Q 2000 275 1750 175 
Q 1500 75 1225 75 
Q 825 75 550 275 
Q 275 475 275 850 
Q 275 1225 525 1450 
Q 775 1675 1300 1750 
Q 1650 1800 1912 1875 
Q 2175 1950 2175 2075 
Q 2175 2225 2062 2375 
Q 1950 2525 1575 2525 
Q 1275 2525 1137 2412 
Q 1000 2300 950 2100 
L 400 2100 
Q 450 2500 762 2737 
Q 1075 2975 1575 2975 
Q 2125 2975 2400 2725 
Q 2675 2475 2675 2025 
L 2675 650 
Q 2675 500 2725 375 
Q 2775 250 2875 125 
z
M 2175 1050 
L 2175 1550 
Q 2025 1500 1887 1462 
Q 1750 1425 1425 1375 
Q 1050 1325 937 1200 
Q 825 1075 825 900 
Q 825 750 937 637 
Q 1050 525 1275 525 
Q 1500 525 1762 650 
Q 2025 775 2175 1050 
z
" transform="scale(0.015625)"/>
      <path id="SimHei-6c" d="M 1825 125 
L 1325 125 
L 1325 4400 
L 1825 4400 
L 1825 125 
z
" transform="scale(0.015625)"/>
      <path id="SimHei-52" d="M 3000 125 
L 2400 125 
L 1500 1975 
L 850 1975 
L 850 125 
L 275 125 
L 275 4400 
L 1525 4400 
Q 2125 4400 2500 4112 
Q 2875 3825 2875 3175 
Q 2875 2675 2625 2400 
Q 2375 2125 2050 2050 
L 3000 125 
z
M 2300 3175 
Q 2300 3525 2087 3725 
Q 1875 3925 1400 3925 
L 850 3925 
L 850 2450 
L 1550 2450 
Q 1850 2450 2075 2612 
Q 2300 2775 2300 3175 
z
" transform="scale(0.015625)"/>
      <path id="SimHei-71" d="M 2750 -800 
L 2250 -800 
L 2250 500 
Q 2100 275 1900 162 
Q 1700 50 1425 50 
Q 925 50 575 425 
Q 225 800 225 1525 
Q 225 2250 575 2612 
Q 925 2975 1425 2975 
Q 1700 2975 1900 2875 
Q 2100 2775 2250 2550 
L 2250 2925 
L 2750 2925 
L 2750 -800 
z
M 2250 1525 
Q 2250 2000 2037 2262 
Q 1825 2525 1525 2525 
Q 1150 2525 962 2262 
Q 775 2000 775 1525 
Q 775 1050 962 775 
Q 1150 500 1525 500 
Q 1825 500 2037 775 
Q 2250 1050 2250 1525 
z
" transform="scale(0.015625)"/>
      <path id="SimHei-73" d="M 2750 900 
Q 2750 500 2437 287 
Q 2125 75 1650 75 
Q 1050 75 725 312 
Q 400 550 400 1000 
L 900 1000 
Q 900 700 1112 600 
Q 1325 500 1625 500 
Q 1925 500 2075 612 
Q 2225 725 2225 900 
Q 2225 1025 2100 1150 
Q 1975 1275 1475 1350 
Q 900 1425 687 1637 
Q 475 1850 475 2200 
Q 475 2500 762 2737 
Q 1050 2975 1600 2975 
Q 2100 2975 2387 2750 
Q 2675 2525 2675 2150 
L 2175 2150 
Q 2175 2375 2012 2462 
Q 1850 2550 1600 2550 
Q 1275 2550 1137 2437 
Q 1000 2325 1000 2175 
Q 1000 2000 1125 1900 
Q 1250 1800 1650 1750 
Q 2300 1650 2525 1437 
Q 2750 1225 2750 900 
z
" transform="scale(0.015625)"/>
      <path id="SimHei-62" d="M 2825 1525 
Q 2825 800 2475 437 
Q 2125 75 1625 75 
Q 1350 75 1150 175 
Q 950 275 800 500 
L 800 125 
L 300 125 
L 300 4400 
L 800 4400 
L 800 2550 
Q 950 2775 1150 2887 
Q 1350 3000 1625 3000 
Q 2125 3000 2475 2625 
Q 2825 2250 2825 1525 
z
M 2275 1525 
Q 2275 2000 2087 2275 
Q 1900 2550 1525 2550 
Q 1225 2550 1012 2275 
Q 800 2000 800 1525 
Q 800 1050 1012 787 
Q 1225 525 1525 525 
Q 1900 525 2087 787 
Q 2275 1050 2275 1525 
z
" transform="scale(0.015625)"/>
     </defs>
     <use xlink:href="#SimHei-44"/>
     <use xlink:href="#SimHei-69" transform="translate(50 0)"/>
     <use xlink:href="#SimHei-72" transform="translate(100 0)"/>
     <use xlink:href="#SimHei-65" transform="translate(150 0)"/>
     <use xlink:href="#SimHei-63" transform="translate(200 0)"/>
     <use xlink:href="#SimHei-74" transform="translate(250 0)"/>
     <use xlink:href="#SimHei-69" transform="translate(300 0)"/>
     <use xlink:href="#SimHei-6f" transform="translate(350 0)"/>
     <use xlink:href="#SimHei-6e" transform="translate(400 0)"/>
     <use xlink:href="#SimHei-61" transform="translate(450 0)"/>
     <use xlink:href="#SimHei-6c" transform="translate(500 0)"/>
     <use xlink:href="#SimHei-20" transform="translate(550 0)"/>
     <use xlink:href="#SimHei-52" transform="translate(600 0)"/>
     <use xlink:href="#SimHei-65" transform="translate(650 0)"/>
     <use xlink:href="#SimHei-71" transform="translate(700 0)"/>
     <use xlink:href="#SimHei-75" transform="translate(750 0)"/>
     <use xlink:href="#SimHei-65" transform="translate(800 0)"/>
     <use xlink:href="#SimHei-73" transform="translate(850 0)"/>
     <use xlink:href="#SimHei-74" transform="translate(900 0)"/>
     <use xlink:href="#SimHei-20" transform="translate(950 0)"/>
     <use xlink:href="#SimHei-44" transform="translate(1000 0)"/>
     <use xlink:href="#SimHei-69" transform="translate(1050 0)"/>
     <use xlink:href="#SimHei-73" transform="translate(1100 0)"/>
     <use xlink:href="#SimHei-74" transform="translate(1150 0)"/>
     <use xlink:href="#SimHei-72" transform="translate(1200 0)"/>
     <use xlink:href="#SimHei-69" transform="translate(1250 0)"/>
     <use xlink:href="#SimHei-62" transform="translate(1300 0)"/>
     <use xlink:href="#SimHei-75" transform="translate(1350 0)"/>
     <use xlink:href="#SimHei-74" transform="translate(1400 0)"/>
     <use xlink:href="#SimHei-69" transform="translate(1450 0)"/>
     <use xlink:href="#SimHei-6f" transform="translate(1500 0)"/>
     <use xlink:href="#SimHei-6e" transform="translate(1550 0)"/>
    </g>
   </g>
   <g id="legend_1">
    <g id="patch_7">
     <path d="M 54.65 60.775 
L 183.35 60.775 
Q 185.55 60.775 185.55 58.575 
L 185.55 30.525 
Q 185.55 28.325 183.35 28.325 
L 54.65 28.325 
Q 52.45 28.325 52.45 30.525 
L 52.45 58.575 
Q 52.45 60.775 54.65 60.775 
z
" style="fill: #ffffff; opacity: 0.8; stroke: #cccccc; stroke-linejoin: miter"/>
    </g>
    <g id="line2d_19">
     <path d="M 56.85 36.575 
L 67.85 36.575 
L 78.85 36.575 
" style="fill: none; stroke: #d62728; stroke-opacity: 0.7; stroke-width: 1.5; stroke-linecap: round"/>
    </g>
    <g id="text_19">
     <!-- Upward Requests -->
     <g style="fill: #262626" transform="translate(87.65 40.425) scale(0.11 -0.11)">
      <defs>
       <path id="SimHei-55" d="M 2875 1375 
Q 2875 775 2562 425 
Q 2250 75 1575 75 
Q 900 75 587 425 
Q 275 775 275 1375 
L 275 4400 
L 850 4400 
L 850 1375 
Q 850 950 1050 750 
Q 1250 550 1575 550 
Q 1900 550 2100 750 
Q 2300 950 2300 1375 
L 2300 4400 
L 2875 4400 
L 2875 1375 
z
" transform="scale(0.015625)"/>
       <path id="SimHei-70" d="M 2825 1525 
Q 2825 800 2475 425 
Q 2125 50 1625 50 
Q 1350 50 1150 162 
Q 950 275 800 500 
L 800 -800 
L 300 -800 
L 300 2925 
L 800 2925 
L 800 2550 
Q 950 2775 1150 2875 
Q 1350 2975 1625 2975 
Q 2125 2975 2475 2612 
Q 2825 2250 2825 1525 
z
M 2275 1525 
Q 2275 2000 2087 2262 
Q 1900 2525 1525 2525 
Q 1225 2525 1012 2262 
Q 800 2000 800 1525 
Q 800 1050 1012 775 
Q 1225 500 1525 500 
Q 1900 500 2087 775 
Q 2275 1050 2275 1525 
z
" transform="scale(0.015625)"/>
       <path id="SimHei-77" d="M 3075 2925 
L 2450 75 
L 1975 75 
L 1575 2250 
L 1525 2250 
L 1125 75 
L 650 75 
L 25 2925 
L 550 2925 
L 875 1050 
L 925 1050 
L 1275 2925 
L 1825 2925 
L 2175 1050 
L 2225 1050 
L 2550 2925 
L 3075 2925 
z
" transform="scale(0.015625)"/>
       <path id="SimHei-64" d="M 2750 125 
L 2250 125 
L 2250 500 
Q 2100 275 1900 175 
Q 1700 75 1425 75 
Q 925 75 575 437 
Q 225 800 225 1525 
Q 225 2250 575 2625 
Q 925 3000 1425 3000 
Q 1700 3000 1900 2887 
Q 2100 2775 2250 2550 
L 2250 4400 
L 2750 4400 
L 2750 125 
z
M 2250 1525 
Q 2250 2000 2037 2275 
Q 1825 2550 1525 2550 
Q 1150 2550 962 2275 
Q 775 2000 775 1525 
Q 775 1050 962 787 
Q 1150 525 1525 525 
Q 1825 525 2037 787 
Q 2250 1050 2250 1525 
z
" transform="scale(0.015625)"/>
      </defs>
      <use xlink:href="#SimHei-55"/>
      <use xlink:href="#SimHei-70" transform="translate(50 0)"/>
      <use xlink:href="#SimHei-77" transform="translate(100 0)"/>
      <use xlink:href="#SimHei-61" transform="translate(150 0)"/>
      <use xlink:href="#SimHei-72" transform="translate(200 0)"/>
      <use xlink:href="#SimHei-64" transform="translate(250 0)"/>
      <use xlink:href="#SimHei-20" transform="translate(300 0)"/>
      <use xlink:href="#SimHei-52" transform="translate(350 0)"/>
      <use xlink:href="#SimHei-65" transform="translate(400 0)"/>
      <use xlink:href="#SimHei-71" transform="translate(450 0)"/>
      <use xlink:href="#SimHei-75" transform="translate(500 0)"/>
      <use xlink:href="#SimHei-65" transform="translate(550 0)"/>
      <use xlink:href="#SimHei-73" transform="translate(600 0)"/>
      <use xlink:href="#SimHei-74" transform="translate(650 0)"/>
      <use xlink:href="#SimHei-73" transform="translate(700 0)"/>
     </g>
    </g>
    <g id="line2d_20">
     <path d="M 56.85 51.15 
L 67.85 51.15 
L 78.85 51.15 
" style="fill: none; stroke: #2ca02c; stroke-opacity: 0.7; stroke-width: 1.5; stroke-linecap: round"/>
    </g>
    <g id="text_20">
     <!-- Downward Requests -->
     <g style="fill: #262626" transform="translate(87.65 55) scale(0.11 -0.11)">
      <use xlink:href="#SimHei-44"/>
      <use xlink:href="#SimHei-6f" transform="translate(50 0)"/>
      <use xlink:href="#SimHei-77" transform="translate(100 0)"/>
      <use xlink:href="#SimHei-6e" transform="translate(150 0)"/>
      <use xlink:href="#SimHei-77" transform="translate(200 0)"/>
      <use xlink:href="#SimHei-61" transform="translate(250 0)"/>
      <use xlink:href="#SimHei-72" transform="translate(300 0)"/>
      <use xlink:href="#SimHei-64" transform="translate(350 0)"/>
      <use xlink:href="#SimHei-20" transform="translate(400 0)"/>
      <use xlink:href="#SimHei-52" transform="translate(450 0)"/>
      <use xlink:href="#SimHei-65" transform="translate(500 0)"/>
      <use xlink:href="#SimHei-71" transform="translate(550 0)"/>
      <use xlink:href="#SimHei-75" transform="translate(600 0)"/>
      <use xlink:href="#SimHei-65" transform="translate(650 0)"/>
      <use xlink:href="#SimHei-73" transform="translate(700 0)"/>
      <use xlink:href="#SimHei-74" transform="translate(750 0)"/>
      <use xlink:href="#SimHei-73" transform="translate(800 0)"/>
     </g>
    </g>
   </g>
  </g>
 </g>
 <defs>
  <clipPath id="pd250f32587">
   <rect x="46.95" y="22.825" width="837" height="332.64"/>
  </clipPath>
 </defs>
</svg>
