<?xml version="1.0" encoding="utf-8" standalone="no"?>
<!DOCTYPE svg PUBLIC "-//W3C//DTD SVG 1.1//EN"
  "http://www.w3.org/Graphics/SVG/1.1/DTD/svg11.dtd">
<svg xmlns:xlink="http://www.w3.org/1999/xlink" width="891.15pt" height="382.415pt" viewBox="0 0 891.15 382.415" xmlns="http://www.w3.org/2000/svg" version="1.1">
 <metadata>
  <rdf:RDF xmlns:dc="http://purl.org/dc/elements/1.1/" xmlns:cc="http://creativecommons.org/ns#" xmlns:rdf="http://www.w3.org/1999/02/22-rdf-syntax-ns#">
   <cc:Work>
    <dc:type rdf:resource="http://purl.org/dc/dcmitype/StillImage"/>
    <dc:date>2026-01-21T22:00:07.990967</dc:date>
    <dc:format>image/svg+xml</dc:format>
    <dc:creator>
     <cc:Agent>
      <dc:title>Matplotlib v3.10.6, https://matplotlib.org/</dc:title>
     </cc:Agent>
    </dc:creator>
   </cc:Work>
  </rdf:RDF>
 </metadata>
 <defs>
  <style type="text/css">*{stroke-linejoin: round; stroke-linecap: butt}</style>
 </defs>
 <g id="figure_1">
  <g id="patch_1">
   <path d="M 0 382.415 
L 891.15 382.415 
L 891.15 0 
L 0 0 
z
" style="fill: #ffffff"/>
  </g>
  <g id="axes_1">
   <g id="patch_2">
    <path d="M 46.95 356.7775 
L 883.95 356.7775 
L 883.95 24.1375 
L 46.95 24.1375 
z
" style="fill: #ffffff"/>
   </g>
   <g id="matplotlib.axis_1">
    <g id="xtick_1">
     <g id="line2d_1">
      <path d="M 84.995455 356.7775 
L 84.995455 24.1375 
" clip-path="url(#pd0ece0c82a)" style="fill: none; stroke: #cccccc; stroke-linecap: round"/>
     </g>
     <g id="text_1">
      <!-- 2025-11-01 -->
      <g style="fill: #262626" transform="translate(57.495455 373.84) scale(0.11 -0.11)">
       <defs>
        <path id="SimHei-32" d="M 300 250 
Q 325 625 650 925 
Q 975 1225 1475 1862 
Q 1975 2500 2125 2850 
Q 2275 3200 2237 3450 
Q 2200 3700 2000 3862 
Q 1800 4025 1537 4000 
Q 1275 3975 1037 3800 
Q 800 3625 675 3275 
L 200 3350 
Q 400 3925 712 4187 
Q 1025 4450 1450 4475 
Q 1700 4500 1900 4462 
Q 2100 4425 2312 4287 
Q 2525 4150 2662 3875 
Q 2800 3600 2762 3212 
Q 2725 2825 2375 2287 
Q 2025 1750 1025 600 
L 2825 600 
L 2825 150 
L 300 150 
L 300 250 
z
" transform="scale(0.015625)"/>
        <path id="SimHei-30" d="M 225 2537 
Q 250 3200 412 3587 
Q 575 3975 875 4225 
Q 1175 4475 1612 4475 
Q 2050 4475 2375 4112 
Q 2700 3750 2800 3200 
Q 2900 2650 2862 1937 
Q 2825 1225 2612 775 
Q 2400 325 1975 150 
Q 1550 -25 1125 187 
Q 700 400 525 750 
Q 350 1100 275 1487 
Q 200 1875 225 2537 
z
M 750 2687 
Q 675 2000 800 1462 
Q 925 925 1212 700 
Q 1500 475 1800 612 
Q 2100 750 2237 1162 
Q 2375 1575 2375 2062 
Q 2375 2550 2337 2950 
Q 2300 3350 2112 3675 
Q 1925 4000 1612 4012 
Q 1300 4025 1062 3700 
Q 825 3375 750 2687 
z
" transform="scale(0.015625)"/>
        <path id="SimHei-35" d="M 550 1325 
Q 725 650 1150 575 
Q 1575 500 1837 662 
Q 2100 825 2212 1087 
Q 2325 1350 2312 1675 
Q 2300 2000 2137 2225 
Q 1975 2450 1725 2525 
Q 1475 2600 1162 2525 
Q 850 2450 650 2175 
L 225 2225 
Q 275 2375 700 4375 
L 2675 4375 
L 2675 3925 
L 1075 3925 
Q 950 3250 825 2850 
Q 1200 3025 1525 3012 
Q 1850 3000 2150 2862 
Q 2450 2725 2587 2487 
Q 2725 2250 2787 2012 
Q 2850 1775 2837 1500 
Q 2825 1225 2725 937 
Q 2625 650 2425 462 
Q 2225 275 1937 162 
Q 1650 50 1275 75 
Q 900 100 562 350 
Q 225 600 100 1200 
L 550 1325 
z
" transform="scale(0.015625)"/>
        <path id="SimHei-2d" d="M 2975 2125 
L 125 2125 
L 125 2525 
L 2975 2525 
L 2975 2125 
z
" transform="scale(0.015625)"/>
        <path id="SimHei-31" d="M 1400 3600 
Q 1075 3275 575 2975 
L 575 3450 
Q 1200 3875 1600 4450 
L 1900 4450 
L 1900 150 
L 1400 150 
L 1400 3600 
z
" transform="scale(0.015625)"/>
       </defs>
       <use xlink:href="#SimHei-32"/>
       <use xlink:href="#SimHei-30" transform="translate(50 0)"/>
       <use xlink:href="#SimHei-32" transform="translate(100 0)"/>
       <use xlink:href="#SimHei-35" transform="translate(150 0)"/>
       <use xlink:href="#SimHei-2d" transform="translate(200 0)"/>
       <use xlink:href="#SimHei-31" transform="translate(250 0)"/>
       <use xlink:href="#SimHei-31" transform="translate(300 0)"/>
       <use xlink:href="#SimHei-2d" transform="translate(350 0)"/>
       <use xlink:href="#SimHei-30" transform="translate(400 0)"/>
       <use xlink:href="#SimHei-31" transform="translate(450 0)"/>
      </g>
     </g>
    </g>
    <g id="xtick_2">
     <g id="line2d_2">
      <path d="M 193.750699 356.7775 
L 193.750699 24.1375 
" clip-path="url(#pd0ece0c82a)" style="fill: none; stroke: #cccccc; stroke-linecap: round"/>
     </g>
     <g id="text_2">
      <!-- 2025-11-02 -->
      <g style="fill: #262626" transform="translate(166.250699 373.84) scale(0.11 -0.11)">
       <use xlink:href="#SimHei-32"/>
       <use xlink:href="#SimHei-30" transform="translate(50 0)"/>
       <use xlink:href="#SimHei-32" transform="translate(100 0)"/>
       <use xlink:href="#SimHei-35" transform="translate(150 0)"/>
       <use xlink:href="#SimHei-2d" transform="translate(200 0)"/>
       <use xlink:href="#SimHei-31" transform="translate(250 0)"/>
       <use xlink:href="#SimHei-31" transform="translate(300 0)"/>
       <use xlink:href="#SimHei-2d" transform="translate(350 0)"/>
       <use xlink:href="#SimHei-30" transform="translate(400 0)"/>
       <use xlink:href="#SimHei-32" transform="translate(450 0)"/>
      </g>
     </g>
    </g>
    <g id="xtick_3">
     <g id="line2d_3">
      <path d="M 302.505944 356.7775 
L 302.505944 24.1375 
" clip-path="url(#pd0ece0c82a)" style="fill: none; stroke: #cccccc; stroke-linecap: round"/>
     </g>
     <g id="text_3">
      <!-- 2025-11-03 -->
      <g style="fill: #262626" transform="translate(275.005944 373.84) scale(0.11 -0.11)">
       <defs>
        <path id="SimHei-33" d="M 250 1225 
L 700 1300 
Q 800 975 1025 762 
Q 1250 550 1587 562 
Q 1925 575 2125 837 
Q 2325 1100 2300 1437 
Q 2275 1775 2037 1962 
Q 1800 2150 1275 2225 
L 1275 2550 
Q 1800 2600 2037 2825 
Q 2275 3050 2250 3412 
Q 2225 3775 1925 3937 
Q 1625 4100 1287 3975 
Q 950 3850 750 3275 
L 300 3350 
Q 450 3800 712 4100 
Q 975 4400 1425 4450 
Q 1875 4500 2212 4337 
Q 2550 4175 2687 3837 
Q 2825 3500 2725 3100 
Q 2625 2700 2150 2400 
Q 2500 2250 2687 1950 
Q 2875 1650 2812 1162 
Q 2750 675 2375 375 
Q 2000 75 1525 87 
Q 1050 100 700 387 
Q 350 675 250 1225 
z
" transform="scale(0.015625)"/>
       </defs>
       <use xlink:href="#SimHei-32"/>
       <use xlink:href="#SimHei-30" transform="translate(50 0)"/>
       <use xlink:href="#SimHei-32" transform="translate(100 0)"/>
       <use xlink:href="#SimHei-35" transform="translate(150 0)"/>
       <use xlink:href="#SimHei-2d" transform="translate(200 0)"/>
       <use xlink:href="#SimHei-31" transform="translate(250 0)"/>
       <use xlink:href="#SimHei-31" transform="translate(300 0)"/>
       <use xlink:href="#SimHei-2d" transform="translate(350 0)"/>
       <use xlink:href="#SimHei-30" transform="translate(400 0)"/>
       <use xlink:href="#SimHei-33" transform="translate(450 0)"/>
      </g>
     </g>
    </g>
    <g id="xtick_4">
     <g id="line2d_4">
      <path d="M 411.261189 356.7775 
L 411.261189 24.1375 
" clip-path="url(#pd0ece0c82a)" style="fill: none; stroke: #cccccc; stroke-linecap: round"/>
     </g>
     <g id="text_4">
      <!-- 2025-11-04 -->
      <g style="fill: #262626" transform="translate(383.761189 373.84) scale(0.11 -0.11)">
       <defs>
        <path id="SimHei-34" d="M 2000 1100 
L 75 1100 
L 75 1525 
L 2100 4450 
L 2475 4450 
L 2475 1525 
L 3075 1525 
L 3075 1100 
L 2475 1100 
L 2475 150 
L 2000 150 
L 2000 1100 
z
M 2000 1525 
L 2000 3500 
L 600 1525 
L 2000 1525 
z
" transform="scale(0.015625)"/>
       </defs>
       <use xlink:href="#SimHei-32"/>
       <use xlink:href="#SimHei-30" transform="translate(50 0)"/>
       <use xlink:href="#SimHei-32" transform="translate(100 0)"/>
       <use xlink:href="#SimHei-35" transform="translate(150 0)"/>
       <use xlink:href="#SimHei-2d" transform="translate(200 0)"/>
       <use xlink:href="#SimHei-31" transform="translate(250 0)"/>
       <use xlink:href="#SimHei-31" transform="translate(300 0)"/>
       <use xlink:href="#SimHei-2d" transform="translate(350 0)"/>
       <use xlink:href="#SimHei-30" transform="translate(400 0)"/>
       <use xlink:href="#SimHei-34" transform="translate(450 0)"/>
      </g>
     </g>
    </g>
    <g id="xtick_5">
     <g id="line2d_5">
      <path d="M 520.016434 356.7775 
L 520.016434 24.1375 
" clip-path="url(#pd0ece0c82a)" style="fill: none; stroke: #cccccc; stroke-linecap: round"/>
     </g>
     <g id="text_5">
      <!-- 2025-11-05 -->
      <g style="fill: #262626" transform="translate(492.516434 373.84) scale(0.11 -0.11)">
       <use xlink:href="#SimHei-32"/>
       <use xlink:href="#SimHei-30" transform="translate(50 0)"/>
       <use xlink:href="#SimHei-32" transform="translate(100 0)"/>
       <use xlink:href="#SimHei-35" transform="translate(150 0)"/>
       <use xlink:href="#SimHei-2d" transform="translate(200 0)"/>
       <use xlink:href="#SimHei-31" transform="translate(250 0)"/>
       <use xlink:href="#SimHei-31" transform="translate(300 0)"/>
       <use xlink:href="#SimHei-2d" transform="translate(350 0)"/>
       <use xlink:href="#SimHei-30" transform="translate(400 0)"/>
       <use xlink:href="#SimHei-35" transform="translate(450 0)"/>
      </g>
     </g>
    </g>
    <g id="xtick_6">
     <g id="line2d_6">
      <path d="M 628.771678 356.7775 
L 628.771678 24.1375 
" clip-path="url(#pd0ece0c82a)" style="fill: none; stroke: #cccccc; stroke-linecap: round"/>
     </g>
     <g id="text_6">
      <!-- 2025-11-06 -->
      <g style="fill: #262626" transform="translate(601.271678 373.84) scale(0.11 -0.11)">
       <defs>
        <path id="SimHei-36" d="M 250 1612 
Q 275 1975 387 2225 
Q 500 2475 725 2850 
L 1750 4450 
L 2325 4450 
L 1275 2800 
Q 1950 2975 2350 2750 
Q 2750 2525 2887 2237 
Q 3025 1950 3037 1612 
Q 3050 1275 2937 950 
Q 2825 625 2537 362 
Q 2250 100 1737 75 
Q 1225 50 862 262 
Q 500 475 362 862 
Q 225 1250 250 1612 
z
M 1025 787 
Q 1250 550 1625 525 
Q 2000 500 2250 775 
Q 2500 1050 2500 1575 
Q 2500 2100 2187 2300 
Q 1875 2500 1487 2450 
Q 1100 2400 925 2075 
Q 750 1750 775 1387 
Q 800 1025 1025 787 
z
" transform="scale(0.015625)"/>
       </defs>
       <use xlink:href="#SimHei-32"/>
       <use xlink:href="#SimHei-30" transform="translate(50 0)"/>
       <use xlink:href="#SimHei-32" transform="translate(100 0)"/>
       <use xlink:href="#SimHei-35" transform="translate(150 0)"/>
       <use xlink:href="#SimHei-2d" transform="translate(200 0)"/>
       <use xlink:href="#SimHei-31" transform="translate(250 0)"/>
       <use xlink:href="#SimHei-31" transform="translate(300 0)"/>
       <use xlink:href="#SimHei-2d" transform="translate(350 0)"/>
       <use xlink:href="#SimHei-30" transform="translate(400 0)"/>
       <use xlink:href="#SimHei-36" transform="translate(450 0)"/>
      </g>
     </g>
    </g>
    <g id="xtick_7">
     <g id="line2d_7">
      <path d="M 737.526923 356.7775 
L 737.526923 24.1375 
" clip-path="url(#pd0ece0c82a)" style="fill: none; stroke: #cccccc; stroke-linecap: round"/>
     </g>
     <g id="text_7">
      <!-- 2025-11-07 -->
      <g style="fill: #262626" transform="translate(710.026923 373.84) scale(0.11 -0.11)">
       <defs>
        <path id="SimHei-37" d="M 850 150 
Q 1300 2050 2425 3925 
L 275 3925 
L 275 4375 
L 2950 4375 
L 2950 3950 
Q 1775 2050 1400 150 
L 850 150 
z
" transform="scale(0.015625)"/>
       </defs>
       <use xlink:href="#SimHei-32"/>
       <use xlink:href="#SimHei-30" transform="translate(50 0)"/>
       <use xlink:href="#SimHei-32" transform="translate(100 0)"/>
       <use xlink:href="#SimHei-35" transform="translate(150 0)"/>
       <use xlink:href="#SimHei-2d" transform="translate(200 0)"/>
       <use xlink:href="#SimHei-31" transform="translate(250 0)"/>
       <use xlink:href="#SimHei-31" transform="translate(300 0)"/>
       <use xlink:href="#SimHei-2d" transform="translate(350 0)"/>
       <use xlink:href="#SimHei-30" transform="translate(400 0)"/>
       <use xlink:href="#SimHei-37" transform="translate(450 0)"/>
      </g>
     </g>
    </g>
    <g id="xtick_8">
     <g id="line2d_8">
      <path d="M 846.282168 356.7775 
L 846.282168 24.1375 
" clip-path="url(#pd0ece0c82a)" style="fill: none; stroke: #cccccc; stroke-linecap: round"/>
     </g>
     <g id="text_8">
      <!-- 2025-11-08 -->
      <g style="fill: #262626" transform="translate(818.782168 373.84) scale(0.11 -0.11)">
       <defs>
        <path id="SimHei-38" d="M 175 1375 
Q 175 1675 325 1962 
Q 475 2250 825 2425 
Q 525 2600 425 2812 
Q 325 3025 312 3300 
Q 300 3575 387 3775 
Q 475 3975 650 4150 
Q 825 4325 1037 4387 
Q 1250 4450 1500 4450 
Q 1750 4450 1950 4400 
Q 2150 4350 2375 4187 
Q 2600 4025 2700 3725 
Q 2800 3425 2687 3025 
Q 2575 2625 2100 2400 
Q 2525 2275 2700 2012 
Q 2875 1750 2875 1375 
Q 2875 1000 2762 775 
Q 2650 550 2512 400 
Q 2375 250 2137 162 
Q 1900 75 1537 75 
Q 1175 75 912 162 
Q 650 250 475 425 
Q 300 600 237 837 
Q 175 1075 175 1375 
z
M 687 1400 
Q 675 1100 787 875 
Q 900 650 1200 587 
Q 1500 525 1825 600 
Q 2150 675 2275 950 
Q 2400 1225 2362 1500 
Q 2325 1775 2050 1962 
Q 1775 2150 1450 2125 
Q 1125 2100 912 1900 
Q 700 1700 687 1400 
z
M 775 3350 
Q 775 3100 950 2875 
Q 1125 2650 1500 2650 
Q 1875 2650 2062 2875 
Q 2250 3100 2237 3412 
Q 2225 3725 2012 3875 
Q 1800 4025 1437 4000 
Q 1075 3975 925 3787 
Q 775 3600 775 3350 
z
" transform="scale(0.015625)"/>
       </defs>
       <use xlink:href="#SimHei-32"/>
       <use xlink:href="#SimHei-30" transform="translate(50 0)"/>
       <use xlink:href="#SimHei-32" transform="translate(100 0)"/>
       <use xlink:href="#SimHei-35" transform="translate(150 0)"/>
       <use xlink:href="#SimHei-2d" transform="translate(200 0)"/>
       <use xlink:href="#SimHei-31" transform="translate(250 0)"/>
       <use xlink:href="#SimHei-31" transform="translate(300 0)"/>
       <use xlink:href="#SimHei-2d" transform="translate(350 0)"/>
       <use xlink:href="#SimHei-30" transform="translate(400 0)"/>
       <use xlink:href="#SimHei-38" transform="translate(450 0)"/>
      </g>
     </g>
    </g>
   </g>
   <g id="matplotlib.axis_2">
    <g id="ytick_1">
     <g id="line2d_9">
      <path d="M 46.95 341.6575 
L 883.95 341.6575 
" clip-path="url(#pd0ece0c82a)" style="fill: none; stroke: #cccccc; stroke-linecap: round"/>
     </g>
     <g id="text_9">
      <!-- 0 -->
      <g style="fill: #262626" transform="translate(31.95 345.43875) scale(0.11 -0.11)">
       <use xlink:href="#SimHei-30"/>
      </g>
     </g>
    </g>
    <g id="ytick_2">
     <g id="line2d_10">
      <path d="M 46.95 303.619764 
L 883.95 303.619764 
" clip-path="url(#pd0ece0c82a)" style="fill: none; stroke: #cccccc; stroke-linecap: round"/>
     </g>
     <g id="text_10">
      <!-- 20 -->
      <g style="fill: #262626" transform="translate(26.45 307.401014) scale(0.11 -0.11)">
       <use xlink:href="#SimHei-32"/>
       <use xlink:href="#SimHei-30" transform="translate(50 0)"/>
      </g>
     </g>
    </g>
    <g id="ytick_3">
     <g id="line2d_11">
      <path d="M 46.95 265.582028 
L 883.95 265.582028 
" clip-path="url(#pd0ece0c82a)" style="fill: none; stroke: #cccccc; stroke-linecap: round"/>
     </g>
     <g id="text_11">
      <!-- 40 -->
      <g style="fill: #262626" transform="translate(26.45 269.363278) scale(0.11 -0.11)">
       <use xlink:href="#SimHei-34"/>
       <use xlink:href="#SimHei-30" transform="translate(50 0)"/>
      </g>
     </g>
    </g>
    <g id="ytick_4">
     <g id="line2d_12">
      <path d="M 46.95 227.544292 
L 883.95 227.544292 
" clip-path="url(#pd0ece0c82a)" style="fill: none; stroke: #cccccc; stroke-linecap: round"/>
     </g>
     <g id="text_12">
      <!-- 60 -->
      <g style="fill: #262626" transform="translate(26.45 231.325542) scale(0.11 -0.11)">
       <use xlink:href="#SimHei-36"/>
       <use xlink:href="#SimHei-30" transform="translate(50 0)"/>
      </g>
     </g>
    </g>
    <g id="ytick_5">
     <g id="line2d_13">
      <path d="M 46.95 189.506557 
L 883.95 189.506557 
" clip-path="url(#pd0ece0c82a)" style="fill: none; stroke: #cccccc; stroke-linecap: round"/>
     </g>
     <g id="text_13">
      <!-- 80 -->
      <g style="fill: #262626" transform="translate(26.45 193.287807) scale(0.11 -0.11)">
       <use xlink:href="#SimHei-38"/>
       <use xlink:href="#SimHei-30" transform="translate(50 0)"/>
      </g>
     </g>
    </g>
    <g id="ytick_6">
     <g id="line2d_14">
      <path d="M 46.95 151.468821 
L 883.95 151.468821 
" clip-path="url(#pd0ece0c82a)" style="fill: none; stroke: #cccccc; stroke-linecap: round"/>
     </g>
     <g id="text_14">
      <!-- 100 -->
      <g style="fill: #262626" transform="translate(20.95 155.250071) scale(0.11 -0.11)">
       <use xlink:href="#SimHei-31"/>
       <use xlink:href="#SimHei-30" transform="translate(50 0)"/>
       <use xlink:href="#SimHei-30" transform="translate(100 0)"/>
      </g>
     </g>
    </g>
    <g id="ytick_7">
     <g id="line2d_15">
      <path d="M 46.95 113.431085 
L 883.95 113.431085 
" clip-path="url(#pd0ece0c82a)" style="fill: none; stroke: #cccccc; stroke-linecap: round"/>
     </g>
     <g id="text_15">
      <!-- 120 -->
      <g style="fill: #262626" transform="translate(20.95 117.212335) scale(0.11 -0.11)">
       <use xlink:href="#SimHei-31"/>
       <use xlink:href="#SimHei-32" transform="translate(50 0)"/>
       <use xlink:href="#SimHei-30" transform="translate(100 0)"/>
      </g>
     </g>
    </g>
    <g id="ytick_8">
     <g id="line2d_16">
      <path d="M 46.95 75.393349 
L 883.95 75.393349 
" clip-path="url(#pd0ece0c82a)" style="fill: none; stroke: #cccccc; stroke-linecap: round"/>
     </g>
     <g id="text_16">
      <!-- 140 -->
      <g style="fill: #262626" transform="translate(20.95 79.174599) scale(0.11 -0.11)">
       <use xlink:href="#SimHei-31"/>
       <use xlink:href="#SimHei-34" transform="translate(50 0)"/>
       <use xlink:href="#SimHei-30" transform="translate(100 0)"/>
      </g>
     </g>
    </g>
    <g id="ytick_9">
     <g id="line2d_17">
      <path d="M 46.95 37.355613 
L 883.95 37.355613 
" clip-path="url(#pd0ece0c82a)" style="fill: none; stroke: #cccccc; stroke-linecap: round"/>
     </g>
     <g id="text_17">
      <!-- 160 -->
      <g style="fill: #262626" transform="translate(20.95 41.136863) scale(0.11 -0.11)">
       <use xlink:href="#SimHei-31"/>
       <use xlink:href="#SimHei-36" transform="translate(50 0)"/>
       <use xlink:href="#SimHei-30" transform="translate(100 0)"/>
      </g>
     </g>
    </g>
    <g id="text_18">
     <!-- Count / 5min -->
     <g style="fill: #262626" transform="translate(15.45 226.4575) rotate(-90) scale(0.12 -0.12)">
      <defs>
       <path id="SimHei-43" d="M 2975 1825 
Q 2950 875 2575 475 
Q 2200 75 1675 75 
Q 1075 75 650 562 
Q 225 1050 225 2125 
Q 225 3300 637 3875 
Q 1050 4450 1700 4450 
Q 2250 4450 2612 4037 
Q 2975 3625 2950 2875 
L 2400 2875 
Q 2400 3425 2225 3700 
Q 2050 3975 1700 3975 
Q 1300 3975 1062 3562 
Q 825 3150 825 2175 
Q 825 1275 1062 912 
Q 1300 550 1675 550 
Q 1950 550 2175 812 
Q 2400 1075 2400 1825 
L 2975 1825 
z
" transform="scale(0.015625)"/>
       <path id="SimHei-6f" d="M 2925 1525 
Q 2925 875 2525 475 
Q 2125 75 1575 75 
Q 1025 75 625 475 
Q 225 875 225 1525 
Q 225 2175 625 2575 
Q 1025 2975 1575 2975 
Q 2125 2975 2525 2575 
Q 2925 2175 2925 1525 
z
M 2375 1525 
Q 2375 2025 2125 2275 
Q 1875 2525 1575 2525 
Q 1275 2525 1025 2275 
Q 775 2025 775 1525 
Q 775 1025 1025 775 
Q 1275 525 1575 525 
Q 1875 525 2125 775 
Q 2375 1025 2375 1525 
z
" transform="scale(0.015625)"/>
       <path id="SimHei-75" d="M 2800 125 
L 2300 125 
L 2300 650 
Q 2100 375 1862 225 
Q 1625 75 1250 75 
Q 800 75 575 325 
Q 350 575 350 950 
L 350 2925 
L 850 2925 
L 850 1125 
Q 850 825 1000 650 
Q 1150 475 1400 475 
Q 1725 475 2012 812 
Q 2300 1150 2300 1650 
L 2300 2925 
L 2800 2925 
L 2800 125 
z
" transform="scale(0.015625)"/>
       <path id="SimHei-6e" d="M 2800 125 
L 2300 125 
L 2300 1925 
Q 2300 2225 2150 2400 
Q 2000 2575 1750 2575 
Q 1425 2575 1137 2237 
Q 850 1900 850 1400 
L 850 125 
L 350 125 
L 350 2925 
L 850 2925 
L 850 2400 
Q 1050 2675 1287 2825 
Q 1525 2975 1900 2975 
Q 2350 2975 2575 2725 
Q 2800 2475 2800 2100 
L 2800 125 
z
" transform="scale(0.015625)"/>
       <path id="SimHei-74" d="M 2750 200 
Q 2625 150 2462 112 
Q 2300 75 2025 75 
Q 1575 75 1300 325 
Q 1025 575 1025 1025 
L 1025 2525 
L 175 2525 
L 175 2925 
L 1025 2925 
L 1025 3900 
L 1525 3900 
L 1525 2925 
L 2550 2925 
L 2550 2525 
L 1525 2525 
L 1525 1000 
Q 1525 800 1625 662 
Q 1725 525 2000 525 
Q 2275 525 2450 575 
Q 2625 625 2750 700 
L 2750 200 
z
" transform="scale(0.015625)"/>
       <path id="SimHei-20" transform="scale(0.015625)"/>
       <path id="SimHei-2f" d="M 3000 4550 
L 350 -175 
L 100 -25 
L 2750 4700 
L 3000 4550 
z
" transform="scale(0.015625)"/>
       <path id="SimHei-6d" d="M 3050 125 
L 2550 125 
L 2550 2150 
Q 2550 2300 2500 2400 
Q 2450 2500 2300 2500 
Q 2125 2500 1975 2312 
Q 1825 2125 1825 1825 
L 1825 125 
L 1325 125 
L 1325 2150 
Q 1325 2300 1275 2400 
Q 1225 2500 1075 2500 
Q 900 2500 750 2312 
Q 600 2125 600 1825 
L 600 125 
L 100 125 
L 100 2925 
L 600 2925 
L 600 2550 
Q 725 2750 900 2862 
Q 1075 2975 1275 2975 
Q 1475 2975 1612 2862 
Q 1750 2750 1800 2550 
Q 1925 2750 2087 2862 
Q 2250 2975 2450 2975 
Q 2750 2975 2900 2812 
Q 3050 2650 3050 2350 
L 3050 125 
z
" transform="scale(0.015625)"/>
       <path id="SimHei-69" d="M 1800 3725 
L 1300 3725 
L 1300 4375 
L 1800 4375 
L 1800 3725 
z
M 1800 125 
L 1300 125 
L 1300 2925 
L 1800 2925 
L 1800 125 
z
" transform="scale(0.015625)"/>
      </defs>
      <use xlink:href="#SimHei-43"/>
      <use xlink:href="#SimHei-6f" transform="translate(50 0)"/>
      <use xlink:href="#SimHei-75" transform="translate(100 0)"/>
      <use xlink:href="#SimHei-6e" transform="translate(150 0)"/>
      <use xlink:href="#SimHei-74" transform="translate(200 0)"/>
      <use xlink:href="#SimHei-20" transform="translate(250 0)"/>
      <use xlink:href="#SimHei-2f" transform="translate(300 0)"/>
      <use xlink:href="#SimHei-20" transform="translate(350 0)"/>
      <use xlink:href="#SimHei-35" transform="translate(400 0)"/>
      <use xlink:href="#SimHei-6d" transform="translate(450 0)"/>
      <use xlink:href="#SimHei-69" transform="translate(500 0)"/>
      <use xlink:href="#SimHei-6e" transform="translate(550 0)"/>
     </g>
    </g>
   </g>
   <g id="line2d_18">
    <path d="M 84.995455 324.540519 
L 85.373077 320.736745 
L 85.750699 337.853726 
L 86.128322 330.246179 
L 86.505944 335.95184 
L 86.883566 330.246179 
L 87.261189 328.344292 
L 87.638811 341.6575 
L 88.016434 337.853726 
L 88.394056 337.853726 
L 88.771678 341.6575 
L 89.526923 341.6575 
L 89.904545 330.246179 
L 90.282168 337.853726 
L 90.65979 337.853726 
L 91.037413 334.049953 
L 91.415035 337.853726 
L 91.792657 337.853726 
L 92.17028 341.6575 
L 92.925524 341.6575 
L 93.303147 330.246179 
L 93.680769 337.853726 
L 94.813636 337.853726 
L 95.191259 341.6575 
L 95.946503 341.6575 
L 96.324126 337.853726 
L 96.701748 341.6575 
L 97.079371 337.853726 
L 97.456993 341.6575 
L 97.834615 337.853726 
L 98.212238 341.6575 
L 100.10035 341.6575 
L 100.477972 334.049953 
L 100.855594 341.6575 
L 108.408042 341.6575 
L 108.785664 318.834858 
L 109.540909 341.6575 
L 111.806643 341.6575 
L 112.184266 337.853726 
L 112.561888 341.6575 
L 114.827622 341.6575 
L 115.205245 337.853726 
L 115.582867 341.6575 
L 115.96049 341.6575 
L 116.338112 337.853726 
L 116.715734 341.6575 
L 118.226224 341.6575 
L 118.603846 337.853726 
L 118.981469 326.442406 
L 119.359091 322.638632 
L 119.736713 313.129198 
L 120.114336 307.423538 
L 120.491958 324.540519 
L 120.86958 330.246179 
L 121.247203 337.853726 
L 121.624825 330.246179 
L 122.002448 337.853726 
L 122.38007 337.853726 
L 122.757692 341.6575 
L 123.135315 334.049953 
L 123.512937 330.246179 
L 123.890559 334.049953 
L 124.268182 334.049953 
L 124.645804 326.442406 
L 125.023427 326.442406 
L 125.401049 337.853726 
L 125.778671 334.049953 
L 126.156294 341.6575 
L 126.533916 330.246179 
L 127.289161 315.031085 
L 127.666783 330.246179 
L 128.422028 330.246179 
L 128.79965 337.853726 
L 129.177273 334.049953 
L 129.554895 326.442406 
L 129.932517 303.619764 
L 130.31014 307.423538 
L 130.687762 328.344292 
L 131.065385 328.344292 
L 131.443007 334.049953 
L 131.820629 335.95184 
L 132.198252 305.521651 
L 132.575874 307.423538 
L 132.953497 307.423538 
L 133.331119 316.932972 
L 133.708741 313.129198 
L 134.086364 326.442406 
L 134.463986 320.736745 
L 134.841608 335.95184 
L 135.219231 334.049953 
L 135.596853 337.853726 
L 135.974476 334.049953 
L 136.352098 337.853726 
L 136.72972 326.442406 
L 137.107343 334.049953 
L 137.484965 334.049953 
L 137.862587 337.853726 
L 138.24021 334.049953 
L 138.617832 341.6575 
L 138.995455 334.049953 
L 139.373077 334.049953 
L 139.750699 341.6575 
L 140.505944 326.442406 
L 140.883566 341.6575 
L 141.261189 341.6575 
L 141.638811 339.755613 
L 142.016434 328.344292 
L 142.394056 337.853726 
L 142.771678 334.049953 
L 143.149301 337.853726 
L 143.526923 337.853726 
L 143.904545 334.049953 
L 144.282168 334.049953 
L 144.65979 330.246179 
L 145.037413 334.049953 
L 145.415035 322.638632 
L 145.792657 330.246179 
L 146.17028 330.246179 
L 146.547902 309.325425 
L 146.925524 315.031085 
L 147.303147 294.11033 
L 147.680769 318.834858 
L 148.058392 284.600896 
L 148.436014 330.246179 
L 148.813636 318.834858 
L 149.191259 337.853726 
L 149.568881 315.031085 
L 149.946503 320.736745 
L 150.324126 332.148066 
L 150.701748 335.95184 
L 151.079371 335.95184 
L 151.456993 337.853726 
L 152.212238 337.853726 
L 152.58986 341.6575 
L 152.967483 330.246179 
L 153.345105 337.853726 
L 153.722727 341.6575 
L 154.10035 337.853726 
L 154.477972 341.6575 
L 154.855594 341.6575 
L 155.233217 330.246179 
L 155.610839 322.638632 
L 155.988462 337.853726 
L 156.366084 334.049953 
L 156.743706 326.442406 
L 157.121329 330.246179 
L 157.498951 330.246179 
L 157.876573 315.031085 
L 158.631818 337.853726 
L 159.009441 324.540519 
L 159.387063 330.246179 
L 159.764685 337.853726 
L 160.142308 318.834858 
L 160.51993 330.246179 
L 160.897552 322.638632 
L 161.275175 324.540519 
L 161.652797 335.95184 
L 162.03042 337.853726 
L 162.408042 334.049953 
L 162.785664 341.6575 
L 163.163287 334.049953 
L 163.918531 341.6575 
L 164.296154 339.755613 
L 164.673776 335.95184 
L 165.051399 334.049953 
L 165.429021 337.853726 
L 165.806643 334.049953 
L 166.561888 341.6575 
L 166.93951 337.853726 
L 167.317133 341.6575 
L 168.072378 334.049953 
L 168.45 337.853726 
L 168.827622 334.049953 
L 169.205245 334.049953 
L 169.582867 326.442406 
L 169.96049 337.853726 
L 170.715734 337.853726 
L 171.093357 341.6575 
L 172.226224 341.6575 
L 172.603846 337.853726 
L 172.981469 341.6575 
L 173.359091 341.6575 
L 173.736713 334.049953 
L 174.114336 334.049953 
L 174.86958 341.6575 
L 176.38007 341.6575 
L 176.757692 337.853726 
L 177.135315 337.853726 
L 177.512937 341.6575 
L 179.023427 341.6575 
L 179.401049 334.049953 
L 180.156294 341.6575 
L 181.666783 341.6575 
L 182.044406 330.246179 
L 182.422028 341.6575 
L 182.79965 337.853726 
L 183.177273 341.6575 
L 184.31014 341.6575 
L 184.687762 337.853726 
L 185.065385 335.95184 
L 185.443007 328.344292 
L 185.820629 337.853726 
L 186.198252 341.6575 
L 194.883566 341.6575 
L 195.261189 337.853726 
L 195.638811 341.6575 
L 216.03042 341.6575 
L 216.408042 320.736745 
L 216.785664 316.932972 
L 217.163287 341.6575 
L 225.848601 341.6575 
L 226.226224 334.049953 
L 226.603846 341.6575 
L 227.736713 341.6575 
L 228.114336 328.344292 
L 228.491958 339.755613 
L 228.86958 341.6575 
L 229.247203 341.6575 
L 229.624825 315.031085 
L 230.002448 337.853726 
L 231.135315 337.853726 
L 231.512937 341.6575 
L 231.890559 341.6575 
L 232.268182 320.736745 
L 232.645804 335.95184 
L 233.023427 337.853726 
L 233.401049 341.6575 
L 233.778671 341.6575 
L 234.156294 337.853726 
L 234.533916 322.638632 
L 234.911538 334.049953 
L 235.289161 334.049953 
L 235.666783 330.246179 
L 236.044406 337.853726 
L 236.422028 337.853726 
L 236.79965 341.6575 
L 237.177273 332.148066 
L 237.554895 339.755613 
L 237.932517 341.6575 
L 239.443007 341.6575 
L 239.820629 337.853726 
L 240.198252 328.344292 
L 240.575874 335.95184 
L 240.953497 334.049953 
L 241.331119 330.246179 
L 241.708741 341.6575 
L 242.086364 330.246179 
L 242.463986 337.853726 
L 242.841608 311.227311 
L 243.219231 332.148066 
L 243.596853 339.755613 
L 243.974476 341.6575 
L 245.862587 341.6575 
L 246.24021 334.049953 
L 246.617832 341.6575 
L 247.373077 341.6575 
L 247.750699 337.853726 
L 248.128322 337.853726 
L 248.505944 330.246179 
L 248.883566 337.853726 
L 249.261189 328.344292 
L 249.638811 335.95184 
L 250.016434 328.344292 
L 250.394056 334.049953 
L 250.771678 332.148066 
L 251.149301 334.049953 
L 251.526923 326.442406 
L 251.904545 337.853726 
L 252.282168 332.148066 
L 252.65979 332.148066 
L 253.037413 326.442406 
L 253.415035 328.344292 
L 253.792657 335.95184 
L 254.17028 324.540519 
L 254.547902 337.853726 
L 254.925524 337.853726 
L 255.303147 330.246179 
L 255.680769 328.344292 
L 256.058392 316.932972 
L 256.813636 320.736745 
L 257.191259 332.148066 
L 257.568881 322.638632 
L 257.946503 334.049953 
L 258.324126 341.6575 
L 258.701748 334.049953 
L 259.079371 322.638632 
L 259.456993 334.049953 
L 259.834615 341.6575 
L 260.212238 335.95184 
L 260.58986 335.95184 
L 260.967483 341.6575 
L 261.345105 341.6575 
L 261.722727 326.442406 
L 262.10035 341.6575 
L 262.477972 341.6575 
L 262.855594 335.95184 
L 263.233217 332.148066 
L 263.610839 337.853726 
L 263.988462 315.031085 
L 264.366084 322.638632 
L 264.743706 334.049953 
L 265.121329 337.853726 
L 265.498951 322.638632 
L 265.876573 324.540519 
L 266.254196 324.540519 
L 266.631818 334.049953 
L 267.009441 326.442406 
L 267.387063 334.049953 
L 267.764685 326.442406 
L 268.142308 334.049953 
L 268.51993 334.049953 
L 268.897552 341.6575 
L 269.275175 334.049953 
L 269.652797 341.6575 
L 270.03042 330.246179 
L 270.408042 326.442406 
L 270.785664 334.049953 
L 271.163287 328.344292 
L 271.540909 335.95184 
L 271.918531 330.246179 
L 272.296154 330.246179 
L 273.051399 337.853726 
L 273.429021 326.442406 
L 273.806643 334.049953 
L 274.184266 326.442406 
L 274.561888 341.6575 
L 274.93951 341.6575 
L 275.317133 326.442406 
L 275.694755 341.6575 
L 276.072378 330.246179 
L 276.45 322.638632 
L 276.827622 303.619764 
L 277.205245 328.344292 
L 277.582867 332.148066 
L 277.96049 311.227311 
L 278.338112 324.540519 
L 278.715734 320.736745 
L 279.093357 341.6575 
L 279.470979 334.049953 
L 280.226224 341.6575 
L 280.603846 341.6575 
L 280.981469 326.442406 
L 281.359091 341.6575 
L 281.736713 341.6575 
L 282.114336 334.049953 
L 282.491958 341.6575 
L 282.86958 330.246179 
L 283.247203 341.6575 
L 285.890559 341.6575 
L 286.268182 322.638632 
L 286.645804 334.049953 
L 287.023427 337.853726 
L 287.401049 334.049953 
L 287.778671 341.6575 
L 288.156294 341.6575 
L 288.533916 334.049953 
L 289.289161 341.6575 
L 291.554895 341.6575 
L 291.932517 337.853726 
L 292.31014 341.6575 
L 292.687762 341.6575 
L 293.065385 334.049953 
L 293.443007 341.6575 
L 293.820629 337.853726 
L 294.198252 341.6575 
L 302.128322 341.6575 
L 302.505944 337.853726 
L 302.883566 341.6575 
L 324.785664 341.6575 
L 325.163287 334.049953 
L 325.540909 301.717877 
L 325.918531 339.755613 
L 326.296154 341.6575 
L 331.205245 341.6575 
L 331.582867 334.049953 
L 331.96049 334.049953 
L 332.338112 341.6575 
L 332.715734 334.049953 
L 333.093357 337.853726 
L 333.470979 315.031085 
L 333.848601 315.031085 
L 334.226224 330.246179 
L 334.603846 330.246179 
L 334.981469 328.344292 
L 335.359091 313.129198 
L 335.736713 320.736745 
L 336.114336 335.95184 
L 336.491958 334.049953 
L 336.86958 322.638632 
L 337.247203 341.6575 
L 337.624825 332.148066 
L 338.002448 311.227311 
L 338.38007 335.95184 
L 338.757692 334.049953 
L 339.135315 341.6575 
L 339.512937 330.246179 
L 339.890559 337.853726 
L 340.268182 332.148066 
L 340.645804 313.129198 
L 341.023427 330.246179 
L 341.401049 305.521651 
L 341.778671 316.932972 
L 342.156294 320.736745 
L 342.533916 296.012217 
L 342.911538 292.208443 
L 343.289161 275.091462 
L 343.666783 271.287689 
L 344.044406 299.815991 
L 344.422028 290.306557 
L 345.177273 257.974481 
L 345.554895 259.876368 
L 346.687762 223.740519 
L 347.065385 238.955613 
L 347.443007 229.446179 
L 347.820629 225.642406 
L 348.198252 208.525425 
L 348.953497 159.076368 
L 349.331119 191.408443 
L 349.708741 200.917877 
L 350.086364 170.487689 
L 350.463986 189.506557 
L 350.841608 189.506557 
L 351.219231 170.487689 
L 351.596853 179.997123 
L 351.974476 168.585802 
L 352.352098 179.997123 
L 352.72972 170.487689 
L 353.107343 187.60467 
L 353.484965 176.193349 
L 353.862587 168.585802 
L 354.24021 170.487689 
L 354.617832 170.487689 
L 354.995455 174.291462 
L 355.373077 157.174481 
L 355.750699 166.683915 
L 356.128322 164.782028 
L 356.505944 105.823538 
L 356.883566 130.548066 
L 357.261189 105.823538 
L 357.638811 88.706557 
L 358.016434 143.861274 
L 358.394056 132.449953 
L 358.771678 134.35184 
L 359.149301 141.959387 
L 359.526923 124.842406 
L 359.904545 170.487689 
L 360.282168 143.861274 
L 360.65979 134.35184 
L 361.037413 121.038632 
L 361.415035 147.665047 
L 361.792657 183.800896 
L 362.17028 166.683915 
L 362.547902 187.60467 
L 362.925524 183.800896 
L 363.303147 151.468821 
L 363.680769 178.095236 
L 364.058392 178.095236 
L 364.436014 136.253726 
L 364.813636 179.997123 
L 365.191259 172.389575 
L 365.568881 151.468821 
L 366.701748 122.940519 
L 367.079371 141.959387 
L 367.456993 153.370708 
L 367.834615 138.155613 
L 368.212238 187.60467 
L 368.58986 218.034858 
L 368.967483 185.702783 
L 369.345105 225.642406 
L 369.722727 178.095236 
L 370.10035 195.212217 
L 370.477972 172.389575 
L 370.855594 197.114104 
L 371.233217 195.212217 
L 371.610839 212.329198 
L 371.988462 216.132972 
L 372.366084 206.623538 
L 372.743706 170.487689 
L 373.121329 214.231085 
L 373.498951 206.623538 
L 373.876573 216.132972 
L 374.631818 164.782028 
L 375.009441 193.31033 
L 375.387063 178.095236 
L 375.764685 191.408443 
L 376.142308 170.487689 
L 376.51993 178.095236 
L 376.897552 181.899009 
L 377.275175 191.408443 
L 377.652797 181.899009 
L 378.03042 189.506557 
L 378.785664 185.702783 
L 379.163287 143.861274 
L 379.540909 162.880142 
L 379.918531 199.015991 
L 380.296154 204.721651 
L 380.673776 206.623538 
L 381.051399 223.740519 
L 381.429021 225.642406 
L 381.806643 174.291462 
L 382.184266 216.132972 
L 382.561888 210.427311 
L 382.93951 221.838632 
L 383.317133 221.838632 
L 383.694755 204.721651 
L 384.072378 69.687689 
L 384.45 90.608443 
L 385.205245 86.80467 
L 385.582867 94.412217 
L 385.96049 62.080142 
L 386.338112 79.197123 
L 386.715734 73.491462 
L 387.093357 60.178255 
L 387.470979 90.608443 
L 387.848601 86.80467 
L 388.226224 79.197123 
L 388.603846 84.902783 
L 389.359091 67.785802 
L 389.736713 94.412217 
L 390.114336 94.412217 
L 390.491958 126.744292 
L 390.86958 48.766934 
L 391.247203 113.431085 
L 391.624825 94.412217 
L 392.002448 162.880142 
L 392.38007 183.800896 
L 392.757692 193.31033 
L 393.135315 250.366934 
L 393.890559 197.114104 
L 394.268182 231.348066 
L 394.645804 202.819764 
L 395.023427 212.329198 
L 395.401049 238.955613 
L 395.778671 276.993349 
L 396.156294 263.680142 
L 396.533916 263.680142 
L 396.911538 294.11033 
L 397.289161 280.797123 
L 397.666783 278.895236 
L 398.044406 256.072594 
L 398.422028 288.40467 
L 398.79965 288.40467 
L 399.177273 280.797123 
L 399.554895 286.502783 
L 399.932517 288.40467 
L 400.31014 294.11033 
L 400.687762 276.993349 
L 401.065385 288.40467 
L 401.443007 265.582028 
L 401.820629 305.521651 
L 402.198252 301.717877 
L 402.575874 313.129198 
L 402.953497 320.736745 
L 403.331119 296.012217 
L 403.708741 311.227311 
L 404.086364 296.012217 
L 404.463986 311.227311 
L 404.841608 309.325425 
L 405.219231 334.049953 
L 405.596853 313.129198 
L 405.974476 328.344292 
L 406.352098 337.853726 
L 406.72972 334.049953 
L 407.107343 326.442406 
L 407.862587 334.049953 
L 408.24021 326.442406 
L 408.617832 330.246179 
L 408.995455 322.638632 
L 409.373077 334.049953 
L 409.750699 330.246179 
L 410.128322 330.246179 
L 410.505944 337.853726 
L 410.883566 318.834858 
L 411.638811 335.95184 
L 412.016434 332.148066 
L 412.394056 337.853726 
L 412.771678 330.246179 
L 413.149301 337.853726 
L 413.526923 318.834858 
L 413.904545 334.049953 
L 414.282168 334.049953 
L 414.65979 328.344292 
L 415.037413 324.540519 
L 415.415035 337.853726 
L 415.792657 334.049953 
L 416.17028 341.6575 
L 416.547902 330.246179 
L 416.925524 337.853726 
L 418.058392 337.853726 
L 418.436014 339.755613 
L 418.813636 335.95184 
L 419.191259 337.853726 
L 419.568881 337.853726 
L 419.946503 334.049953 
L 420.324126 341.6575 
L 420.701748 334.049953 
L 421.456993 341.6575 
L 423.345105 341.6575 
L 423.722727 337.853726 
L 424.10035 341.6575 
L 435.806643 341.6575 
L 436.184266 334.049953 
L 436.561888 315.031085 
L 436.93951 341.6575 
L 438.45 341.6575 
L 438.827622 337.853726 
L 439.205245 341.6575 
L 439.96049 341.6575 
L 440.338112 334.049953 
L 441.093357 334.049953 
L 441.470979 337.853726 
L 441.848601 324.540519 
L 442.226224 328.344292 
L 442.603846 328.344292 
L 442.981469 332.148066 
L 443.359091 337.853726 
L 443.736713 326.442406 
L 444.114336 324.540519 
L 444.491958 337.853726 
L 444.86958 318.834858 
L 445.247203 332.148066 
L 445.624825 330.246179 
L 446.002448 322.638632 
L 446.38007 337.853726 
L 446.757692 337.853726 
L 447.135315 318.834858 
L 447.512937 318.834858 
L 447.890559 330.246179 
L 448.268182 330.246179 
L 448.645804 337.853726 
L 449.023427 322.638632 
L 449.401049 330.246179 
L 449.778671 303.619764 
L 450.156294 322.638632 
L 450.533916 311.227311 
L 450.911538 303.619764 
L 451.289161 311.227311 
L 451.666783 303.619764 
L 452.044406 292.208443 
L 452.422028 297.914104 
L 452.79965 297.914104 
L 453.177273 296.012217 
L 453.554895 275.091462 
L 453.932517 280.797123 
L 454.31014 269.385802 
L 454.687762 240.8575 
L 455.065385 246.56316 
L 455.443007 240.8575 
L 455.820629 250.366934 
L 456.198252 229.446179 
L 456.575874 221.838632 
L 456.953497 187.60467 
L 457.331119 210.427311 
L 457.708741 206.623538 
L 458.086364 212.329198 
L 458.463986 240.8575 
L 458.841608 210.427311 
L 459.596853 193.31033 
L 459.974476 191.408443 
L 460.352098 170.487689 
L 460.72972 187.60467 
L 461.107343 199.015991 
L 461.484965 155.272594 
L 461.862587 141.959387 
L 462.24021 193.31033 
L 462.617832 157.174481 
L 463.373077 204.721651 
L 463.750699 187.60467 
L 464.505944 191.408443 
L 464.883566 199.015991 
L 465.638811 113.431085 
L 466.016434 122.940519 
L 466.394056 107.725425 
L 466.771678 105.823538 
L 467.149301 113.431085 
L 467.526923 130.548066 
L 467.904545 138.155613 
L 468.282168 117.234858 
L 468.65979 128.646179 
L 469.037413 149.566934 
L 469.415035 141.959387 
L 470.17028 155.272594 
L 470.547902 168.585802 
L 471.303147 181.899009 
L 471.680769 185.702783 
L 472.058392 202.819764 
L 472.436014 179.997123 
L 472.813636 193.31033 
L 473.191259 181.899009 
L 473.568881 204.721651 
L 473.946503 219.936745 
L 474.324126 206.623538 
L 474.701748 174.291462 
L 475.079371 216.132972 
L 475.456993 170.487689 
L 475.834615 181.899009 
L 476.212238 151.468821 
L 476.58986 147.665047 
L 477.345105 200.917877 
L 477.722727 193.31033 
L 478.10035 244.661274 
L 478.477972 181.899009 
L 478.855594 178.095236 
L 479.610839 199.015991 
L 479.988462 197.114104 
L 480.366084 197.114104 
L 480.743706 157.174481 
L 481.121329 164.782028 
L 481.498951 183.800896 
L 481.876573 183.800896 
L 482.254196 187.60467 
L 482.631818 200.917877 
L 483.009441 233.249953 
L 483.387063 166.683915 
L 483.764685 200.917877 
L 484.142308 216.132972 
L 484.51993 221.838632 
L 484.897552 181.899009 
L 485.275175 185.702783 
L 485.652797 229.446179 
L 486.03042 197.114104 
L 486.408042 179.997123 
L 486.785664 195.212217 
L 487.163287 170.487689 
L 487.540909 210.427311 
L 488.296154 172.389575 
L 489.051399 216.132972 
L 489.429021 204.721651 
L 489.806643 218.034858 
L 490.184266 172.389575 
L 490.93951 193.31033 
L 491.317133 199.015991 
L 491.694755 218.034858 
L 492.072378 191.408443 
L 492.45 197.114104 
L 492.827622 103.921651 
L 493.205245 107.725425 
L 493.582867 113.431085 
L 493.96049 98.215991 
L 494.338112 43.061274 
L 494.715734 79.197123 
L 495.093357 63.982028 
L 495.470979 54.472594 
L 495.848601 81.099009 
L 496.226224 88.706557 
L 496.603846 77.295236 
L 496.981469 52.570708 
L 497.359091 77.295236 
L 497.736713 67.785802 
L 498.491958 92.51033 
L 498.86958 98.215991 
L 499.247203 58.276368 
L 499.624825 96.314104 
L 500.38007 143.861274 
L 500.757692 185.702783 
L 501.512937 216.132972 
L 501.890559 219.936745 
L 502.268182 204.721651 
L 502.645804 225.642406 
L 503.023427 227.544292 
L 503.401049 212.329198 
L 503.778671 265.582028 
L 504.156294 246.56316 
L 504.533916 252.268821 
L 504.911538 269.385802 
L 505.289161 259.876368 
L 505.666783 267.483915 
L 506.044406 267.483915 
L 506.422028 259.876368 
L 506.79965 276.993349 
L 507.177273 267.483915 
L 507.554895 275.091462 
L 507.932517 269.385802 
L 508.31014 282.699009 
L 508.687762 278.895236 
L 509.065385 254.170708 
L 509.443007 273.189575 
L 509.820629 305.521651 
L 510.198252 299.815991 
L 510.575874 280.797123 
L 510.953497 273.189575 
L 511.331119 301.717877 
L 511.708741 318.834858 
L 512.086364 299.815991 
L 512.463986 318.834858 
L 513.219231 318.834858 
L 513.596853 313.129198 
L 513.974476 320.736745 
L 514.352098 305.521651 
L 514.72972 326.442406 
L 515.107343 324.540519 
L 515.484965 309.325425 
L 515.862587 318.834858 
L 516.617832 311.227311 
L 517.373077 332.148066 
L 518.128322 324.540519 
L 518.505944 337.853726 
L 518.883566 326.442406 
L 519.261189 326.442406 
L 519.638811 341.6575 
L 520.016434 326.442406 
L 520.394056 322.638632 
L 520.771678 334.049953 
L 521.149301 330.246179 
L 521.526923 322.638632 
L 521.904545 334.049953 
L 522.65979 341.6575 
L 523.037413 334.049953 
L 523.415035 334.049953 
L 523.792657 330.246179 
L 524.17028 334.049953 
L 524.547902 339.755613 
L 524.925524 328.344292 
L 525.303147 334.049953 
L 525.680769 341.6575 
L 526.813636 341.6575 
L 527.191259 339.755613 
L 527.568881 339.755613 
L 527.946503 341.6575 
L 528.324126 337.853726 
L 528.701748 341.6575 
L 529.079371 337.853726 
L 529.456993 341.6575 
L 529.834615 341.6575 
L 530.212238 334.049953 
L 530.58986 341.6575 
L 530.967483 330.246179 
L 531.345105 341.6575 
L 531.722727 337.853726 
L 532.10035 341.6575 
L 532.477972 341.6575 
L 532.855594 337.853726 
L 533.233217 337.853726 
L 533.610839 341.6575 
L 533.988462 337.853726 
L 534.366084 341.6575 
L 534.743706 341.6575 
L 535.121329 337.853726 
L 535.498951 337.853726 
L 535.876573 341.6575 
L 539.275175 341.6575 
L 539.652797 334.049953 
L 540.03042 341.6575 
L 541.540909 341.6575 
L 541.918531 337.853726 
L 542.296154 341.6575 
L 542.673776 334.049953 
L 543.051399 318.834858 
L 543.429021 341.6575 
L 546.072378 341.6575 
L 546.45 337.853726 
L 546.827622 341.6575 
L 547.96049 341.6575 
L 548.338112 334.049953 
L 548.715734 334.049953 
L 549.093357 341.6575 
L 549.470979 334.049953 
L 549.848601 330.246179 
L 550.226224 341.6575 
L 550.603846 324.540519 
L 550.981469 320.736745 
L 551.359091 330.246179 
L 551.736713 330.246179 
L 552.491958 337.853726 
L 552.86958 313.129198 
L 553.247203 307.423538 
L 553.624825 316.932972 
L 554.002448 322.638632 
L 554.38007 337.853726 
L 554.757692 322.638632 
L 555.135315 334.049953 
L 555.512937 309.325425 
L 555.890559 339.755613 
L 556.268182 318.834858 
L 556.645804 334.049953 
L 557.023427 318.834858 
L 557.401049 334.049953 
L 558.156294 334.049953 
L 558.533916 330.246179 
L 558.911538 330.246179 
L 559.289161 334.049953 
L 559.666783 303.619764 
L 560.422028 303.619764 
L 560.79965 297.914104 
L 561.177273 290.306557 
L 561.554895 297.914104 
L 561.932517 284.600896 
L 562.31014 292.208443 
L 562.687762 280.797123 
L 563.065385 259.876368 
L 563.443007 263.680142 
L 563.820629 259.876368 
L 564.198252 238.955613 
L 564.575874 248.465047 
L 564.953497 252.268821 
L 565.331119 204.721651 
L 565.708741 187.60467 
L 566.086364 223.740519 
L 566.463986 199.015991 
L 566.841608 240.8575 
L 567.219231 191.408443 
L 567.596853 202.819764 
L 567.974476 197.114104 
L 568.352098 200.917877 
L 569.107343 181.899009 
L 569.484965 155.272594 
L 569.862587 193.31033 
L 570.24021 191.408443 
L 570.617832 193.31033 
L 570.995455 179.997123 
L 571.373077 208.525425 
L 571.750699 185.702783 
L 572.128322 187.60467 
L 572.505944 212.329198 
L 572.883566 178.095236 
L 573.261189 235.15184 
L 573.638811 162.880142 
L 574.016434 141.959387 
L 574.394056 140.0575 
L 574.771678 113.431085 
L 575.149301 132.449953 
L 575.526923 128.646179 
L 575.904545 151.468821 
L 576.282168 269.385802 
L 576.65979 261.778255 
L 577.037413 122.940519 
L 577.415035 147.665047 
L 577.792657 159.076368 
L 578.17028 143.861274 
L 578.925524 166.683915 
L 579.303147 164.782028 
L 579.680769 149.566934 
L 580.058392 149.566934 
L 580.436014 214.231085 
L 581.191259 179.997123 
L 581.568881 189.506557 
L 581.946503 174.291462 
L 582.324126 191.408443 
L 582.701748 159.076368 
L 583.079371 187.60467 
L 583.456993 157.174481 
L 583.834615 174.291462 
L 584.212238 141.959387 
L 584.58986 138.155613 
L 584.967483 117.234858 
L 585.345105 136.253726 
L 585.722727 195.212217 
L 586.10035 179.997123 
L 586.477972 176.193349 
L 586.855594 189.506557 
L 587.233217 168.585802 
L 587.610839 179.997123 
L 587.988462 143.861274 
L 588.366084 187.60467 
L 588.743706 166.683915 
L 589.121329 197.114104 
L 589.876573 208.525425 
L 590.254196 157.174481 
L 591.009441 238.955613 
L 591.764685 181.899009 
L 592.142308 168.585802 
L 592.897552 187.60467 
L 593.275175 214.231085 
L 593.652797 191.408443 
L 594.03042 160.978255 
L 594.408042 200.917877 
L 594.785664 204.721651 
L 595.163287 204.721651 
L 595.540909 185.702783 
L 595.918531 206.623538 
L 596.296154 174.291462 
L 596.673776 195.212217 
L 597.051399 235.15184 
L 597.429021 219.936745 
L 597.806643 181.899009 
L 598.184266 195.212217 
L 598.561888 170.487689 
L 598.93951 187.60467 
L 599.317133 221.838632 
L 599.694755 200.917877 
L 600.072378 208.525425 
L 600.45 240.8575 
L 600.827622 216.132972 
L 601.205245 199.015991 
L 601.96049 126.744292 
L 602.338112 94.412217 
L 602.715734 77.295236 
L 603.093357 86.80467 
L 603.470979 71.589575 
L 603.848601 63.982028 
L 604.226224 60.178255 
L 604.603846 67.785802 
L 604.981469 79.197123 
L 605.359091 48.766934 
L 605.736713 65.883915 
L 606.114336 58.276368 
L 606.86958 73.491462 
L 607.247203 94.412217 
L 607.624825 83.000896 
L 608.002448 100.117877 
L 608.38007 111.529198 
L 608.757692 105.823538 
L 609.135315 124.842406 
L 609.512937 183.800896 
L 609.890559 221.838632 
L 610.645804 225.642406 
L 611.023427 212.329198 
L 611.401049 221.838632 
L 611.778671 225.642406 
L 612.156294 256.072594 
L 612.533916 246.56316 
L 612.911538 256.072594 
L 613.289161 252.268821 
L 614.044406 278.895236 
L 614.422028 269.385802 
L 614.79965 278.895236 
L 615.177273 267.483915 
L 615.554895 269.385802 
L 615.932517 254.170708 
L 616.31014 288.40467 
L 617.065385 280.797123 
L 617.443007 256.072594 
L 617.820629 286.502783 
L 618.198252 278.895236 
L 618.575874 286.502783 
L 618.953497 307.423538 
L 619.331119 311.227311 
L 619.708741 296.012217 
L 620.086364 303.619764 
L 620.841608 290.306557 
L 621.219231 316.932972 
L 621.596853 324.540519 
L 621.974476 316.932972 
L 622.352098 320.736745 
L 622.72972 318.834858 
L 623.107343 324.540519 
L 623.484965 309.325425 
L 623.862587 320.736745 
L 624.24021 326.442406 
L 624.617832 330.246179 
L 624.995455 330.246179 
L 625.373077 320.736745 
L 625.750699 324.540519 
L 626.128322 326.442406 
L 626.505944 330.246179 
L 627.261189 330.246179 
L 627.638811 326.442406 
L 628.016434 330.246179 
L 628.394056 330.246179 
L 628.771678 341.6575 
L 629.149301 326.442406 
L 629.526923 326.442406 
L 629.904545 332.148066 
L 630.282168 330.246179 
L 630.65979 332.148066 
L 631.037413 330.246179 
L 631.415035 334.049953 
L 631.792657 334.049953 
L 632.17028 330.246179 
L 632.547902 337.853726 
L 632.925524 337.853726 
L 633.303147 334.049953 
L 633.680769 341.6575 
L 634.058392 334.049953 
L 634.436014 337.853726 
L 634.813636 334.049953 
L 635.191259 341.6575 
L 635.568881 337.853726 
L 635.946503 341.6575 
L 636.324126 337.853726 
L 636.701748 341.6575 
L 638.212238 341.6575 
L 638.58986 337.853726 
L 638.967483 341.6575 
L 639.345105 337.853726 
L 639.722727 341.6575 
L 640.10035 337.853726 
L 640.477972 341.6575 
L 644.631818 341.6575 
L 645.009441 337.853726 
L 645.387063 341.6575 
L 651.051399 341.6575 
L 651.429021 334.049953 
L 651.806643 307.423538 
L 652.184266 334.049953 
L 652.561888 341.6575 
L 652.93951 337.853726 
L 653.317133 337.853726 
L 653.694755 341.6575 
L 656.715734 341.6575 
L 657.470979 334.049953 
L 657.848601 334.049953 
L 658.226224 341.6575 
L 658.603846 337.853726 
L 658.981469 332.148066 
L 659.359091 332.148066 
L 659.736713 320.736745 
L 660.114336 330.246179 
L 660.491958 335.95184 
L 660.86958 337.853726 
L 661.247203 334.049953 
L 661.624825 313.129198 
L 662.002448 335.95184 
L 662.38007 280.797123 
L 662.757692 330.246179 
L 663.135315 316.932972 
L 663.512937 324.540519 
L 663.890559 322.638632 
L 664.268182 337.853726 
L 665.023427 303.619764 
L 665.401049 337.853726 
L 665.778671 330.246179 
L 666.533916 330.246179 
L 666.911538 309.325425 
L 667.289161 322.638632 
L 667.666783 320.736745 
L 668.044406 320.736745 
L 668.422028 309.325425 
L 668.79965 311.227311 
L 669.177273 303.619764 
L 669.554895 292.208443 
L 669.932517 288.40467 
L 670.31014 282.699009 
L 670.687762 292.208443 
L 671.065385 290.306557 
L 671.443007 259.876368 
L 671.820629 269.385802 
L 672.198252 269.385802 
L 673.331119 242.759387 
L 673.708741 223.740519 
L 674.086364 195.212217 
L 674.463986 231.348066 
L 674.841608 204.721651 
L 675.219231 216.132972 
L 675.596853 216.132972 
L 675.974476 199.015991 
L 676.352098 202.819764 
L 676.72972 210.427311 
L 677.107343 168.585802 
L 677.484965 206.623538 
L 677.862587 174.291462 
L 678.24021 204.721651 
L 678.617832 189.506557 
L 678.995455 187.60467 
L 679.373077 199.015991 
L 679.750699 187.60467 
L 680.128322 197.114104 
L 680.883566 172.389575 
L 681.261189 185.702783 
L 681.638811 172.389575 
L 682.016434 174.291462 
L 682.394056 122.940519 
L 682.771678 141.959387 
L 683.149301 109.627311 
L 683.526923 115.332972 
L 683.904545 98.215991 
L 684.282168 100.117877 
L 684.65979 149.566934 
L 685.037413 145.76316 
L 685.415035 98.215991 
L 685.792657 160.978255 
L 686.17028 164.782028 
L 686.547902 115.332972 
L 686.925524 151.468821 
L 687.303147 160.978255 
L 687.680769 157.174481 
L 688.058392 166.683915 
L 688.436014 181.899009 
L 688.813636 166.683915 
L 689.568881 195.212217 
L 689.946503 178.095236 
L 690.324126 149.566934 
L 690.701748 162.880142 
L 691.079371 189.506557 
L 691.456993 191.408443 
L 692.212238 143.861274 
L 692.58986 168.585802 
L 692.967483 147.665047 
L 693.345105 141.959387 
L 693.722727 138.155613 
L 694.10035 130.548066 
L 694.477972 170.487689 
L 694.855594 176.193349 
L 695.233217 218.034858 
L 695.610839 200.917877 
L 695.988462 193.31033 
L 696.366084 193.31033 
L 696.743706 221.838632 
L 697.121329 185.702783 
L 697.876573 197.114104 
L 698.254196 185.702783 
L 698.631818 208.525425 
L 699.009441 197.114104 
L 699.387063 229.446179 
L 699.764685 219.936745 
L 700.142308 214.231085 
L 700.51993 210.427311 
L 700.897552 181.899009 
L 701.275175 204.721651 
L 701.652797 210.427311 
L 702.03042 189.506557 
L 702.408042 191.408443 
L 702.785664 200.917877 
L 703.163287 176.193349 
L 703.540909 166.683915 
L 703.918531 214.231085 
L 704.296154 231.348066 
L 704.673776 208.525425 
L 705.051399 212.329198 
L 705.429021 191.408443 
L 705.806643 210.427311 
L 706.184266 187.60467 
L 706.561888 227.544292 
L 706.93951 214.231085 
L 707.317133 208.525425 
L 707.694755 216.132972 
L 708.072378 219.936745 
L 708.45 199.015991 
L 708.827622 227.544292 
L 709.205245 200.917877 
L 709.582867 206.623538 
L 709.96049 206.623538 
L 710.715734 60.178255 
L 711.093357 58.276368 
L 711.470979 138.155613 
L 711.848601 84.902783 
L 712.226224 71.589575 
L 712.603846 44.96316 
L 713.359091 62.080142 
L 713.736713 63.982028 
L 714.114336 63.982028 
L 714.491958 84.902783 
L 714.86958 54.472594 
L 715.247203 48.766934 
L 715.624825 83.000896 
L 716.002448 67.785802 
L 716.38007 79.197123 
L 716.757692 83.000896 
L 717.135315 96.314104 
L 717.512937 147.665047 
L 717.890559 149.566934 
L 718.645804 193.31033 
L 719.023427 197.114104 
L 719.401049 199.015991 
L 720.156294 233.249953 
L 720.533916 244.661274 
L 720.911538 248.465047 
L 721.289161 248.465047 
L 721.666783 271.287689 
L 722.044406 263.680142 
L 722.422028 237.053726 
L 722.79965 252.268821 
L 723.177273 275.091462 
L 723.554895 288.40467 
L 723.932517 276.993349 
L 724.31014 297.914104 
L 724.687762 292.208443 
L 725.065385 273.189575 
L 725.443007 275.091462 
L 725.820629 261.778255 
L 726.198252 276.993349 
L 726.575874 305.521651 
L 726.953497 282.699009 
L 727.708741 309.325425 
L 728.086364 301.717877 
L 728.463986 299.815991 
L 728.841608 286.502783 
L 729.219231 305.521651 
L 729.974476 322.638632 
L 730.352098 299.815991 
L 730.72972 318.834858 
L 731.107343 318.834858 
L 731.862587 307.423538 
L 732.24021 311.227311 
L 732.995455 334.049953 
L 733.373077 320.736745 
L 733.750699 324.540519 
L 734.128322 334.049953 
L 734.505944 320.736745 
L 734.883566 320.736745 
L 735.261189 322.638632 
L 735.638811 334.049953 
L 736.016434 330.246179 
L 736.394056 330.246179 
L 736.771678 318.834858 
L 737.149301 334.049953 
L 737.526923 318.834858 
L 737.904545 322.638632 
L 738.282168 334.049953 
L 738.65979 337.853726 
L 739.037413 330.246179 
L 739.415035 330.246179 
L 740.17028 337.853726 
L 740.547902 334.049953 
L 740.925524 341.6575 
L 741.303147 337.853726 
L 741.680769 337.853726 
L 742.058392 330.246179 
L 742.436014 337.853726 
L 742.813636 341.6575 
L 743.191259 332.148066 
L 743.568881 339.755613 
L 743.946503 337.853726 
L 744.324126 330.246179 
L 744.701748 332.148066 
L 745.079371 335.95184 
L 745.456993 341.6575 
L 746.212238 334.049953 
L 746.58986 341.6575 
L 747.345105 341.6575 
L 748.10035 334.049953 
L 748.855594 341.6575 
L 749.610839 341.6575 
L 749.988462 337.853726 
L 750.366084 341.6575 
L 751.121329 341.6575 
L 751.498951 337.853726 
L 751.876573 341.6575 
L 755.275175 341.6575 
L 755.652797 337.853726 
L 756.03042 341.6575 
L 760.184266 341.6575 
L 760.561888 315.031085 
L 760.93951 334.049953 
L 761.317133 341.6575 
L 763.205245 341.6575 
L 763.582867 337.853726 
L 763.96049 341.6575 
L 765.093357 341.6575 
L 765.470979 337.853726 
L 765.848601 337.853726 
L 766.226224 341.6575 
L 766.603846 337.853726 
L 766.981469 337.853726 
L 767.359091 330.246179 
L 767.736713 337.853726 
L 768.114336 337.853726 
L 768.491958 320.736745 
L 768.86958 324.540519 
L 769.247203 339.755613 
L 769.624825 335.95184 
L 770.002448 334.049953 
L 770.38007 318.834858 
L 770.757692 341.6575 
L 771.135315 313.129198 
L 771.512937 335.95184 
L 771.890559 305.521651 
L 772.268182 316.932972 
L 772.645804 309.325425 
L 773.023427 332.148066 
L 773.401049 337.853726 
L 773.778671 337.853726 
L 774.156294 326.442406 
L 774.533916 334.049953 
L 774.911538 334.049953 
L 775.289161 337.853726 
L 775.666783 322.638632 
L 776.044406 326.442406 
L 776.422028 326.442406 
L 777.177273 294.11033 
L 777.554895 315.031085 
L 777.932517 309.325425 
L 778.31014 292.208443 
L 778.687762 282.699009 
L 779.065385 284.600896 
L 779.443007 292.208443 
L 779.820629 261.778255 
L 780.198252 271.287689 
L 780.575874 263.680142 
L 780.953497 278.895236 
L 781.331119 265.582028 
L 781.708741 244.661274 
L 782.463986 256.072594 
L 782.841608 197.114104 
L 783.219231 199.015991 
L 783.596853 199.015991 
L 783.974476 202.819764 
L 784.352098 204.721651 
L 784.72972 202.819764 
L 785.107343 199.015991 
L 785.484965 187.60467 
L 785.862587 206.623538 
L 786.24021 195.212217 
L 786.617832 178.095236 
L 786.995455 200.917877 
L 787.373077 189.506557 
L 787.750699 193.31033 
L 788.128322 193.31033 
L 788.505944 200.917877 
L 788.883566 200.917877 
L 789.261189 193.31033 
L 789.638811 197.114104 
L 790.016434 181.899009 
L 790.394056 183.800896 
L 790.771678 178.095236 
L 791.149301 168.585802 
L 791.904545 96.314104 
L 792.282168 88.706557 
L 792.65979 88.706557 
L 793.037413 117.234858 
L 793.415035 124.842406 
L 793.792657 140.0575 
L 794.17028 143.861274 
L 794.547902 122.940519 
L 794.925524 126.744292 
L 795.303147 166.683915 
L 795.680769 138.155613 
L 796.058392 159.076368 
L 796.436014 170.487689 
L 796.813636 166.683915 
L 797.191259 172.389575 
L 797.568881 160.978255 
L 797.946503 157.174481 
L 798.324126 178.095236 
L 798.701748 130.548066 
L 799.079371 187.60467 
L 799.456993 151.468821 
L 800.212238 191.408443 
L 800.58986 141.959387 
L 800.967483 143.861274 
L 801.345105 168.585802 
L 801.722727 166.683915 
L 802.10035 160.978255 
L 802.477972 159.076368 
L 802.855594 160.978255 
L 803.233217 183.800896 
L 803.610839 254.170708 
L 803.988462 197.114104 
L 804.366084 233.249953 
L 805.121329 189.506557 
L 805.498951 202.819764 
L 805.876573 202.819764 
L 806.254196 181.899009 
L 806.631818 189.506557 
L 807.009441 193.31033 
L 807.387063 181.899009 
L 807.764685 189.506557 
L 808.142308 200.917877 
L 808.51993 206.623538 
L 808.897552 189.506557 
L 809.275175 221.838632 
L 809.652797 176.193349 
L 810.03042 195.212217 
L 810.408042 179.997123 
L 810.785664 191.408443 
L 811.163287 206.623538 
L 811.540909 195.212217 
L 811.918531 202.819764 
L 812.296154 214.231085 
L 812.673776 187.60467 
L 813.051399 221.838632 
L 813.429021 229.446179 
L 813.806643 199.015991 
L 814.184266 206.623538 
L 814.561888 221.838632 
L 814.93951 254.170708 
L 815.317133 227.544292 
L 815.694755 221.838632 
L 816.072378 206.623538 
L 816.45 208.525425 
L 816.827622 231.348066 
L 817.205245 202.819764 
L 817.582867 233.249953 
L 817.96049 237.053726 
L 818.338112 221.838632 
L 818.715734 191.408443 
L 819.093357 107.725425 
L 819.470979 73.491462 
L 819.848601 105.823538 
L 820.603846 50.668821 
L 820.981469 75.393349 
L 821.359091 39.2575 
L 821.736713 46.865047 
L 822.114336 83.000896 
L 822.491958 84.902783 
L 822.86958 43.061274 
L 823.247203 122.940519 
L 824.002448 77.295236 
L 824.38007 109.627311 
L 825.135315 50.668821 
L 825.512937 140.0575 
L 825.890559 107.725425 
L 826.645804 141.959387 
L 827.023427 214.231085 
L 827.401049 246.56316 
L 827.778671 229.446179 
L 828.156294 235.15184 
L 828.533916 252.268821 
L 828.911538 221.838632 
L 829.289161 244.661274 
L 829.666783 229.446179 
L 830.044406 269.385802 
L 830.422028 280.797123 
L 830.79965 269.385802 
L 831.177273 242.759387 
L 831.554895 282.699009 
L 831.932517 305.521651 
L 832.31014 294.11033 
L 832.687762 305.521651 
L 833.065385 276.993349 
L 833.443007 290.306557 
L 833.820629 315.031085 
L 834.198252 276.993349 
L 834.575874 261.778255 
L 834.953497 307.423538 
L 835.331119 318.834858 
L 835.708741 296.012217 
L 836.463986 322.638632 
L 836.841608 311.227311 
L 837.219231 292.208443 
L 837.596853 301.717877 
L 837.974476 328.344292 
L 838.352098 326.442406 
L 838.72972 322.638632 
L 839.107343 330.246179 
L 839.484965 330.246179 
L 839.862587 326.442406 
L 840.24021 315.031085 
L 840.617832 337.853726 
L 840.995455 330.246179 
L 841.373077 326.442406 
L 841.750699 326.442406 
L 842.128322 330.246179 
L 842.883566 322.638632 
L 843.638811 326.442406 
L 844.016434 334.049953 
L 844.771678 334.049953 
L 845.149301 341.6575 
L 845.904545 334.049953 
L 845.904545 334.049953 
" clip-path="url(#pd0ece0c82a)" style="fill: none; stroke: #1f77b4; stroke-opacity: 0.9; stroke-width: 1.5; stroke-linecap: round"/>
   </g>
   <g id="patch_3">
    <path d="M 46.95 356.7775 
L 46.95 24.1375 
" style="fill: none; stroke: #cccccc; stroke-width: 1.25; stroke-linejoin: miter; stroke-linecap: square"/>
   </g>
   <g id="patch_4">
    <path d="M 883.95 356.7775 
L 883.95 24.1375 
" style="fill: none; stroke: #cccccc; stroke-width: 1.25; stroke-linejoin: miter; stroke-linecap: square"/>
   </g>
   <g id="patch_5">
    <path d="M 46.95 356.7775 
L 883.95 356.7775 
" style="fill: none; stroke: #cccccc; stroke-width: 1.25; stroke-linejoin: miter; stroke-linecap: square"/>
   </g>
   <g id="patch_6">
    <path d="M 46.95 24.1375 
L 883.95 24.1375 
" style="fill: none; stroke: #cccccc; stroke-width: 1.25; stroke-linejoin: miter; stroke-linecap: square"/>
   </g>
   <g id="text_19">
    <!-- Passenger Flow Analysis (Raw Data) -->
    <g style="fill: #262626" transform="translate(346.45 18.1375) scale(0.14 -0.14)">
     <defs>
      <path id="SimHei-50" d="M 2950 3100 
Q 2950 2500 2600 2150 
Q 2250 1800 1625 1800 
L 900 1800 
L 900 125 
L 325 125 
L 325 4400 
L 1625 4400 
Q 2250 4400 2600 4050 
Q 2950 3700 2950 3100 
z
M 2375 3100 
Q 2375 3575 2150 3750 
Q 1925 3925 1475 3925 
L 900 3925 
L 900 2275 
L 1475 2275 
Q 1925 2275 2150 2450 
Q 2375 2625 2375 3100 
z
" transform="scale(0.015625)"/>
      <path id="SimHei-61" d="M 2875 125 
L 2275 125 
Q 2225 175 2200 262 
Q 2175 350 2175 475 
Q 2000 275 1750 175 
Q 1500 75 1225 75 
Q 825 75 550 275 
Q 275 475 275 850 
Q 275 1225 525 1450 
Q 775 1675 1300 1750 
Q 1650 1800 1912 1875 
Q 2175 1950 2175 2075 
Q 2175 2225 2062 2375 
Q 1950 2525 1575 2525 
Q 1275 2525 1137 2412 
Q 1000 2300 950 2100 
L 400 2100 
Q 450 2500 762 2737 
Q 1075 2975 1575 2975 
Q 2125 2975 2400 2725 
Q 2675 2475 2675 2025 
L 2675 650 
Q 2675 500 2725 375 
Q 2775 250 2875 125 
z
M 2175 1050 
L 2175 1550 
Q 2025 1500 1887 1462 
Q 1750 1425 1425 1375 
Q 1050 1325 937 1200 
Q 825 1075 825 900 
Q 825 750 937 637 
Q 1050 525 1275 525 
Q 1500 525 1762 650 
Q 2025 775 2175 1050 
z
" transform="scale(0.015625)"/>
      <path id="SimHei-73" d="M 2750 900 
Q 2750 500 2437 287 
Q 2125 75 1650 75 
Q 1050 75 725 312 
Q 400 550 400 1000 
L 900 1000 
Q 900 700 1112 600 
Q 1325 500 1625 500 
Q 1925 500 2075 612 
Q 2225 725 2225 900 
Q 2225 1025 2100 1150 
Q 1975 1275 1475 1350 
Q 900 1425 687 1637 
Q 475 1850 475 2200 
Q 475 2500 762 2737 
Q 1050 2975 1600 2975 
Q 2100 2975 2387 2750 
Q 2675 2525 2675 2150 
L 2175 2150 
Q 2175 2375 2012 2462 
Q 1850 2550 1600 2550 
Q 1275 2550 1137 2437 
Q 1000 2325 1000 2175 
Q 1000 2000 1125 1900 
Q 1250 1800 1650 1750 
Q 2300 1650 2525 1437 
Q 2750 1225 2750 900 
z
" transform="scale(0.015625)"/>
      <path id="SimHei-65" d="M 2850 1075 
Q 2800 625 2450 350 
Q 2100 75 1625 75 
Q 1025 75 637 462 
Q 250 850 250 1525 
Q 250 2200 637 2587 
Q 1025 2975 1625 2975 
Q 2150 2975 2487 2637 
Q 2825 2300 2825 1525 
L 800 1525 
Q 800 975 1037 750 
Q 1275 525 1625 525 
Q 1900 525 2075 662 
Q 2250 800 2300 1075 
L 2850 1075 
z
M 2250 1925 
Q 2200 2275 2025 2412 
Q 1850 2550 1575 2550 
Q 1325 2550 1125 2412 
Q 925 2275 825 1925 
L 2250 1925 
z
" transform="scale(0.015625)"/>
      <path id="SimHei-67" d="M 2975 2500 
Q 2800 2550 2637 2562 
Q 2475 2575 2300 2525 
Q 2375 2450 2425 2337 
Q 2475 2225 2475 2000 
Q 2475 1575 2187 1300 
Q 1900 1025 1475 1025 
Q 1375 1025 1212 1062 
Q 1050 1100 950 1150 
Q 875 1100 850 1050 
Q 825 1000 825 925 
Q 825 800 1000 737 
Q 1175 675 1625 675 
Q 2350 675 2612 475 
Q 2875 275 2875 -25 
Q 2875 -425 2487 -612 
Q 2100 -800 1575 -800 
Q 900 -800 575 -625 
Q 250 -450 250 -150 
Q 250 0 375 150 
Q 500 300 700 400 
Q 550 475 462 587 
Q 375 700 375 875 
Q 375 1025 487 1137 
Q 600 1250 750 1325 
Q 625 1450 550 1625 
Q 475 1800 475 2000 
Q 475 2425 762 2700 
Q 1050 2975 1475 2975 
Q 1700 2975 1862 2912 
Q 2025 2850 2150 2725 
Q 2350 2875 2550 2937 
Q 2750 3000 2975 2975 
L 2975 2500 
z
M 1975 2000 
Q 1975 2250 1850 2400 
Q 1725 2550 1475 2550 
Q 1225 2550 1100 2400 
Q 975 2250 975 2000 
Q 975 1750 1100 1600 
Q 1225 1450 1475 1450 
Q 1725 1450 1850 1600 
Q 1975 1750 1975 2000 
z
M 2400 -75 
Q 2400 25 2287 125 
Q 2175 225 1725 225 
Q 1625 225 1450 237 
Q 1275 250 1050 275 
Q 850 200 775 100 
Q 700 0 700 -100 
Q 700 -250 900 -350 
Q 1100 -450 1600 -450 
Q 2025 -450 2212 -337 
Q 2400 -225 2400 -75 
z
" transform="scale(0.015625)"/>
      <path id="SimHei-72" d="M 2500 2425 
Q 2025 2500 1700 2287 
Q 1375 2075 1150 1550 
L 1150 125 
L 650 125 
L 650 2925 
L 1150 2925 
L 1150 2200 
Q 1375 2600 1712 2787 
Q 2050 2975 2500 2975 
L 2500 2425 
z
" transform="scale(0.015625)"/>
      <path id="SimHei-46" d="M 2925 3925 
L 875 3925 
L 875 2525 
L 2425 2525 
L 2425 2050 
L 875 2050 
L 875 125 
L 300 125 
L 300 4400 
L 2925 4400 
L 2925 3925 
z
" transform="scale(0.015625)"/>
      <path id="SimHei-6c" d="M 1825 125 
L 1325 125 
L 1325 4400 
L 1825 4400 
L 1825 125 
z
" transform="scale(0.015625)"/>
      <path id="SimHei-77" d="M 3075 2925 
L 2450 75 
L 1975 75 
L 1575 2250 
L 1525 2250 
L 1125 75 
L 650 75 
L 25 2925 
L 550 2925 
L 875 1050 
L 925 1050 
L 1275 2925 
L 1825 2925 
L 2175 1050 
L 2225 1050 
L 2550 2925 
L 3075 2925 
z
" transform="scale(0.015625)"/>
      <path id="SimHei-41" d="M 3075 125 
L 2475 125 
L 2125 1450 
L 1025 1450 
L 675 125 
L 75 125 
L 1325 4450 
L 1825 4450 
L 3075 125 
z
M 2000 1925 
L 1600 3450 
L 1550 3450 
L 1150 1925 
L 2000 1925 
z
" transform="scale(0.015625)"/>
      <path id="SimHei-79" d="M 2900 2925 
L 1750 -100 
Q 1650 -450 1450 -625 
Q 1250 -800 950 -800 
Q 825 -800 712 -787 
Q 600 -775 500 -725 
L 500 -225 
Q 600 -275 700 -300 
Q 800 -325 875 -325 
Q 1075 -325 1150 -262 
Q 1225 -200 1300 25 
L 200 2925 
L 750 2925 
L 1550 725 
L 1575 725 
L 2350 2925 
L 2900 2925 
z
" transform="scale(0.015625)"/>
      <path id="SimHei-28" d="M 2975 -200 
L 2700 -475 
Q 2075 125 1762 775 
Q 1450 1425 1450 2250 
Q 1450 3075 1762 3725 
Q 2075 4375 2700 5000 
L 2975 4725 
Q 2400 4175 2112 3587 
Q 1825 3000 1825 2250 
Q 1825 1500 2112 912 
Q 2400 325 2975 -200 
z
" transform="scale(0.015625)"/>
      <path id="SimHei-52" d="M 3000 125 
L 2400 125 
L 1500 1975 
L 850 1975 
L 850 125 
L 275 125 
L 275 4400 
L 1525 4400 
Q 2125 4400 2500 4112 
Q 2875 3825 2875 3175 
Q 2875 2675 2625 2400 
Q 2375 2125 2050 2050 
L 3000 125 
z
M 2300 3175 
Q 2300 3525 2087 3725 
Q 1875 3925 1400 3925 
L 850 3925 
L 850 2450 
L 1550 2450 
Q 1850 2450 2075 2612 
Q 2300 2775 2300 3175 
z
" transform="scale(0.015625)"/>
      <path id="SimHei-44" d="M 2925 2250 
Q 2925 1100 2437 612 
Q 1950 125 1125 125 
L 275 125 
L 275 4400 
L 1125 4400 
Q 2050 4400 2487 3900 
Q 2925 3400 2925 2250 
z
M 2325 2250 
Q 2325 3175 2025 3550 
Q 1725 3925 1125 3925 
L 850 3925 
L 850 600 
L 1125 600 
Q 1725 600 2025 962 
Q 2325 1325 2325 2250 
z
" transform="scale(0.015625)"/>
      <path id="SimHei-29" d="M 1675 2250 
Q 1675 1425 1362 775 
Q 1050 125 425 -475 
L 150 -200 
Q 725 325 1012 912 
Q 1300 1500 1300 2250 
Q 1300 3000 1012 3587 
Q 725 4175 150 4725 
L 425 5000 
Q 1050 4375 1362 3725 
Q 1675 3075 1675 2250 
z
" transform="scale(0.015625)"/>
     </defs>
     <use xlink:href="#SimHei-50"/>
     <use xlink:href="#SimHei-61" transform="translate(50 0)"/>
     <use xlink:href="#SimHei-73" transform="translate(100 0)"/>
     <use xlink:href="#SimHei-73" transform="translate(150 0)"/>
     <use xlink:href="#SimHei-65" transform="translate(200 0)"/>
     <use xlink:href="#SimHei-6e" transform="translate(250 0)"/>
     <use xlink:href="#SimHei-67" transform="translate(300 0)"/>
     <use xlink:href="#SimHei-65" transform="translate(350 0)"/>
     <use xlink:href="#SimHei-72" transform="translate(400 0)"/>
     <use xlink:href="#SimHei-20" transform="translate(450 0)"/>
     <use xlink:href="#SimHei-46" transform="translate(500 0)"/>
     <use xlink:href="#SimHei-6c" transform="translate(550 0)"/>
     <use xlink:href="#SimHei-6f" transform="translate(600 0)"/>
     <use xlink:href="#SimHei-77" transform="translate(650 0)"/>
     <use xlink:href="#SimHei-20" transform="translate(700 0)"/>
     <use xlink:href="#SimHei-41" transform="translate(750 0)"/>
     <use xlink:href="#SimHei-6e" transform="translate(800 0)"/>
     <use xlink:href="#SimHei-61" transform="translate(850 0)"/>
     <use xlink:href="#SimHei-6c" transform="translate(900 0)"/>
     <use xlink:href="#SimHei-79" transform="translate(950 0)"/>
     <use xlink:href="#SimHei-73" transform="translate(1000 0)"/>
     <use xlink:href="#SimHei-69" transform="translate(1050 0)"/>
     <use xlink:href="#SimHei-73" transform="translate(1100 0)"/>
     <use xlink:href="#SimHei-20" transform="translate(1150 0)"/>
     <use xlink:href="#SimHei-28" transform="translate(1200 0)"/>
     <use xlink:href="#SimHei-52" transform="translate(1250 0)"/>
     <use xlink:href="#SimHei-61" transform="translate(1300 0)"/>
     <use xlink:href="#SimHei-77" transform="translate(1350 0)"/>
     <use xlink:href="#SimHei-20" transform="translate(1400 0)"/>
     <use xlink:href="#SimHei-44" transform="translate(1450 0)"/>
     <use xlink:href="#SimHei-61" transform="translate(1500 0)"/>
     <use xlink:href="#SimHei-74" transform="translate(1550 0)"/>
     <use xlink:href="#SimHei-61" transform="translate(1600 0)"/>
     <use xlink:href="#SimHei-29" transform="translate(1650 0)"/>
    </g>
   </g>
   <g id="legend_1">
    <g id="patch_7">
     <path d="M 54.65 47.5125 
L 205.35 47.5125 
Q 207.55 47.5125 207.55 45.3125 
L 207.55 31.8375 
Q 207.55 29.6375 205.35 29.6375 
L 54.65 29.6375 
Q 52.45 29.6375 52.45 31.8375 
L 52.45 45.3125 
Q 52.45 47.5125 54.65 47.5125 
z
" style="fill: #ffffff; opacity: 0.8; stroke: #cccccc; stroke-linejoin: miter"/>
    </g>
    <g id="line2d_19">
     <path d="M 56.85 37.8875 
L 67.85 37.8875 
L 78.85 37.8875 
" style="fill: none; stroke: #1f77b4; stroke-opacity: 0.9; stroke-width: 1.5; stroke-linecap: round"/>
    </g>
    <g id="text_20">
     <!-- Actual Passenger Flow -->
     <g style="fill: #262626" transform="translate(87.65 41.7375) scale(0.11 -0.11)">
      <defs>
       <path id="SimHei-63" d="M 2850 1250 
Q 2850 725 2487 400 
Q 2125 75 1575 75 
Q 1025 75 625 462 
Q 225 850 225 1525 
Q 225 2200 625 2587 
Q 1025 2975 1575 2975 
Q 2125 2975 2450 2687 
Q 2775 2400 2775 2000 
L 2225 2000 
Q 2200 2300 2012 2412 
Q 1825 2525 1575 2525 
Q 1275 2525 1025 2287 
Q 775 2050 775 1525 
Q 775 1000 1025 762 
Q 1275 525 1575 525 
Q 1900 525 2100 700 
Q 2300 875 2300 1250 
L 2850 1250 
z
" transform="scale(0.015625)"/>
      </defs>
      <use xlink:href="#SimHei-41"/>
      <use xlink:href="#SimHei-63" transform="translate(50 0)"/>
      <use xlink:href="#SimHei-74" transform="translate(100 0)"/>
      <use xlink:href="#SimHei-75" transform="translate(150 0)"/>
      <use xlink:href="#SimHei-61" transform="translate(200 0)"/>
      <use xlink:href="#SimHei-6c" transform="translate(250 0)"/>
      <use xlink:href="#SimHei-20" transform="translate(300 0)"/>
      <use xlink:href="#SimHei-50" transform="translate(350 0)"/>
      <use xlink:href="#SimHei-61" transform="translate(400 0)"/>
      <use xlink:href="#SimHei-73" transform="translate(450 0)"/>
      <use xlink:href="#SimHei-73" transform="translate(500 0)"/>
      <use xlink:href="#SimHei-65" transform="translate(550 0)"/>
      <use xlink:href="#SimHei-6e" transform="translate(600 0)"/>
      <use xlink:href="#SimHei-67" transform="translate(650 0)"/>
      <use xlink:href="#SimHei-65" transform="translate(700 0)"/>
      <use xlink:href="#SimHei-72" transform="translate(750 0)"/>
      <use xlink:href="#SimHei-20" transform="translate(800 0)"/>
      <use xlink:href="#SimHei-46" transform="translate(850 0)"/>
      <use xlink:href="#SimHei-6c" transform="translate(900 0)"/>
      <use xlink:href="#SimHei-6f" transform="translate(950 0)"/>
      <use xlink:href="#SimHei-77" transform="translate(1000 0)"/>
     </g>
    </g>
   </g>
  </g>
 </g>
 <defs>
  <clipPath id="pd0ece0c82a">
   <rect x="46.95" y="24.1375" width="837" height="332.64"/>
  </clipPath>
 </defs>
</svg>
