<?xml version="1.0" encoding="utf-8" standalone="no"?>
<!DOCTYPE svg PUBLIC "-//W3C//DTD SVG 1.1//EN"
  "http://www.w3.org/Graphics/SVG/1.1/DTD/svg11.dtd">
<svg xmlns:xlink="http://www.w3.org/1999/xlink" width="877.4pt" height="381.32125pt" viewBox="0 0 877.4 381.32125" xmlns="http://www.w3.org/2000/svg" version="1.1">
 <metadata>
  <rdf:RDF xmlns:dc="http://purl.org/dc/elements/1.1/" xmlns:cc="http://creativecommons.org/ns#" xmlns:rdf="http://www.w3.org/1999/02/22-rdf-syntax-ns#">
   <cc:Work>
    <dc:type rdf:resource="http://purl.org/dc/dcmitype/StillImage"/>
    <dc:date>2026-01-21T21:52:56.226042</dc:date>
    <dc:format>image/svg+xml</dc:format>
    <dc:creator>
     <cc:Agent>
      <dc:title>Matplotlib v3.10.6, https://matplotlib.org/</dc:title>
     </cc:Agent>
    </dc:creator>
   </cc:Work>
  </rdf:RDF>
 </metadata>
 <defs>
  <style type="text/css">*{stroke-linejoin: round; stroke-linecap: butt}</style>
 </defs>
 <g id="figure_1">
  <g id="patch_1">
   <path d="M 0 381.32125 
L 877.4 381.32125 
L 877.4 0 
L 0 0 
z
" style="fill: #ffffff"/>
  </g>
  <g id="axes_1">
   <g id="patch_2">
    <path d="M 33.2 355.68375 
L 870.2 355.68375 
L 870.2 23.04375 
L 33.2 23.04375 
z
" style="fill: #ffffff"/>
   </g>
   <g id="matplotlib.axis_1">
    <g id="xtick_1">
     <g id="line2d_1">
      <path d="M 71.245455 355.68375 
L 71.245455 23.04375 
" clip-path="url(#p2c07f7eb22)" style="fill: none; stroke: #cccccc; stroke-linecap: round"/>
     </g>
     <g id="text_1">
      <!-- 2025-11-01 -->
      <g style="fill: #262626" transform="translate(43.745455 372.74625) scale(0.11 -0.11)">
       <defs>
        <path id="SimHei-32" d="M 300 250 
Q 325 625 650 925 
Q 975 1225 1475 1862 
Q 1975 2500 2125 2850 
Q 2275 3200 2237 3450 
Q 2200 3700 2000 3862 
Q 1800 4025 1537 4000 
Q 1275 3975 1037 3800 
Q 800 3625 675 3275 
L 200 3350 
Q 400 3925 712 4187 
Q 1025 4450 1450 4475 
Q 1700 4500 1900 4462 
Q 2100 4425 2312 4287 
Q 2525 4150 2662 3875 
Q 2800 3600 2762 3212 
Q 2725 2825 2375 2287 
Q 2025 1750 1025 600 
L 2825 600 
L 2825 150 
L 300 150 
L 300 250 
z
" transform="scale(0.015625)"/>
        <path id="SimHei-30" d="M 225 2537 
Q 250 3200 412 3587 
Q 575 3975 875 4225 
Q 1175 4475 1612 4475 
Q 2050 4475 2375 4112 
Q 2700 3750 2800 3200 
Q 2900 2650 2862 1937 
Q 2825 1225 2612 775 
Q 2400 325 1975 150 
Q 1550 -25 1125 187 
Q 700 400 525 750 
Q 350 1100 275 1487 
Q 200 1875 225 2537 
z
M 750 2687 
Q 675 2000 800 1462 
Q 925 925 1212 700 
Q 1500 475 1800 612 
Q 2100 750 2237 1162 
Q 2375 1575 2375 2062 
Q 2375 2550 2337 2950 
Q 2300 3350 2112 3675 
Q 1925 4000 1612 4012 
Q 1300 4025 1062 3700 
Q 825 3375 750 2687 
z
" transform="scale(0.015625)"/>
        <path id="SimHei-35" d="M 550 1325 
Q 725 650 1150 575 
Q 1575 500 1837 662 
Q 2100 825 2212 1087 
Q 2325 1350 2312 1675 
Q 2300 2000 2137 2225 
Q 1975 2450 1725 2525 
Q 1475 2600 1162 2525 
Q 850 2450 650 2175 
L 225 2225 
Q 275 2375 700 4375 
L 2675 4375 
L 2675 3925 
L 1075 3925 
Q 950 3250 825 2850 
Q 1200 3025 1525 3012 
Q 1850 3000 2150 2862 
Q 2450 2725 2587 2487 
Q 2725 2250 2787 2012 
Q 2850 1775 2837 1500 
Q 2825 1225 2725 937 
Q 2625 650 2425 462 
Q 2225 275 1937 162 
Q 1650 50 1275 75 
Q 900 100 562 350 
Q 225 600 100 1200 
L 550 1325 
z
" transform="scale(0.015625)"/>
        <path id="SimHei-2d" d="M 2975 2125 
L 125 2125 
L 125 2525 
L 2975 2525 
L 2975 2125 
z
" transform="scale(0.015625)"/>
        <path id="SimHei-31" d="M 1400 3600 
Q 1075 3275 575 2975 
L 575 3450 
Q 1200 3875 1600 4450 
L 1900 4450 
L 1900 150 
L 1400 150 
L 1400 3600 
z
" transform="scale(0.015625)"/>
       </defs>
       <use xlink:href="#SimHei-32"/>
       <use xlink:href="#SimHei-30" transform="translate(50 0)"/>
       <use xlink:href="#SimHei-32" transform="translate(100 0)"/>
       <use xlink:href="#SimHei-35" transform="translate(150 0)"/>
       <use xlink:href="#SimHei-2d" transform="translate(200 0)"/>
       <use xlink:href="#SimHei-31" transform="translate(250 0)"/>
       <use xlink:href="#SimHei-31" transform="translate(300 0)"/>
       <use xlink:href="#SimHei-2d" transform="translate(350 0)"/>
       <use xlink:href="#SimHei-30" transform="translate(400 0)"/>
       <use xlink:href="#SimHei-31" transform="translate(450 0)"/>
      </g>
     </g>
    </g>
    <g id="xtick_2">
     <g id="line2d_2">
      <path d="M 179.892861 355.68375 
L 179.892861 23.04375 
" clip-path="url(#p2c07f7eb22)" style="fill: none; stroke: #cccccc; stroke-linecap: round"/>
     </g>
     <g id="text_2">
      <!-- 2025-11-02 -->
      <g style="fill: #262626" transform="translate(152.392861 372.74625) scale(0.11 -0.11)">
       <use xlink:href="#SimHei-32"/>
       <use xlink:href="#SimHei-30" transform="translate(50 0)"/>
       <use xlink:href="#SimHei-32" transform="translate(100 0)"/>
       <use xlink:href="#SimHei-35" transform="translate(150 0)"/>
       <use xlink:href="#SimHei-2d" transform="translate(200 0)"/>
       <use xlink:href="#SimHei-31" transform="translate(250 0)"/>
       <use xlink:href="#SimHei-31" transform="translate(300 0)"/>
       <use xlink:href="#SimHei-2d" transform="translate(350 0)"/>
       <use xlink:href="#SimHei-30" transform="translate(400 0)"/>
       <use xlink:href="#SimHei-32" transform="translate(450 0)"/>
      </g>
     </g>
    </g>
    <g id="xtick_3">
     <g id="line2d_3">
      <path d="M 288.540267 355.68375 
L 288.540267 23.04375 
" clip-path="url(#p2c07f7eb22)" style="fill: none; stroke: #cccccc; stroke-linecap: round"/>
     </g>
     <g id="text_3">
      <!-- 2025-11-03 -->
      <g style="fill: #262626" transform="translate(261.040267 372.74625) scale(0.11 -0.11)">
       <defs>
        <path id="SimHei-33" d="M 250 1225 
L 700 1300 
Q 800 975 1025 762 
Q 1250 550 1587 562 
Q 1925 575 2125 837 
Q 2325 1100 2300 1437 
Q 2275 1775 2037 1962 
Q 1800 2150 1275 2225 
L 1275 2550 
Q 1800 2600 2037 2825 
Q 2275 3050 2250 3412 
Q 2225 3775 1925 3937 
Q 1625 4100 1287 3975 
Q 950 3850 750 3275 
L 300 3350 
Q 450 3800 712 4100 
Q 975 4400 1425 4450 
Q 1875 4500 2212 4337 
Q 2550 4175 2687 3837 
Q 2825 3500 2725 3100 
Q 2625 2700 2150 2400 
Q 2500 2250 2687 1950 
Q 2875 1650 2812 1162 
Q 2750 675 2375 375 
Q 2000 75 1525 87 
Q 1050 100 700 387 
Q 350 675 250 1225 
z
" transform="scale(0.015625)"/>
       </defs>
       <use xlink:href="#SimHei-32"/>
       <use xlink:href="#SimHei-30" transform="translate(50 0)"/>
       <use xlink:href="#SimHei-32" transform="translate(100 0)"/>
       <use xlink:href="#SimHei-35" transform="translate(150 0)"/>
       <use xlink:href="#SimHei-2d" transform="translate(200 0)"/>
       <use xlink:href="#SimHei-31" transform="translate(250 0)"/>
       <use xlink:href="#SimHei-31" transform="translate(300 0)"/>
       <use xlink:href="#SimHei-2d" transform="translate(350 0)"/>
       <use xlink:href="#SimHei-30" transform="translate(400 0)"/>
       <use xlink:href="#SimHei-33" transform="translate(450 0)"/>
      </g>
     </g>
    </g>
    <g id="xtick_4">
     <g id="line2d_4">
      <path d="M 397.187673 355.68375 
L 397.187673 23.04375 
" clip-path="url(#p2c07f7eb22)" style="fill: none; stroke: #cccccc; stroke-linecap: round"/>
     </g>
     <g id="text_4">
      <!-- 2025-11-04 -->
      <g style="fill: #262626" transform="translate(369.687673 372.74625) scale(0.11 -0.11)">
       <defs>
        <path id="SimHei-34" d="M 2000 1100 
L 75 1100 
L 75 1525 
L 2100 4450 
L 2475 4450 
L 2475 1525 
L 3075 1525 
L 3075 1100 
L 2475 1100 
L 2475 150 
L 2000 150 
L 2000 1100 
z
M 2000 1525 
L 2000 3500 
L 600 1525 
L 2000 1525 
z
" transform="scale(0.015625)"/>
       </defs>
       <use xlink:href="#SimHei-32"/>
       <use xlink:href="#SimHei-30" transform="translate(50 0)"/>
       <use xlink:href="#SimHei-32" transform="translate(100 0)"/>
       <use xlink:href="#SimHei-35" transform="translate(150 0)"/>
       <use xlink:href="#SimHei-2d" transform="translate(200 0)"/>
       <use xlink:href="#SimHei-31" transform="translate(250 0)"/>
       <use xlink:href="#SimHei-31" transform="translate(300 0)"/>
       <use xlink:href="#SimHei-2d" transform="translate(350 0)"/>
       <use xlink:href="#SimHei-30" transform="translate(400 0)"/>
       <use xlink:href="#SimHei-34" transform="translate(450 0)"/>
      </g>
     </g>
    </g>
    <g id="xtick_5">
     <g id="line2d_5">
      <path d="M 505.835079 355.68375 
L 505.835079 23.04375 
" clip-path="url(#p2c07f7eb22)" style="fill: none; stroke: #cccccc; stroke-linecap: round"/>
     </g>
     <g id="text_5">
      <!-- 2025-11-05 -->
      <g style="fill: #262626" transform="translate(478.335079 372.74625) scale(0.11 -0.11)">
       <use xlink:href="#SimHei-32"/>
       <use xlink:href="#SimHei-30" transform="translate(50 0)"/>
       <use xlink:href="#SimHei-32" transform="translate(100 0)"/>
       <use xlink:href="#SimHei-35" transform="translate(150 0)"/>
       <use xlink:href="#SimHei-2d" transform="translate(200 0)"/>
       <use xlink:href="#SimHei-31" transform="translate(250 0)"/>
       <use xlink:href="#SimHei-31" transform="translate(300 0)"/>
       <use xlink:href="#SimHei-2d" transform="translate(350 0)"/>
       <use xlink:href="#SimHei-30" transform="translate(400 0)"/>
       <use xlink:href="#SimHei-35" transform="translate(450 0)"/>
      </g>
     </g>
    </g>
    <g id="xtick_6">
     <g id="line2d_6">
      <path d="M 614.482485 355.68375 
L 614.482485 23.04375 
" clip-path="url(#p2c07f7eb22)" style="fill: none; stroke: #cccccc; stroke-linecap: round"/>
     </g>
     <g id="text_6">
      <!-- 2025-11-06 -->
      <g style="fill: #262626" transform="translate(586.982485 372.74625) scale(0.11 -0.11)">
       <defs>
        <path id="SimHei-36" d="M 250 1612 
Q 275 1975 387 2225 
Q 500 2475 725 2850 
L 1750 4450 
L 2325 4450 
L 1275 2800 
Q 1950 2975 2350 2750 
Q 2750 2525 2887 2237 
Q 3025 1950 3037 1612 
Q 3050 1275 2937 950 
Q 2825 625 2537 362 
Q 2250 100 1737 75 
Q 1225 50 862 262 
Q 500 475 362 862 
Q 225 1250 250 1612 
z
M 1025 787 
Q 1250 550 1625 525 
Q 2000 500 2250 775 
Q 2500 1050 2500 1575 
Q 2500 2100 2187 2300 
Q 1875 2500 1487 2450 
Q 1100 2400 925 2075 
Q 750 1750 775 1387 
Q 800 1025 1025 787 
z
" transform="scale(0.015625)"/>
       </defs>
       <use xlink:href="#SimHei-32"/>
       <use xlink:href="#SimHei-30" transform="translate(50 0)"/>
       <use xlink:href="#SimHei-32" transform="translate(100 0)"/>
       <use xlink:href="#SimHei-35" transform="translate(150 0)"/>
       <use xlink:href="#SimHei-2d" transform="translate(200 0)"/>
       <use xlink:href="#SimHei-31" transform="translate(250 0)"/>
       <use xlink:href="#SimHei-31" transform="translate(300 0)"/>
       <use xlink:href="#SimHei-2d" transform="translate(350 0)"/>
       <use xlink:href="#SimHei-30" transform="translate(400 0)"/>
       <use xlink:href="#SimHei-36" transform="translate(450 0)"/>
      </g>
     </g>
    </g>
    <g id="xtick_7">
     <g id="line2d_7">
      <path d="M 723.129891 355.68375 
L 723.129891 23.04375 
" clip-path="url(#p2c07f7eb22)" style="fill: none; stroke: #cccccc; stroke-linecap: round"/>
     </g>
     <g id="text_7">
      <!-- 2025-11-07 -->
      <g style="fill: #262626" transform="translate(695.629891 372.74625) scale(0.11 -0.11)">
       <defs>
        <path id="SimHei-37" d="M 850 150 
Q 1300 2050 2425 3925 
L 275 3925 
L 275 4375 
L 2950 4375 
L 2950 3950 
Q 1775 2050 1400 150 
L 850 150 
z
" transform="scale(0.015625)"/>
       </defs>
       <use xlink:href="#SimHei-32"/>
       <use xlink:href="#SimHei-30" transform="translate(50 0)"/>
       <use xlink:href="#SimHei-32" transform="translate(100 0)"/>
       <use xlink:href="#SimHei-35" transform="translate(150 0)"/>
       <use xlink:href="#SimHei-2d" transform="translate(200 0)"/>
       <use xlink:href="#SimHei-31" transform="translate(250 0)"/>
       <use xlink:href="#SimHei-31" transform="translate(300 0)"/>
       <use xlink:href="#SimHei-2d" transform="translate(350 0)"/>
       <use xlink:href="#SimHei-30" transform="translate(400 0)"/>
       <use xlink:href="#SimHei-37" transform="translate(450 0)"/>
      </g>
     </g>
    </g>
    <g id="xtick_8">
     <g id="line2d_8">
      <path d="M 831.777298 355.68375 
L 831.777298 23.04375 
" clip-path="url(#p2c07f7eb22)" style="fill: none; stroke: #cccccc; stroke-linecap: round"/>
     </g>
     <g id="text_8">
      <!-- 2025-11-08 -->
      <g style="fill: #262626" transform="translate(804.277298 372.74625) scale(0.11 -0.11)">
       <defs>
        <path id="SimHei-38" d="M 175 1375 
Q 175 1675 325 1962 
Q 475 2250 825 2425 
Q 525 2600 425 2812 
Q 325 3025 312 3300 
Q 300 3575 387 3775 
Q 475 3975 650 4150 
Q 825 4325 1037 4387 
Q 1250 4450 1500 4450 
Q 1750 4450 1950 4400 
Q 2150 4350 2375 4187 
Q 2600 4025 2700 3725 
Q 2800 3425 2687 3025 
Q 2575 2625 2100 2400 
Q 2525 2275 2700 2012 
Q 2875 1750 2875 1375 
Q 2875 1000 2762 775 
Q 2650 550 2512 400 
Q 2375 250 2137 162 
Q 1900 75 1537 75 
Q 1175 75 912 162 
Q 650 250 475 425 
Q 300 600 237 837 
Q 175 1075 175 1375 
z
M 687 1400 
Q 675 1100 787 875 
Q 900 650 1200 587 
Q 1500 525 1825 600 
Q 2150 675 2275 950 
Q 2400 1225 2362 1500 
Q 2325 1775 2050 1962 
Q 1775 2150 1450 2125 
Q 1125 2100 912 1900 
Q 700 1700 687 1400 
z
M 775 3350 
Q 775 3100 950 2875 
Q 1125 2650 1500 2650 
Q 1875 2650 2062 2875 
Q 2250 3100 2237 3412 
Q 2225 3725 2012 3875 
Q 1800 4025 1437 4000 
Q 1075 3975 925 3787 
Q 775 3600 775 3350 
z
" transform="scale(0.015625)"/>
       </defs>
       <use xlink:href="#SimHei-32"/>
       <use xlink:href="#SimHei-30" transform="translate(50 0)"/>
       <use xlink:href="#SimHei-32" transform="translate(100 0)"/>
       <use xlink:href="#SimHei-35" transform="translate(150 0)"/>
       <use xlink:href="#SimHei-2d" transform="translate(200 0)"/>
       <use xlink:href="#SimHei-31" transform="translate(250 0)"/>
       <use xlink:href="#SimHei-31" transform="translate(300 0)"/>
       <use xlink:href="#SimHei-2d" transform="translate(350 0)"/>
       <use xlink:href="#SimHei-30" transform="translate(400 0)"/>
       <use xlink:href="#SimHei-38" transform="translate(450 0)"/>
      </g>
     </g>
    </g>
   </g>
   <g id="matplotlib.axis_2">
    <g id="ytick_1">
     <g id="line2d_9">
      <path d="M 33.2 340.56375 
L 870.2 340.56375 
" clip-path="url(#p2c07f7eb22)" style="fill: none; stroke: #cccccc; stroke-linecap: round"/>
     </g>
     <g id="text_9">
      <!-- 0 -->
      <g style="fill: #262626" transform="translate(18.2 344.345) scale(0.11 -0.11)">
       <use xlink:href="#SimHei-30"/>
      </g>
     </g>
    </g>
    <g id="ytick_2">
     <g id="line2d_10">
      <path d="M 33.2 295.76375 
L 870.2 295.76375 
" clip-path="url(#p2c07f7eb22)" style="fill: none; stroke: #cccccc; stroke-linecap: round"/>
     </g>
     <g id="text_10">
      <!-- 20 -->
      <g style="fill: #262626" transform="translate(12.7 299.545) scale(0.11 -0.11)">
       <use xlink:href="#SimHei-32"/>
       <use xlink:href="#SimHei-30" transform="translate(50 0)"/>
      </g>
     </g>
    </g>
    <g id="ytick_3">
     <g id="line2d_11">
      <path d="M 33.2 250.96375 
L 870.2 250.96375 
" clip-path="url(#p2c07f7eb22)" style="fill: none; stroke: #cccccc; stroke-linecap: round"/>
     </g>
     <g id="text_11">
      <!-- 40 -->
      <g style="fill: #262626" transform="translate(12.7 254.745) scale(0.11 -0.11)">
       <use xlink:href="#SimHei-34"/>
       <use xlink:href="#SimHei-30" transform="translate(50 0)"/>
      </g>
     </g>
    </g>
    <g id="ytick_4">
     <g id="line2d_12">
      <path d="M 33.2 206.16375 
L 870.2 206.16375 
" clip-path="url(#p2c07f7eb22)" style="fill: none; stroke: #cccccc; stroke-linecap: round"/>
     </g>
     <g id="text_12">
      <!-- 60 -->
      <g style="fill: #262626" transform="translate(12.7 209.945) scale(0.11 -0.11)">
       <use xlink:href="#SimHei-36"/>
       <use xlink:href="#SimHei-30" transform="translate(50 0)"/>
      </g>
     </g>
    </g>
    <g id="ytick_5">
     <g id="line2d_13">
      <path d="M 33.2 161.36375 
L 870.2 161.36375 
" clip-path="url(#p2c07f7eb22)" style="fill: none; stroke: #cccccc; stroke-linecap: round"/>
     </g>
     <g id="text_13">
      <!-- 80 -->
      <g style="fill: #262626" transform="translate(12.7 165.145) scale(0.11 -0.11)">
       <use xlink:href="#SimHei-38"/>
       <use xlink:href="#SimHei-30" transform="translate(50 0)"/>
      </g>
     </g>
    </g>
    <g id="ytick_6">
     <g id="line2d_14">
      <path d="M 33.2 116.56375 
L 870.2 116.56375 
" clip-path="url(#p2c07f7eb22)" style="fill: none; stroke: #cccccc; stroke-linecap: round"/>
     </g>
     <g id="text_14">
      <!-- 100 -->
      <g style="fill: #262626" transform="translate(7.2 120.345) scale(0.11 -0.11)">
       <use xlink:href="#SimHei-31"/>
       <use xlink:href="#SimHei-30" transform="translate(50 0)"/>
       <use xlink:href="#SimHei-30" transform="translate(100 0)"/>
      </g>
     </g>
    </g>
    <g id="ytick_7">
     <g id="line2d_15">
      <path d="M 33.2 71.76375 
L 870.2 71.76375 
" clip-path="url(#p2c07f7eb22)" style="fill: none; stroke: #cccccc; stroke-linecap: round"/>
     </g>
     <g id="text_15">
      <!-- 120 -->
      <g style="fill: #262626" transform="translate(7.2 75.545) scale(0.11 -0.11)">
       <use xlink:href="#SimHei-31"/>
       <use xlink:href="#SimHei-32" transform="translate(50 0)"/>
       <use xlink:href="#SimHei-30" transform="translate(100 0)"/>
      </g>
     </g>
    </g>
    <g id="ytick_8">
     <g id="line2d_16">
      <path d="M 33.2 26.96375 
L 870.2 26.96375 
" clip-path="url(#p2c07f7eb22)" style="fill: none; stroke: #cccccc; stroke-linecap: round"/>
     </g>
     <g id="text_16">
      <!-- 140 -->
      <g style="fill: #262626" transform="translate(7.2 30.745) scale(0.11 -0.11)">
       <use xlink:href="#SimHei-31"/>
       <use xlink:href="#SimHei-34" transform="translate(50 0)"/>
       <use xlink:href="#SimHei-30" transform="translate(100 0)"/>
      </g>
     </g>
    </g>
   </g>
   <g id="line2d_17">
    <path d="M 71.99995 336.08375 
L 72.377198 336.08375 
L 72.754446 340.56375 
L 73.131694 331.60375 
L 73.508942 340.56375 
L 74.263438 340.56375 
L 74.640686 336.08375 
L 75.017934 340.56375 
L 75.77243 340.56375 
L 76.149678 327.12375 
L 76.526926 340.56375 
L 77.281422 340.56375 
L 77.658669 336.08375 
L 78.035917 340.56375 
L 79.167661 340.56375 
L 79.544909 327.12375 
L 79.922157 340.56375 
L 83.694636 340.56375 
L 84.071884 336.08375 
L 84.449132 340.56375 
L 94.634827 340.56375 
L 95.012075 313.68375 
L 95.766571 340.56375 
L 101.048042 340.56375 
L 101.42529 336.08375 
L 101.802538 340.56375 
L 102.179785 340.56375 
L 102.557033 336.08375 
L 102.934281 340.56375 
L 104.443273 340.56375 
L 104.820521 336.08375 
L 105.197769 322.64375 
L 105.575017 318.16375 
L 105.952265 306.96375 
L 106.329513 304.72375 
L 106.706761 320.40375 
L 107.084009 327.12375 
L 107.461257 340.56375 
L 107.838505 327.12375 
L 108.215752 340.56375 
L 109.347496 340.56375 
L 109.724744 331.60375 
L 110.47924 340.56375 
L 110.856488 327.12375 
L 111.233736 336.08375 
L 111.610984 340.56375 
L 111.988232 336.08375 
L 112.36548 340.56375 
L 112.742728 327.12375 
L 113.119976 336.08375 
L 113.497224 327.12375 
L 113.874472 340.56375 
L 114.251719 331.60375 
L 114.628967 331.60375 
L 115.006215 336.08375 
L 115.383463 336.08375 
L 115.760711 331.60375 
L 116.137959 318.16375 
L 116.515207 313.68375 
L 116.892455 327.12375 
L 117.269703 327.12375 
L 117.646951 331.60375 
L 118.024199 338.32375 
L 118.401447 311.44375 
L 118.778695 304.72375 
L 119.155943 309.20375 
L 119.533191 320.40375 
L 119.910439 315.92375 
L 120.287686 327.12375 
L 120.664934 320.40375 
L 121.042182 338.32375 
L 121.41943 336.08375 
L 121.796678 340.56375 
L 122.173926 336.08375 
L 122.551174 340.56375 
L 122.928422 336.08375 
L 123.30567 340.56375 
L 124.060166 340.56375 
L 124.437414 331.60375 
L 124.814662 340.56375 
L 126.323653 340.56375 
L 126.700901 322.64375 
L 127.078149 340.56375 
L 127.832645 340.56375 
L 128.209893 331.60375 
L 128.587141 336.08375 
L 128.964389 331.60375 
L 129.718885 340.56375 
L 130.096133 331.60375 
L 130.473381 340.56375 
L 131.605125 327.12375 
L 131.982373 336.08375 
L 132.35962 336.08375 
L 132.736868 306.96375 
L 133.114116 324.88375 
L 133.491364 300.24375 
L 133.868612 318.16375 
L 134.24586 286.80375 
L 134.623108 331.60375 
L 135.000356 322.64375 
L 135.377604 336.08375 
L 135.754852 322.64375 
L 136.1321 324.88375 
L 136.509348 333.84375 
L 136.886596 336.08375 
L 137.263844 340.56375 
L 137.641092 336.08375 
L 138.01834 340.56375 
L 138.395588 336.08375 
L 138.772835 340.56375 
L 139.150083 336.08375 
L 139.527331 336.08375 
L 139.904579 340.56375 
L 141.036323 340.56375 
L 141.413571 336.08375 
L 141.790819 327.12375 
L 142.168067 340.56375 
L 142.545315 336.08375 
L 142.922563 327.12375 
L 143.299811 336.08375 
L 143.677059 327.12375 
L 144.054307 313.68375 
L 144.431555 336.08375 
L 144.808802 338.32375 
L 145.18605 320.40375 
L 145.563298 331.60375 
L 145.940546 336.08375 
L 146.317794 318.16375 
L 146.695042 340.56375 
L 147.07229 331.60375 
L 147.449538 331.60375 
L 147.826786 340.56375 
L 148.95853 340.56375 
L 149.335778 336.08375 
L 149.713026 336.08375 
L 150.090274 340.56375 
L 150.467522 338.32375 
L 150.844769 333.84375 
L 151.222017 336.08375 
L 151.599265 340.56375 
L 151.976513 336.08375 
L 152.353761 340.56375 
L 153.862753 340.56375 
L 154.240001 336.08375 
L 154.617249 340.56375 
L 154.994497 340.56375 
L 155.371745 336.08375 
L 155.748993 322.64375 
L 156.126241 336.08375 
L 156.503489 340.56375 
L 156.880736 336.08375 
L 157.257984 340.56375 
L 159.521472 340.56375 
L 159.89872 331.60375 
L 160.653216 340.56375 
L 162.916703 340.56375 
L 163.293951 336.08375 
L 163.671199 340.56375 
L 165.180191 340.56375 
L 165.557439 331.60375 
L 165.934687 340.56375 
L 167.820927 340.56375 
L 168.198175 331.60375 
L 168.575423 340.56375 
L 170.83891 340.56375 
L 171.216158 333.84375 
L 171.593406 333.84375 
L 171.970654 340.56375 
L 202.150489 340.56375 
L 202.527737 315.92375 
L 202.904985 311.44375 
L 203.282233 340.56375 
L 211.958935 340.56375 
L 212.336183 331.60375 
L 212.713431 340.56375 
L 213.845175 340.56375 
L 214.222423 324.88375 
L 214.599671 338.32375 
L 214.976919 340.56375 
L 215.354167 340.56375 
L 215.731415 318.16375 
L 216.108663 336.08375 
L 216.485911 340.56375 
L 216.863159 340.56375 
L 217.240407 336.08375 
L 217.617654 340.56375 
L 217.994902 340.56375 
L 218.37215 327.12375 
L 218.749398 340.56375 
L 220.25839 340.56375 
L 220.635638 331.60375 
L 221.012886 331.60375 
L 221.390134 340.56375 
L 221.767382 331.60375 
L 222.14463 336.08375 
L 222.521878 336.08375 
L 222.899126 340.56375 
L 223.276374 333.84375 
L 223.653621 338.32375 
L 224.030869 340.56375 
L 225.917109 340.56375 
L 226.294357 329.36375 
L 226.671605 333.84375 
L 227.048853 336.08375 
L 227.426101 331.60375 
L 227.803349 340.56375 
L 228.180597 331.60375 
L 228.557845 336.08375 
L 228.935093 327.12375 
L 229.312341 333.84375 
L 229.689588 338.32375 
L 230.066836 340.56375 
L 231.953076 340.56375 
L 232.330324 331.60375 
L 232.707572 340.56375 
L 233.462068 340.56375 
L 233.839316 338.32375 
L 234.216564 338.32375 
L 234.593812 329.36375 
L 234.97106 338.32375 
L 235.348308 333.84375 
L 235.725556 333.84375 
L 236.102803 329.36375 
L 237.234547 336.08375 
L 237.611795 327.12375 
L 237.989043 336.08375 
L 238.366291 333.84375 
L 238.743539 329.36375 
L 239.120787 322.64375 
L 239.498035 329.36375 
L 239.875283 333.84375 
L 240.252531 329.36375 
L 240.629779 336.08375 
L 241.007027 336.08375 
L 241.384275 331.60375 
L 241.761523 331.60375 
L 242.13877 318.16375 
L 242.516018 318.16375 
L 242.893266 327.12375 
L 243.270514 331.60375 
L 243.647762 327.12375 
L 244.02501 331.60375 
L 244.402258 340.56375 
L 245.156754 322.64375 
L 245.534002 336.08375 
L 245.91125 340.56375 
L 246.288498 333.84375 
L 246.665746 333.84375 
L 247.042994 340.56375 
L 247.420242 340.56375 
L 247.79749 331.60375 
L 248.174737 340.56375 
L 248.551985 340.56375 
L 248.929233 333.84375 
L 249.306481 329.36375 
L 249.683729 338.32375 
L 250.060977 318.16375 
L 250.815473 331.60375 
L 251.192721 336.08375 
L 251.569969 322.64375 
L 251.947217 329.36375 
L 252.324465 320.40375 
L 252.701713 336.08375 
L 253.078961 327.12375 
L 253.456209 336.08375 
L 253.833457 327.12375 
L 254.9652 340.56375 
L 255.342448 336.08375 
L 255.719696 340.56375 
L 256.096944 336.08375 
L 256.474192 327.12375 
L 256.85144 336.08375 
L 257.228688 329.36375 
L 257.605936 333.84375 
L 257.983184 331.60375 
L 258.360432 331.60375 
L 258.73768 336.08375 
L 259.114928 338.32375 
L 259.492176 324.88375 
L 259.869424 336.08375 
L 260.246671 331.60375 
L 260.623919 340.56375 
L 261.001167 340.56375 
L 261.378415 322.64375 
L 261.755663 340.56375 
L 262.132911 329.36375 
L 262.510159 324.88375 
L 262.887407 304.72375 
L 263.264655 324.88375 
L 263.641903 338.32375 
L 264.019151 304.72375 
L 264.396399 320.40375 
L 264.773647 315.92375 
L 265.150895 340.56375 
L 265.528143 331.60375 
L 265.905391 340.56375 
L 266.659886 340.56375 
L 267.037134 327.12375 
L 267.414382 340.56375 
L 267.79163 340.56375 
L 268.168878 336.08375 
L 268.546126 340.56375 
L 268.923374 327.12375 
L 269.300622 340.56375 
L 271.941358 340.56375 
L 272.695853 331.60375 
L 273.073101 340.56375 
L 273.450349 331.60375 
L 273.827597 340.56375 
L 274.204845 340.56375 
L 274.582093 336.08375 
L 274.959341 340.56375 
L 277.600077 340.56375 
L 277.977325 336.08375 
L 278.354572 340.56375 
L 278.73182 340.56375 
L 279.109068 331.60375 
L 279.486316 340.56375 
L 310.797895 340.56375 
L 311.175143 331.60375 
L 311.552391 293.52375 
L 311.929639 338.32375 
L 312.306887 340.56375 
L 317.21111 340.56375 
L 317.588358 331.60375 
L 317.965606 331.60375 
L 318.342854 340.56375 
L 318.720102 331.60375 
L 319.09735 336.08375 
L 319.474598 309.20375 
L 319.851846 309.20375 
L 320.229094 327.12375 
L 320.606342 331.60375 
L 320.983589 324.88375 
L 321.360837 315.92375 
L 321.738085 324.88375 
L 322.115333 338.32375 
L 322.492581 331.60375 
L 322.869829 322.64375 
L 323.247077 340.56375 
L 323.624325 329.36375 
L 324.001573 311.44375 
L 324.378821 336.08375 
L 324.756069 336.08375 
L 325.133317 340.56375 
L 325.510565 327.12375 
L 325.887813 336.08375 
L 326.265061 333.84375 
L 326.642309 311.44375 
L 327.019556 331.60375 
L 327.396804 302.48375 
L 328.1513 320.40375 
L 328.528548 295.76375 
L 328.905796 304.72375 
L 329.283044 306.96375 
L 329.660292 275.60375 
L 330.03754 295.76375 
L 330.414788 293.52375 
L 331.169284 255.44375 
L 331.546532 268.88375 
L 332.301028 235.28375 
L 332.678276 235.28375 
L 333.055524 244.24375 
L 333.432771 244.24375 
L 333.810019 224.08375 
L 334.187267 219.60375 
L 334.564515 217.36375 
L 334.941763 208.40375 
L 335.319011 217.36375 
L 335.696259 230.80375 
L 336.073507 219.60375 
L 336.450755 224.08375 
L 336.828003 253.20375 
L 337.205251 239.76375 
L 337.582499 219.60375 
L 337.959747 212.88375 
L 338.336995 242.00375 
L 338.714243 215.12375 
L 339.091491 242.00375 
L 339.468738 239.76375 
L 339.845986 242.00375 
L 340.223234 224.08375 
L 340.600482 248.72375 
L 340.97773 246.48375 
L 341.354978 248.72375 
L 341.732226 271.12375 
L 342.109474 262.16375 
L 342.486722 257.68375 
L 342.86397 286.80375 
L 343.241218 262.16375 
L 343.618466 250.96375 
L 343.995714 268.88375 
L 344.372962 268.88375 
L 344.75021 259.92375 
L 345.127458 271.12375 
L 345.504705 286.80375 
L 345.881953 282.32375 
L 346.259201 268.88375 
L 346.636449 277.84375 
L 347.013697 255.44375 
L 347.390945 271.12375 
L 347.768193 264.40375 
L 348.145441 262.16375 
L 348.522689 262.16375 
L 348.899937 268.88375 
L 349.277185 248.72375 
L 350.031681 248.72375 
L 350.408929 233.04375 
L 350.786177 250.96375 
L 351.163425 257.68375 
L 351.540672 210.64375 
L 351.91792 224.08375 
L 352.295168 221.84375 
L 352.672416 168.08375 
L 353.049664 228.56375 
L 353.80416 183.76375 
L 354.558656 298.00375 
L 354.935904 248.72375 
L 355.313152 277.84375 
L 355.6904 253.20375 
L 356.067648 277.84375 
L 356.444896 250.96375 
L 356.822144 244.24375 
L 357.199392 264.40375 
L 357.576639 271.12375 
L 357.953887 266.64375 
L 358.331135 271.12375 
L 358.708383 248.72375 
L 359.085631 275.60375 
L 359.462879 264.40375 
L 359.840127 273.36375 
L 360.217375 262.16375 
L 360.594623 255.44375 
L 360.971871 284.56375 
L 361.349119 259.92375 
L 361.726367 271.12375 
L 362.103615 266.64375 
L 362.480863 266.64375 
L 362.858111 244.24375 
L 363.235359 264.40375 
L 363.612606 264.40375 
L 363.989854 266.64375 
L 364.367102 282.32375 
L 364.74435 242.00375 
L 365.121598 255.44375 
L 365.498846 248.72375 
L 365.876094 268.88375 
L 366.253342 259.92375 
L 366.63059 264.40375 
L 367.007838 255.44375 
L 367.385086 275.60375 
L 367.762334 262.16375 
L 368.139582 284.56375 
L 368.51683 282.32375 
L 368.894078 286.80375 
L 369.271326 266.64375 
L 369.648573 286.80375 
L 370.025821 259.92375 
L 370.403069 286.80375 
L 370.780317 266.64375 
L 371.157565 289.04375 
L 371.534813 298.00375 
L 371.912061 273.36375 
L 372.289309 298.00375 
L 372.666557 289.04375 
L 373.043805 304.72375 
L 373.421053 298.00375 
L 374.175549 289.04375 
L 374.552797 291.28375 
L 374.930045 298.00375 
L 375.307293 306.96375 
L 375.68454 302.48375 
L 376.061788 302.48375 
L 376.439036 324.88375 
L 376.816284 280.08375 
L 377.193532 295.76375 
L 377.57078 304.72375 
L 377.948028 298.00375 
L 378.325276 286.80375 
L 378.702524 313.68375 
L 379.079772 331.60375 
L 379.45702 304.72375 
L 379.834268 309.20375 
L 380.211516 336.08375 
L 380.588764 300.24375 
L 380.966012 295.76375 
L 381.34326 331.60375 
L 381.720508 331.60375 
L 382.097755 322.64375 
L 382.475003 322.64375 
L 382.852251 336.08375 
L 383.229499 318.16375 
L 383.606747 313.68375 
L 383.983995 331.60375 
L 384.361243 336.08375 
L 384.738491 336.08375 
L 385.115739 327.12375 
L 385.492987 327.12375 
L 385.870235 324.88375 
L 386.247483 324.88375 
L 386.624731 340.56375 
L 387.001979 327.12375 
L 387.379227 324.88375 
L 387.756475 329.36375 
L 388.133722 331.60375 
L 388.51097 331.60375 
L 388.888218 340.56375 
L 389.265466 331.60375 
L 389.642714 340.56375 
L 390.019962 331.60375 
L 390.39721 331.60375 
L 391.151706 340.56375 
L 391.528954 336.08375 
L 391.906202 340.56375 
L 393.037946 340.56375 
L 393.415194 331.60375 
L 393.792442 340.56375 
L 394.546937 340.56375 
L 394.924185 336.08375 
L 395.301433 340.56375 
L 396.433177 340.56375 
L 396.810425 336.08375 
L 397.187673 340.56375 
L 399.073913 340.56375 
L 399.451161 336.08375 
L 399.828409 340.56375 
L 400.205656 340.56375 
L 400.582904 338.32375 
L 400.960152 338.32375 
L 401.3374 340.56375 
L 402.469144 340.56375 
L 402.846392 336.08375 
L 403.22364 340.56375 
L 406.241623 340.56375 
L 406.618871 336.08375 
L 406.996119 340.56375 
L 421.708789 340.56375 
L 422.086037 331.60375 
L 422.463285 309.20375 
L 422.840533 340.56375 
L 425.858516 340.56375 
L 426.235764 331.60375 
L 426.99026 331.60375 
L 427.367508 336.08375 
L 427.744756 320.40375 
L 428.122004 324.88375 
L 428.499252 324.88375 
L 428.8765 329.36375 
L 429.253748 340.56375 
L 429.630996 327.12375 
L 430.008244 329.36375 
L 430.385492 336.08375 
L 430.762739 324.88375 
L 431.139987 336.08375 
L 431.517235 327.12375 
L 432.271731 336.08375 
L 432.648979 336.08375 
L 433.026227 331.60375 
L 433.403475 318.16375 
L 433.780723 327.12375 
L 434.157971 340.56375 
L 434.535219 336.08375 
L 434.912467 322.64375 
L 435.289715 327.12375 
L 435.666963 313.68375 
L 436.044211 318.16375 
L 436.798706 309.20375 
L 437.175954 309.20375 
L 437.553202 295.76375 
L 437.93045 306.96375 
L 438.307698 295.76375 
L 438.684946 302.48375 
L 439.062194 295.76375 
L 439.81669 275.60375 
L 440.193938 271.12375 
L 440.571186 262.16375 
L 440.948434 271.12375 
L 441.325682 253.20375 
L 441.70293 255.44375 
L 442.080178 246.48375 
L 442.834673 199.44375 
L 443.211921 221.84375 
L 443.589169 228.56375 
L 443.966417 221.84375 
L 444.343665 255.44375 
L 444.720913 226.32375 
L 445.098161 228.56375 
L 445.475409 228.56375 
L 445.852657 230.80375 
L 446.229905 210.64375 
L 446.607153 239.76375 
L 446.984401 242.00375 
L 447.361649 230.80375 
L 447.738897 224.08375 
L 448.116145 244.24375 
L 448.493393 226.32375 
L 448.87064 224.08375 
L 449.247888 264.40375 
L 449.625136 242.00375 
L 450.002384 273.36375 
L 450.379632 242.00375 
L 450.75688 282.32375 
L 451.134128 264.40375 
L 451.511376 259.92375 
L 451.888624 264.40375 
L 452.265872 253.20375 
L 452.64312 277.84375 
L 453.020368 259.92375 
L 453.397616 266.64375 
L 453.774864 280.08375 
L 454.152112 264.40375 
L 454.52936 266.64375 
L 454.906607 271.12375 
L 455.283855 268.88375 
L 455.661103 275.60375 
L 456.038351 259.92375 
L 456.415599 277.84375 
L 456.792847 271.12375 
L 457.170095 268.88375 
L 457.547343 273.36375 
L 457.924591 273.36375 
L 458.301839 255.44375 
L 458.679087 259.92375 
L 459.056335 246.48375 
L 459.810831 282.32375 
L 460.188079 266.64375 
L 460.942574 253.20375 
L 461.319822 230.80375 
L 461.69707 224.08375 
L 462.074318 219.60375 
L 462.451566 219.60375 
L 462.828814 262.16375 
L 463.206062 268.88375 
L 463.58331 257.68375 
L 463.960558 282.32375 
L 464.337806 248.72375 
L 464.715054 242.00375 
L 465.092302 259.92375 
L 465.46955 259.92375 
L 465.846798 262.16375 
L 466.224046 277.84375 
L 466.601294 250.96375 
L 466.978541 259.92375 
L 467.355789 257.68375 
L 468.110285 262.16375 
L 468.487533 268.88375 
L 468.864781 293.52375 
L 469.242029 253.20375 
L 469.619277 277.84375 
L 469.996525 284.56375 
L 470.373773 271.12375 
L 470.751021 268.88375 
L 471.128269 275.60375 
L 471.505517 289.04375 
L 472.260013 259.92375 
L 472.637261 266.64375 
L 473.014508 259.92375 
L 473.391756 259.92375 
L 473.769004 253.20375 
L 474.146252 264.40375 
L 474.5235 280.08375 
L 474.900748 262.16375 
L 475.277996 300.24375 
L 476.032492 235.28375 
L 476.786988 277.84375 
L 477.164236 275.60375 
L 477.918732 280.08375 
L 478.29598 273.36375 
L 478.673228 302.48375 
L 479.050476 266.64375 
L 479.427723 291.28375 
L 479.804971 289.04375 
L 480.182219 259.92375 
L 480.559467 309.20375 
L 480.936715 286.80375 
L 481.313963 282.32375 
L 481.691211 298.00375 
L 482.068459 306.96375 
L 482.445707 304.72375 
L 482.822955 284.56375 
L 483.200203 293.52375 
L 483.577451 295.76375 
L 483.954699 291.28375 
L 484.709195 315.92375 
L 485.086443 284.56375 
L 485.46369 289.04375 
L 485.840938 313.68375 
L 486.218186 295.76375 
L 486.595434 298.00375 
L 486.972682 311.44375 
L 487.34993 302.48375 
L 488.104426 320.40375 
L 488.481674 302.48375 
L 488.858922 313.68375 
L 489.23617 295.76375 
L 489.613418 306.96375 
L 489.990666 309.20375 
L 490.367914 298.00375 
L 490.745162 329.36375 
L 491.12241 315.92375 
L 491.499657 331.60375 
L 491.876905 324.88375 
L 492.254153 329.36375 
L 492.631401 331.60375 
L 493.008649 306.96375 
L 493.385897 324.88375 
L 493.763145 315.92375 
L 494.140393 329.36375 
L 494.517641 331.60375 
L 494.894889 313.68375 
L 495.272137 313.68375 
L 495.649385 336.08375 
L 496.026633 329.36375 
L 496.403881 320.40375 
L 497.158377 340.56375 
L 497.535624 336.08375 
L 497.912872 340.56375 
L 499.044616 340.56375 
L 499.421864 327.12375 
L 499.799112 336.08375 
L 500.17636 331.60375 
L 500.553608 336.08375 
L 500.930856 331.60375 
L 501.308104 336.08375 
L 501.685352 331.60375 
L 502.0626 340.56375 
L 502.439848 340.56375 
L 502.817096 336.08375 
L 503.194344 340.56375 
L 503.571591 336.08375 
L 503.948839 340.56375 
L 504.326087 340.56375 
L 504.703335 336.08375 
L 505.080583 340.56375 
L 505.835079 340.56375 
L 506.212327 336.08375 
L 506.589575 340.56375 
L 516.398021 340.56375 
L 516.775269 331.60375 
L 517.152517 340.56375 
L 528.092707 340.56375 
L 528.469955 331.60375 
L 528.847203 313.68375 
L 529.224451 340.56375 
L 533.751427 340.56375 
L 534.128674 331.60375 
L 534.505922 331.60375 
L 534.88317 340.56375 
L 535.260418 331.60375 
L 535.637666 327.12375 
L 536.014914 340.56375 
L 536.392162 320.40375 
L 536.76941 315.92375 
L 537.146658 327.12375 
L 537.901154 336.08375 
L 538.278402 336.08375 
L 539.032898 304.72375 
L 539.410146 333.84375 
L 539.787394 322.64375 
L 540.164641 340.56375 
L 540.541889 322.64375 
L 540.919137 331.60375 
L 541.296385 311.44375 
L 541.673633 338.32375 
L 542.050881 327.12375 
L 542.428129 331.60375 
L 542.805377 313.68375 
L 543.182625 336.08375 
L 543.559873 331.60375 
L 544.314369 331.60375 
L 544.691617 340.56375 
L 545.068865 331.60375 
L 545.446113 300.24375 
L 545.823361 295.76375 
L 546.200608 304.72375 
L 546.577856 304.72375 
L 546.955104 295.76375 
L 547.332352 300.24375 
L 547.7096 280.08375 
L 548.086848 300.24375 
L 548.464096 286.80375 
L 548.841344 266.64375 
L 549.218592 266.64375 
L 549.59584 253.20375 
L 550.350336 257.68375 
L 550.727584 257.68375 
L 551.104832 210.64375 
L 551.48208 190.48375 
L 551.859328 224.08375 
L 552.236575 217.36375 
L 552.613823 235.28375 
L 552.991071 208.40375 
L 553.368319 257.68375 
L 553.745567 230.80375 
L 554.122815 228.56375 
L 554.500063 224.08375 
L 554.877311 224.08375 
L 555.254559 210.64375 
L 556.009055 248.72375 
L 556.386303 244.24375 
L 556.763551 237.52375 
L 557.140799 248.72375 
L 557.518047 235.28375 
L 557.895295 235.28375 
L 558.272542 264.40375 
L 558.64979 257.68375 
L 559.027038 302.48375 
L 559.404286 262.16375 
L 559.781534 253.20375 
L 560.158782 277.84375 
L 560.53603 266.64375 
L 560.913278 266.64375 
L 561.290526 289.04375 
L 561.667774 284.56375 
L 562.045022 309.20375 
L 562.42227 315.92375 
L 562.799518 253.20375 
L 563.176766 266.64375 
L 563.554014 262.16375 
L 563.931262 277.84375 
L 564.308509 268.88375 
L 564.685757 268.88375 
L 565.063005 282.32375 
L 565.440253 262.16375 
L 565.817501 257.68375 
L 566.194749 280.08375 
L 566.949245 244.24375 
L 567.326493 235.28375 
L 567.703741 237.52375 
L 568.080989 244.24375 
L 568.458237 217.36375 
L 568.835485 242.00375 
L 569.212733 242.00375 
L 569.589981 248.72375 
L 569.967229 192.72375 
L 570.344476 208.40375 
L 570.721724 179.28375 
L 571.098972 199.44375 
L 571.47622 246.48375 
L 571.853468 262.16375 
L 572.230716 268.88375 
L 572.607964 248.72375 
L 572.985212 257.68375 
L 573.739708 244.24375 
L 574.116956 255.44375 
L 574.494204 275.60375 
L 574.871452 275.60375 
L 575.2487 277.84375 
L 575.625948 282.32375 
L 576.003196 239.76375 
L 576.380444 259.92375 
L 576.757691 289.04375 
L 577.134939 277.84375 
L 577.512187 259.92375 
L 577.889435 259.92375 
L 578.266683 244.24375 
L 578.643931 255.44375 
L 579.021179 277.84375 
L 579.398427 262.16375 
L 579.775675 253.20375 
L 580.152923 266.64375 
L 580.530171 271.12375 
L 580.907419 277.84375 
L 581.284667 259.92375 
L 581.661915 250.96375 
L 582.039163 253.20375 
L 582.416411 257.68375 
L 582.793658 293.52375 
L 583.170906 277.84375 
L 583.548154 244.24375 
L 583.925402 266.64375 
L 584.30265 271.12375 
L 584.679898 273.36375 
L 585.057146 273.36375 
L 585.434394 262.16375 
L 585.811642 259.92375 
L 586.18889 309.20375 
L 586.566138 275.60375 
L 586.943386 286.80375 
L 587.320634 268.88375 
L 587.697882 293.52375 
L 588.07513 295.76375 
L 588.452378 268.88375 
L 588.829625 282.32375 
L 589.206873 268.88375 
L 589.584121 298.00375 
L 589.961369 293.52375 
L 590.338617 306.96375 
L 590.715865 306.96375 
L 591.093113 293.52375 
L 591.470361 293.52375 
L 591.847609 289.04375 
L 592.224857 309.20375 
L 592.602105 309.20375 
L 592.979353 315.92375 
L 593.356601 298.00375 
L 593.733849 295.76375 
L 594.111097 315.92375 
L 594.488345 311.44375 
L 594.865592 313.68375 
L 595.24284 293.52375 
L 595.620088 324.88375 
L 595.997336 313.68375 
L 596.374584 318.16375 
L 596.751832 318.16375 
L 597.12908 282.32375 
L 597.506328 318.16375 
L 597.883576 318.16375 
L 598.260824 304.72375 
L 598.638072 322.64375 
L 599.01532 320.40375 
L 599.392568 315.92375 
L 599.769816 324.88375 
L 600.147064 315.92375 
L 600.524312 327.12375 
L 600.901559 322.64375 
L 601.278807 331.60375 
L 602.033303 322.64375 
L 602.410551 313.68375 
L 602.787799 320.40375 
L 603.165047 315.92375 
L 603.542295 327.12375 
L 603.919543 309.20375 
L 604.296791 331.60375 
L 604.674039 331.60375 
L 605.051287 340.56375 
L 605.428535 331.60375 
L 606.560279 331.60375 
L 606.937526 340.56375 
L 608.446518 340.56375 
L 609.201014 331.60375 
L 609.578262 340.56375 
L 617.877717 340.56375 
L 618.254965 336.08375 
L 618.632213 340.56375 
L 636.740114 340.56375 
L 637.117362 331.60375 
L 637.494609 300.24375 
L 637.871857 336.08375 
L 638.249105 340.56375 
L 638.626353 336.08375 
L 639.003601 336.08375 
L 639.380849 340.56375 
L 642.398833 340.56375 
L 643.153329 331.60375 
L 643.530576 331.60375 
L 643.907824 340.56375 
L 644.285072 336.08375 
L 644.66232 329.36375 
L 645.039568 333.84375 
L 645.416816 315.92375 
L 645.794064 327.12375 
L 646.171312 333.84375 
L 646.54856 336.08375 
L 646.925808 331.60375 
L 647.303056 320.40375 
L 647.680304 333.84375 
L 648.057552 286.80375 
L 648.4348 331.60375 
L 648.812048 315.92375 
L 649.189296 329.36375 
L 649.566543 327.12375 
L 649.943791 340.56375 
L 650.321039 322.64375 
L 650.698287 295.76375 
L 651.075535 336.08375 
L 651.452783 331.60375 
L 652.207279 331.60375 
L 652.584527 306.96375 
L 652.961775 329.36375 
L 653.339023 327.12375 
L 654.093519 302.48375 
L 654.470767 309.20375 
L 654.848015 309.20375 
L 655.225263 286.80375 
L 655.60251 291.28375 
L 655.979758 280.08375 
L 656.357006 291.28375 
L 656.734254 295.76375 
L 657.111502 273.36375 
L 657.48875 273.36375 
L 657.865998 282.32375 
L 658.243246 280.08375 
L 658.620494 262.16375 
L 658.997742 250.96375 
L 659.37499 235.28375 
L 659.752238 206.16375 
L 660.129486 217.36375 
L 660.506734 212.88375 
L 660.883982 226.32375 
L 661.26123 235.28375 
L 661.638477 233.04375 
L 662.015725 215.12375 
L 662.392973 248.72375 
L 662.770221 210.64375 
L 663.147469 233.04375 
L 663.524717 210.64375 
L 663.901965 246.48375 
L 664.279213 250.96375 
L 664.656461 242.00375 
L 665.033709 242.00375 
L 665.410957 233.04375 
L 665.788205 248.72375 
L 666.165453 244.24375 
L 666.542701 237.52375 
L 666.919949 242.00375 
L 667.297197 244.24375 
L 667.674444 237.52375 
L 668.051692 259.92375 
L 668.42894 275.60375 
L 668.806188 280.08375 
L 669.183436 264.40375 
L 669.560684 268.88375 
L 669.937932 286.80375 
L 670.31518 280.08375 
L 670.692428 266.64375 
L 671.069676 280.08375 
L 671.446924 266.64375 
L 671.824172 280.08375 
L 672.20142 257.68375 
L 672.578668 268.88375 
L 672.955916 259.92375 
L 673.333164 280.08375 
L 673.710412 257.68375 
L 674.087659 259.92375 
L 674.464907 257.68375 
L 674.842155 259.92375 
L 675.219403 268.88375 
L 675.596651 248.72375 
L 675.973899 215.12375 
L 676.351147 239.76375 
L 676.728395 244.24375 
L 677.105643 230.80375 
L 677.482891 246.48375 
L 677.860139 217.36375 
L 678.237387 224.08375 
L 678.614635 228.56375 
L 678.991883 201.68375 
L 679.369131 212.88375 
L 679.746379 206.16375 
L 680.123626 262.16375 
L 680.500874 268.88375 
L 680.878122 257.68375 
L 681.25537 271.12375 
L 681.632618 250.96375 
L 682.009866 280.08375 
L 682.387114 275.60375 
L 683.14161 248.72375 
L 683.518858 264.40375 
L 683.896106 257.68375 
L 684.273354 255.44375 
L 684.650602 257.68375 
L 685.02785 275.60375 
L 685.405098 268.88375 
L 686.159593 259.92375 
L 686.536841 266.64375 
L 686.914089 277.84375 
L 687.291337 257.68375 
L 687.668585 273.36375 
L 688.045833 266.64375 
L 688.423081 268.88375 
L 688.800329 255.44375 
L 689.177577 262.16375 
L 689.554825 280.08375 
L 689.932073 286.80375 
L 690.309321 271.12375 
L 691.063817 266.64375 
L 691.818313 271.12375 
L 692.19556 275.60375 
L 692.572808 275.60375 
L 692.950056 262.16375 
L 693.704552 284.56375 
L 694.0818 266.64375 
L 694.459048 268.88375 
L 694.836296 273.36375 
L 695.213544 273.36375 
L 695.590792 268.88375 
L 695.96804 282.32375 
L 696.345288 289.04375 
L 696.722536 271.12375 
L 697.099784 311.44375 
L 697.477032 289.04375 
L 697.85428 277.84375 
L 698.231527 293.52375 
L 698.608775 286.80375 
L 698.986023 293.52375 
L 699.363271 289.04375 
L 699.740519 302.48375 
L 700.117767 280.08375 
L 700.495015 300.24375 
L 700.872263 286.80375 
L 701.249511 302.48375 
L 701.626759 284.56375 
L 702.004007 309.20375 
L 702.381255 304.72375 
L 702.758503 304.72375 
L 703.135751 300.24375 
L 703.512999 309.20375 
L 703.890247 300.24375 
L 704.267494 318.16375 
L 704.644742 286.80375 
L 705.02199 295.76375 
L 705.399238 300.24375 
L 705.776486 313.68375 
L 706.153734 300.24375 
L 706.530982 324.88375 
L 706.90823 315.92375 
L 707.285478 327.12375 
L 707.662726 320.40375 
L 708.039974 311.44375 
L 708.417222 318.16375 
L 709.171718 336.08375 
L 709.548966 309.20375 
L 709.926214 340.56375 
L 710.303461 327.12375 
L 710.680709 336.08375 
L 711.435205 302.48375 
L 711.812453 320.40375 
L 712.189701 327.12375 
L 712.566949 327.12375 
L 712.944197 340.56375 
L 713.698693 340.56375 
L 714.075941 327.12375 
L 714.453189 322.64375 
L 715.207685 340.56375 
L 715.584933 331.60375 
L 715.962181 331.60375 
L 716.339428 340.56375 
L 716.716676 331.60375 
L 717.093924 340.56375 
L 717.471172 340.56375 
L 717.84842 336.08375 
L 718.225668 340.56375 
L 718.602916 340.56375 
L 718.980164 336.08375 
L 719.357412 340.56375 
L 719.73466 336.08375 
L 720.111908 333.84375 
L 720.489156 338.32375 
L 720.866404 331.60375 
L 721.243652 340.56375 
L 721.6209 340.56375 
L 721.998148 336.08375 
L 722.375396 336.08375 
L 722.752643 331.60375 
L 723.129891 340.56375 
L 723.507139 331.60375 
L 723.884387 340.56375 
L 727.279619 340.56375 
L 727.656867 336.08375 
L 728.034115 340.56375 
L 729.543106 340.56375 
L 729.920354 331.60375 
L 730.297602 340.56375 
L 745.764768 340.56375 
L 746.142016 309.20375 
L 746.519264 331.60375 
L 746.896511 340.56375 
L 750.668991 340.56375 
L 751.046239 336.08375 
L 751.423487 336.08375 
L 751.800735 340.56375 
L 752.177983 336.08375 
L 752.555231 336.08375 
L 752.932478 327.12375 
L 753.309726 336.08375 
L 753.686974 336.08375 
L 754.064222 315.92375 
L 754.44147 320.40375 
L 754.818718 338.32375 
L 755.195966 333.84375 
L 755.573214 336.08375 
L 755.950462 327.12375 
L 756.32771 340.56375 
L 756.704958 306.96375 
L 757.082206 333.84375 
L 757.459454 311.44375 
L 757.836702 320.40375 
L 758.21395 318.16375 
L 758.591198 340.56375 
L 758.968445 336.08375 
L 759.722941 336.08375 
L 760.100189 331.60375 
L 760.477437 331.60375 
L 760.854685 336.08375 
L 761.231933 327.12375 
L 761.609181 322.64375 
L 761.986429 322.64375 
L 762.363677 304.72375 
L 762.740925 293.52375 
L 763.118173 309.20375 
L 763.495421 302.48375 
L 763.872669 306.96375 
L 764.249917 286.80375 
L 764.627165 291.28375 
L 765.004412 291.28375 
L 765.38166 266.64375 
L 765.758908 289.04375 
L 766.136156 273.36375 
L 766.513404 280.08375 
L 766.890652 268.88375 
L 767.645148 259.92375 
L 768.022396 273.36375 
L 768.399644 215.12375 
L 768.776892 197.20375 
L 769.15414 219.60375 
L 769.531388 219.60375 
L 769.908636 215.12375 
L 770.285884 237.52375 
L 770.663132 230.80375 
L 771.04038 226.32375 
L 771.417627 237.52375 
L 771.794875 239.76375 
L 772.172123 221.84375 
L 772.549371 224.08375 
L 772.926619 221.84375 
L 773.303867 242.00375 
L 773.681115 233.04375 
L 774.058363 255.44375 
L 774.435611 217.36375 
L 775.190107 257.68375 
L 775.567355 235.28375 
L 775.944603 239.76375 
L 776.321851 266.64375 
L 776.699099 266.64375 
L 777.076347 273.36375 
L 777.453594 273.36375 
L 777.830842 257.68375 
L 778.20809 271.12375 
L 778.585338 268.88375 
L 778.962586 289.04375 
L 779.339834 289.04375 
L 779.717082 275.60375 
L 780.09433 271.12375 
L 780.471578 264.40375 
L 780.848826 291.28375 
L 781.226074 271.12375 
L 781.603322 259.92375 
L 781.98057 277.84375 
L 782.357818 271.12375 
L 782.735066 271.12375 
L 783.866809 237.52375 
L 784.244057 199.44375 
L 784.621305 248.72375 
L 784.998553 239.76375 
L 785.375801 237.52375 
L 785.753049 257.68375 
L 786.130297 215.12375 
L 786.507545 246.48375 
L 786.884793 203.92375 
L 787.262041 219.60375 
L 787.639289 244.24375 
L 788.393785 201.68375 
L 788.771033 248.72375 
L 789.148281 275.60375 
L 789.525528 271.12375 
L 789.902776 277.84375 
L 790.280024 295.76375 
L 790.657272 268.88375 
L 791.03452 262.16375 
L 791.411768 275.60375 
L 791.789016 253.20375 
L 792.166264 244.24375 
L 792.543512 277.84375 
L 792.92076 273.36375 
L 793.298008 255.44375 
L 793.675256 257.68375 
L 794.052504 280.08375 
L 794.429752 259.92375 
L 794.807 262.16375 
L 795.561495 253.20375 
L 795.938743 268.88375 
L 796.315991 262.16375 
L 796.693239 268.88375 
L 797.070487 266.64375 
L 797.447735 277.84375 
L 797.824983 266.64375 
L 798.202231 271.12375 
L 798.579479 280.08375 
L 798.956727 259.92375 
L 799.333975 266.64375 
L 799.711223 284.56375 
L 800.088471 259.92375 
L 800.465719 293.52375 
L 800.842967 282.32375 
L 801.220215 293.52375 
L 801.597462 282.32375 
L 801.97471 280.08375 
L 802.351958 291.28375 
L 802.729206 277.84375 
L 803.106454 304.72375 
L 803.483702 291.28375 
L 803.86095 284.56375 
L 804.238198 291.28375 
L 804.615446 293.52375 
L 804.992694 280.08375 
L 805.369942 293.52375 
L 805.74719 295.76375 
L 806.124438 277.84375 
L 806.501686 311.44375 
L 806.878934 271.12375 
L 807.633429 300.24375 
L 808.010677 327.12375 
L 808.387925 291.28375 
L 808.765173 309.20375 
L 809.142421 295.76375 
L 809.519669 298.00375 
L 809.896917 306.96375 
L 810.274165 300.24375 
L 810.651413 298.00375 
L 811.028661 327.12375 
L 811.405909 277.84375 
L 811.783157 313.68375 
L 812.537653 322.64375 
L 812.914901 318.16375 
L 813.292149 318.16375 
L 813.669396 322.64375 
L 814.046644 336.08375 
L 814.423892 298.00375 
L 814.80114 327.12375 
L 815.178388 333.84375 
L 815.555636 313.68375 
L 815.932884 327.12375 
L 816.310132 327.12375 
L 816.68738 313.68375 
L 817.064628 336.08375 
L 817.441876 336.08375 
L 817.819124 340.56375 
L 818.196372 336.08375 
L 818.57362 324.88375 
L 818.950868 324.88375 
L 819.328116 336.08375 
L 819.705364 311.44375 
L 820.082611 311.44375 
L 820.459859 340.56375 
L 820.837107 336.08375 
L 821.214355 329.36375 
L 821.591603 329.36375 
L 821.968851 340.56375 
L 822.346099 327.12375 
L 822.723347 331.60375 
L 823.100595 322.64375 
L 823.477843 336.08375 
L 824.232339 336.08375 
L 824.609587 340.56375 
L 824.986835 331.60375 
L 825.364083 336.08375 
L 825.741331 336.08375 
L 826.118578 340.56375 
L 826.495826 336.08375 
L 826.873074 340.56375 
L 827.250322 336.08375 
L 827.62757 340.56375 
L 828.004818 340.56375 
L 828.382066 331.60375 
L 828.759314 336.08375 
L 829.136562 336.08375 
L 829.51381 340.56375 
L 829.891058 340.56375 
L 830.268306 336.08375 
L 830.645554 340.56375 
L 831.022802 340.56375 
L 831.40005 331.60375 
L 831.777298 340.56375 
L 832.154545 340.56375 
L 832.154545 340.56375 
" clip-path="url(#p2c07f7eb22)" style="fill: none; stroke: #ff0000; stroke-opacity: 0.6; stroke-width: 1.5; stroke-linecap: round"/>
   </g>
   <g id="line2d_18">
    <path d="M 71.245455 320.40375 
L 71.622702 315.92375 
L 71.99995 340.56375 
L 72.377198 331.60375 
L 73.131694 336.08375 
L 73.508942 324.88375 
L 73.88619 340.56375 
L 74.263438 336.08375 
L 74.640686 340.56375 
L 76.149678 340.56375 
L 76.526926 336.08375 
L 76.904174 336.08375 
L 77.281422 331.60375 
L 77.658669 340.56375 
L 78.035917 336.08375 
L 78.413165 340.56375 
L 79.544909 340.56375 
L 79.922157 336.08375 
L 81.053901 336.08375 
L 81.431149 340.56375 
L 82.185645 340.56375 
L 82.562893 336.08375 
L 82.940141 340.56375 
L 83.317389 336.08375 
L 83.694636 340.56375 
L 86.335372 340.56375 
L 86.71262 331.60375 
L 87.089868 340.56375 
L 98.030058 340.56375 
L 98.407306 336.08375 
L 98.784554 340.56375 
L 105.952265 340.56375 
L 106.329513 336.08375 
L 106.706761 340.56375 
L 107.084009 340.56375 
L 107.461257 336.08375 
L 107.838505 340.56375 
L 108.215752 336.08375 
L 108.593 336.08375 
L 108.970248 340.56375 
L 109.347496 331.60375 
L 109.724744 336.08375 
L 110.101992 336.08375 
L 110.47924 331.60375 
L 110.856488 336.08375 
L 111.233736 327.12375 
L 111.610984 336.08375 
L 111.988232 336.08375 
L 112.36548 340.56375 
L 112.742728 340.56375 
L 113.119976 322.64375 
L 113.497224 322.64375 
L 113.874472 327.12375 
L 114.251719 336.08375 
L 114.628967 336.08375 
L 115.006215 340.56375 
L 115.760711 331.60375 
L 116.137959 318.16375 
L 116.892455 338.32375 
L 117.269703 338.32375 
L 117.646951 340.56375 
L 118.024199 336.08375 
L 118.401447 327.12375 
L 118.778695 336.08375 
L 119.155943 331.60375 
L 119.910439 331.60375 
L 120.287686 336.08375 
L 122.551174 336.08375 
L 122.928422 327.12375 
L 123.30567 331.60375 
L 123.682918 331.60375 
L 124.437414 340.56375 
L 124.814662 340.56375 
L 125.19191 331.60375 
L 125.569158 331.60375 
L 125.946406 340.56375 
L 126.323653 331.60375 
L 126.700901 340.56375 
L 127.455397 340.56375 
L 127.832645 338.32375 
L 128.209893 333.84375 
L 128.587141 340.56375 
L 129.341637 340.56375 
L 129.718885 336.08375 
L 130.096133 340.56375 
L 130.473381 331.60375 
L 130.850629 331.60375 
L 131.227877 340.56375 
L 131.605125 331.60375 
L 132.35962 331.60375 
L 132.736868 336.08375 
L 133.114116 324.88375 
L 133.491364 324.88375 
L 133.868612 336.08375 
L 134.24586 327.12375 
L 134.623108 336.08375 
L 135.000356 331.60375 
L 135.377604 340.56375 
L 135.754852 327.12375 
L 136.509348 336.08375 
L 136.886596 338.32375 
L 137.263844 333.84375 
L 137.641092 340.56375 
L 138.01834 336.08375 
L 138.395588 340.56375 
L 138.772835 340.56375 
L 139.150083 331.60375 
L 139.527331 340.56375 
L 139.904579 340.56375 
L 140.281827 336.08375 
L 140.659075 340.56375 
L 141.036323 340.56375 
L 141.413571 331.60375 
L 141.790819 331.60375 
L 142.168067 336.08375 
L 142.922563 336.08375 
L 143.299811 331.60375 
L 143.677059 340.56375 
L 144.054307 336.08375 
L 144.431555 329.36375 
L 144.808802 338.32375 
L 145.18605 340.56375 
L 145.563298 336.08375 
L 145.940546 340.56375 
L 146.317794 336.08375 
L 146.695042 327.12375 
L 147.07229 327.12375 
L 147.449538 329.36375 
L 147.826786 333.84375 
L 148.204034 336.08375 
L 148.581282 331.60375 
L 148.95853 340.56375 
L 149.335778 336.08375 
L 149.713026 340.56375 
L 150.844769 340.56375 
L 151.222017 336.08375 
L 152.353761 336.08375 
L 152.731009 340.56375 
L 153.108257 336.08375 
L 153.485505 340.56375 
L 153.862753 336.08375 
L 154.617249 336.08375 
L 154.994497 331.60375 
L 155.748993 340.56375 
L 156.126241 340.56375 
L 156.503489 336.08375 
L 156.880736 340.56375 
L 158.389728 340.56375 
L 158.766976 336.08375 
L 159.144224 340.56375 
L 159.89872 340.56375 
L 160.275968 336.08375 
L 160.653216 336.08375 
L 161.030464 340.56375 
L 162.539456 340.56375 
L 162.916703 336.08375 
L 163.293951 340.56375 
L 165.557439 340.56375 
L 165.934687 336.08375 
L 166.311935 340.56375 
L 167.820927 340.56375 
L 168.198175 336.08375 
L 168.575423 340.56375 
L 168.95267 336.08375 
L 169.329918 340.56375 
L 170.461662 340.56375 
L 170.83891 336.08375 
L 171.216158 340.56375 
L 171.593406 331.60375 
L 172.347902 340.56375 
L 181.024604 340.56375 
L 181.401852 336.08375 
L 181.7791 340.56375 
L 215.354167 340.56375 
L 215.731415 331.60375 
L 216.108663 340.56375 
L 216.485911 336.08375 
L 216.863159 336.08375 
L 217.240407 340.56375 
L 217.994902 340.56375 
L 218.37215 329.36375 
L 218.749398 333.84375 
L 219.126646 336.08375 
L 219.503894 340.56375 
L 219.881142 340.56375 
L 220.25839 336.08375 
L 220.635638 327.12375 
L 221.012886 340.56375 
L 221.390134 331.60375 
L 222.14463 340.56375 
L 222.899126 340.56375 
L 223.276374 336.08375 
L 223.653621 340.56375 
L 225.539861 340.56375 
L 225.917109 336.08375 
L 226.294357 336.08375 
L 226.671605 340.56375 
L 227.048853 336.08375 
L 227.426101 336.08375 
L 227.803349 340.56375 
L 228.180597 336.08375 
L 228.557845 340.56375 
L 228.935093 318.16375 
L 229.312341 336.08375 
L 229.689588 340.56375 
L 233.462068 340.56375 
L 233.839316 338.32375 
L 234.97106 338.32375 
L 235.348308 331.60375 
L 235.725556 340.56375 
L 236.102803 336.08375 
L 236.480051 340.56375 
L 236.857299 336.08375 
L 237.611795 336.08375 
L 237.989043 340.56375 
L 238.366291 336.08375 
L 238.743539 340.56375 
L 239.120787 340.56375 
L 239.498035 336.08375 
L 239.875283 340.56375 
L 240.252531 331.60375 
L 240.629779 340.56375 
L 241.007027 340.56375 
L 241.384275 336.08375 
L 241.761523 333.84375 
L 242.13877 333.84375 
L 242.516018 336.08375 
L 242.893266 329.36375 
L 243.270514 338.32375 
L 243.647762 331.60375 
L 244.02501 340.56375 
L 244.779506 340.56375 
L 245.156754 336.08375 
L 245.534002 336.08375 
L 245.91125 340.56375 
L 247.420242 340.56375 
L 247.79749 331.60375 
L 248.174737 340.56375 
L 249.306481 340.56375 
L 249.683729 338.32375 
L 250.060977 331.60375 
L 250.438225 333.84375 
L 250.815473 340.56375 
L 251.192721 340.56375 
L 251.947217 331.60375 
L 252.324465 340.56375 
L 252.701713 336.08375 
L 253.833457 336.08375 
L 254.210704 340.56375 
L 254.587952 336.08375 
L 254.9652 340.56375 
L 255.342448 336.08375 
L 255.719696 340.56375 
L 256.096944 331.60375 
L 256.474192 336.08375 
L 257.228688 336.08375 
L 257.605936 340.56375 
L 257.983184 336.08375 
L 258.73768 336.08375 
L 259.114928 338.32375 
L 259.492176 338.32375 
L 259.869424 336.08375 
L 260.246671 331.60375 
L 260.623919 340.56375 
L 261.755663 340.56375 
L 262.132911 338.32375 
L 262.510159 333.84375 
L 262.887407 331.60375 
L 263.264655 340.56375 
L 263.641903 331.60375 
L 264.019151 340.56375 
L 265.528143 340.56375 
L 265.905391 336.08375 
L 266.282638 340.56375 
L 266.659886 340.56375 
L 267.037134 336.08375 
L 267.414382 340.56375 
L 267.79163 340.56375 
L 268.168878 336.08375 
L 268.546126 340.56375 
L 271.941358 340.56375 
L 272.318605 322.64375 
L 272.695853 340.56375 
L 273.073101 336.08375 
L 273.450349 340.56375 
L 274.204845 340.56375 
L 274.582093 336.08375 
L 274.959341 336.08375 
L 275.336589 340.56375 
L 279.486316 340.56375 
L 279.863564 336.08375 
L 280.240812 340.56375 
L 288.163019 340.56375 
L 288.540267 336.08375 
L 288.917515 340.56375 
L 320.229094 340.56375 
L 320.606342 336.08375 
L 320.983589 340.56375 
L 321.360837 331.60375 
L 321.738085 331.60375 
L 322.492581 340.56375 
L 322.869829 336.08375 
L 323.247077 340.56375 
L 323.624325 340.56375 
L 324.001573 333.84375 
L 324.378821 338.32375 
L 324.756069 336.08375 
L 325.133317 340.56375 
L 325.887813 340.56375 
L 326.265061 336.08375 
L 327.396804 336.08375 
L 327.774052 340.56375 
L 328.528548 331.60375 
L 328.905796 318.16375 
L 329.283044 295.76375 
L 329.660292 322.64375 
L 330.03754 336.08375 
L 330.414788 327.12375 
L 331.169284 327.12375 
L 331.546532 315.92375 
L 332.301028 315.92375 
L 332.678276 306.96375 
L 333.055524 315.92375 
L 333.432771 304.72375 
L 333.810019 320.40375 
L 334.187267 304.72375 
L 334.941763 257.68375 
L 335.319011 286.80375 
L 335.696259 284.56375 
L 336.073507 259.92375 
L 336.450755 277.84375 
L 336.828003 248.72375 
L 337.205251 239.76375 
L 337.582499 271.12375 
L 337.959747 264.40375 
L 338.336995 248.72375 
L 338.714243 264.40375 
L 339.091491 257.68375 
L 339.845986 235.28375 
L 340.223234 255.44375 
L 340.600482 230.80375 
L 340.97773 237.52375 
L 341.354978 215.12375 
L 341.732226 203.92375 
L 342.109474 210.64375 
L 342.486722 145.68375 
L 342.86397 145.68375 
L 343.241218 141.20375 
L 343.618466 132.24375 
L 343.995714 179.28375 
L 344.372962 165.84375 
L 344.75021 177.04375 
L 345.127458 174.80375 
L 345.504705 138.96375 
L 345.881953 197.20375 
L 346.636449 159.12375 
L 347.013697 165.84375 
L 347.390945 181.52375 
L 347.768193 230.80375 
L 348.145441 212.88375 
L 348.522689 237.52375 
L 348.899937 226.32375 
L 349.277185 208.40375 
L 349.654433 239.76375 
L 350.031681 239.76375 
L 350.408929 206.16375 
L 350.786177 239.76375 
L 351.163425 224.08375 
L 351.540672 246.48375 
L 351.91792 221.84375 
L 352.295168 215.12375 
L 352.672416 255.44375 
L 353.049664 217.36375 
L 353.426912 253.20375 
L 353.80416 257.68375 
L 354.181408 253.20375 
L 354.558656 237.52375 
L 354.935904 248.72375 
L 355.313152 266.64375 
L 355.6904 235.28375 
L 356.067648 230.80375 
L 356.444896 230.80375 
L 356.822144 266.64375 
L 357.199392 244.24375 
L 357.576639 257.68375 
L 357.953887 266.64375 
L 358.708383 230.80375 
L 359.085631 255.44375 
L 359.840127 259.92375 
L 360.594623 217.36375 
L 360.971871 221.84375 
L 361.349119 228.56375 
L 361.726367 233.04375 
L 362.103615 212.88375 
L 362.480863 221.84375 
L 362.858111 248.72375 
L 363.612606 228.56375 
L 363.989854 235.28375 
L 364.367102 217.36375 
L 364.74435 255.44375 
L 365.121598 192.72375 
L 365.876094 244.24375 
L 366.253342 259.92375 
L 366.63059 257.68375 
L 367.007838 286.80375 
L 367.385086 268.88375 
L 367.762334 221.84375 
L 368.139582 248.72375 
L 368.51683 244.24375 
L 368.894078 253.20375 
L 369.271326 273.36375 
L 369.648573 233.04375 
L 370.025821 100.88375 
L 370.403069 98.64375 
L 370.780317 116.56375 
L 371.157565 91.92375 
L 371.534813 91.92375 
L 371.912061 78.48375 
L 372.289309 74.00375 
L 372.666557 76.24375 
L 373.043805 44.88375 
L 373.421053 87.44375 
L 373.798301 87.44375 
L 374.175549 82.96375 
L 374.552797 87.44375 
L 375.307293 51.60375 
L 375.68454 87.44375 
L 376.061788 87.44375 
L 376.439036 103.12375 
L 376.816284 56.08375 
L 377.193532 116.56375 
L 377.57078 85.20375 
L 377.948028 172.56375 
L 378.325276 208.40375 
L 378.702524 192.72375 
L 379.079772 242.00375 
L 379.45702 237.52375 
L 379.834268 201.68375 
L 380.211516 215.12375 
L 380.588764 217.36375 
L 380.966012 233.04375 
L 381.34326 228.56375 
L 381.720508 273.36375 
L 382.097755 266.64375 
L 382.475003 266.64375 
L 382.852251 289.04375 
L 383.606747 293.52375 
L 383.983995 248.72375 
L 384.361243 282.32375 
L 385.115739 282.32375 
L 385.492987 289.04375 
L 385.870235 293.52375 
L 386.247483 300.24375 
L 386.624731 264.40375 
L 387.001979 291.28375 
L 387.379227 266.64375 
L 387.756475 309.20375 
L 388.133722 302.48375 
L 388.51097 315.92375 
L 388.888218 315.92375 
L 389.265466 295.76375 
L 389.642714 304.72375 
L 390.019962 295.76375 
L 390.39721 313.68375 
L 390.774458 306.96375 
L 391.151706 331.60375 
L 391.528954 311.44375 
L 392.28345 336.08375 
L 392.660698 331.60375 
L 393.037946 322.64375 
L 393.415194 336.08375 
L 393.792442 331.60375 
L 394.169689 322.64375 
L 394.546937 327.12375 
L 394.924185 322.64375 
L 395.301433 331.60375 
L 395.678681 327.12375 
L 396.055929 327.12375 
L 396.433177 336.08375 
L 396.810425 318.16375 
L 397.187673 322.64375 
L 397.564921 333.84375 
L 397.942169 329.36375 
L 398.319417 336.08375 
L 398.696665 327.12375 
L 399.073913 336.08375 
L 399.451161 318.16375 
L 399.828409 331.60375 
L 400.205656 331.60375 
L 400.960152 322.64375 
L 401.3374 336.08375 
L 401.714648 331.60375 
L 402.091896 340.56375 
L 402.469144 327.12375 
L 402.846392 340.56375 
L 403.22364 336.08375 
L 403.978136 336.08375 
L 404.355384 338.32375 
L 404.732632 333.84375 
L 405.10988 336.08375 
L 405.487128 336.08375 
L 405.864376 331.60375 
L 406.241623 340.56375 
L 406.618871 336.08375 
L 406.996119 336.08375 
L 407.373367 340.56375 
L 409.259607 340.56375 
L 409.636855 336.08375 
L 410.014103 340.56375 
L 424.349524 340.56375 
L 424.726772 336.08375 
L 425.10402 340.56375 
L 428.8765 340.56375 
L 429.253748 336.08375 
L 429.630996 336.08375 
L 430.008244 331.60375 
L 430.385492 340.56375 
L 430.762739 329.36375 
L 431.139987 333.84375 
L 431.517235 340.56375 
L 431.894483 327.12375 
L 432.271731 340.56375 
L 432.648979 340.56375 
L 433.026227 322.64375 
L 433.403475 336.08375 
L 433.780723 340.56375 
L 434.157971 327.12375 
L 434.535219 340.56375 
L 434.912467 336.08375 
L 435.289715 340.56375 
L 435.666963 322.64375 
L 436.044211 340.56375 
L 436.421459 331.60375 
L 436.798706 327.12375 
L 437.175954 336.08375 
L 437.553202 340.56375 
L 437.93045 315.92375 
L 438.307698 333.84375 
L 438.684946 327.12375 
L 439.062194 331.60375 
L 439.439442 318.16375 
L 439.81669 333.84375 
L 440.193938 324.88375 
L 440.571186 300.24375 
L 440.948434 298.00375 
L 441.70293 318.16375 
L 442.080178 302.48375 
L 442.457426 315.92375 
L 442.834673 300.24375 
L 443.211921 304.72375 
L 443.589169 293.52375 
L 443.966417 306.96375 
L 444.343665 306.96375 
L 444.720913 300.24375 
L 445.098161 286.80375 
L 445.475409 277.84375 
L 446.229905 268.88375 
L 446.607153 259.92375 
L 446.984401 271.12375 
L 447.361649 230.80375 
L 447.738897 221.84375 
L 448.116145 262.16375 
L 448.493393 237.52375 
L 448.87064 268.88375 
L 449.247888 255.44375 
L 449.625136 257.68375 
L 450.002384 228.56375 
L 450.379632 262.16375 
L 451.134128 201.68375 
L 451.511376 152.40375 
L 451.888624 159.12375 
L 452.265872 152.40375 
L 452.64312 125.52375 
L 453.020368 152.40375 
L 453.397616 165.84375 
L 453.774864 161.36375 
L 454.152112 152.40375 
L 454.52936 163.60375 
L 454.906607 183.76375 
L 455.283855 177.04375 
L 455.661103 179.28375 
L 456.038351 201.68375 
L 456.415599 199.44375 
L 456.792847 215.12375 
L 457.170095 224.08375 
L 457.547343 224.08375 
L 457.924591 244.24375 
L 458.301839 235.28375 
L 458.679087 246.48375 
L 459.056335 246.48375 
L 459.433583 253.20375 
L 459.810831 255.44375 
L 460.188079 255.44375 
L 460.565327 224.08375 
L 460.942574 280.08375 
L 461.319822 248.72375 
L 461.69707 268.88375 
L 462.074318 237.52375 
L 462.451566 233.04375 
L 462.828814 226.32375 
L 463.206062 246.48375 
L 463.58331 248.72375 
L 463.960558 284.56375 
L 464.337806 244.24375 
L 464.715054 246.48375 
L 465.092302 242.00375 
L 465.46955 253.20375 
L 465.846798 248.72375 
L 466.601294 212.88375 
L 466.978541 212.88375 
L 467.355789 237.52375 
L 467.733037 235.28375 
L 468.110285 237.52375 
L 468.487533 246.48375 
L 468.864781 259.92375 
L 469.242029 221.84375 
L 470.373773 268.88375 
L 470.751021 224.08375 
L 471.128269 221.84375 
L 471.505517 259.92375 
L 471.882765 237.52375 
L 472.260013 230.80375 
L 472.637261 242.00375 
L 473.014508 219.60375 
L 473.391756 266.64375 
L 473.769004 248.72375 
L 474.146252 217.36375 
L 474.5235 228.56375 
L 474.900748 271.12375 
L 475.277996 219.60375 
L 475.655244 264.40375 
L 476.032492 246.48375 
L 476.786988 228.56375 
L 477.164236 237.52375 
L 477.541484 257.68375 
L 477.918732 224.08375 
L 478.29598 237.52375 
L 478.673228 98.64375 
L 479.050476 138.96375 
L 479.804971 105.36375 
L 480.182219 69.52375 
L 480.559467 62.80375 
L 480.936715 67.28375 
L 481.313963 60.56375 
L 481.691211 76.24375 
L 482.068459 76.24375 
L 482.822955 56.08375 
L 483.200203 76.24375 
L 483.577451 62.80375 
L 483.954699 80.72375 
L 484.331947 82.96375 
L 484.709195 78.48375 
L 485.086443 62.80375 
L 485.46369 103.12375 
L 485.840938 107.60375 
L 486.595434 199.44375 
L 486.972682 206.16375 
L 487.34993 230.80375 
L 487.727178 226.32375 
L 488.104426 199.44375 
L 488.481674 242.00375 
L 488.858922 233.04375 
L 489.23617 233.04375 
L 489.613418 284.56375 
L 489.990666 259.92375 
L 490.367914 277.84375 
L 490.745162 266.64375 
L 491.12241 268.88375 
L 491.499657 262.16375 
L 491.876905 268.88375 
L 492.254153 255.44375 
L 493.008649 286.80375 
L 493.385897 277.84375 
L 494.140393 282.32375 
L 494.517641 275.60375 
L 494.894889 264.40375 
L 495.272137 286.80375 
L 495.649385 302.48375 
L 496.026633 302.48375 
L 496.403881 289.04375 
L 496.781129 268.88375 
L 497.535624 318.16375 
L 497.912872 291.28375 
L 498.29012 313.68375 
L 499.044616 313.68375 
L 499.421864 320.40375 
L 499.799112 320.40375 
L 500.17636 306.96375 
L 500.553608 327.12375 
L 500.930856 329.36375 
L 501.308104 306.96375 
L 501.685352 322.64375 
L 502.0626 309.20375 
L 502.439848 304.72375 
L 502.817096 320.40375 
L 503.194344 329.36375 
L 503.571591 329.36375 
L 503.948839 320.40375 
L 504.326087 336.08375 
L 504.703335 327.12375 
L 505.080583 322.64375 
L 505.457831 340.56375 
L 505.835079 322.64375 
L 506.212327 322.64375 
L 506.589575 331.60375 
L 506.966823 327.12375 
L 507.344071 318.16375 
L 507.721319 331.60375 
L 508.475815 340.56375 
L 508.853063 331.60375 
L 509.230311 331.60375 
L 509.607558 327.12375 
L 509.984806 331.60375 
L 510.362054 338.32375 
L 510.739302 324.88375 
L 511.11655 331.60375 
L 511.493798 340.56375 
L 512.625542 340.56375 
L 513.00279 338.32375 
L 513.380038 338.32375 
L 513.757286 340.56375 
L 514.134534 336.08375 
L 514.511782 340.56375 
L 514.88903 336.08375 
L 515.266278 340.56375 
L 515.643525 340.56375 
L 516.020773 331.60375 
L 516.398021 340.56375 
L 516.775269 336.08375 
L 517.152517 340.56375 
L 517.529765 336.08375 
L 517.907013 340.56375 
L 518.284261 340.56375 
L 518.661509 336.08375 
L 519.038757 336.08375 
L 519.416005 340.56375 
L 519.793253 336.08375 
L 520.170501 340.56375 
L 520.547749 340.56375 
L 520.924997 336.08375 
L 521.302245 336.08375 
L 521.679492 340.56375 
L 525.074724 340.56375 
L 525.451972 331.60375 
L 525.82922 340.56375 
L 527.338212 340.56375 
L 527.71546 336.08375 
L 528.092707 340.56375 
L 531.865187 340.56375 
L 532.242435 336.08375 
L 532.619683 340.56375 
L 537.146658 340.56375 
L 537.523906 336.08375 
L 537.901154 336.08375 
L 538.278402 340.56375 
L 538.65565 327.12375 
L 539.032898 336.08375 
L 539.410146 318.16375 
L 539.787394 336.08375 
L 540.541889 336.08375 
L 540.919137 340.56375 
L 541.296385 331.60375 
L 541.673633 340.56375 
L 542.050881 327.12375 
L 542.428129 340.56375 
L 542.805377 340.56375 
L 543.182625 336.08375 
L 543.559873 340.56375 
L 543.937121 340.56375 
L 544.314369 336.08375 
L 544.691617 327.12375 
L 545.068865 340.56375 
L 545.446113 336.08375 
L 545.823361 340.56375 
L 546.577856 324.88375 
L 546.955104 324.88375 
L 547.7096 333.84375 
L 548.086848 322.64375 
L 548.464096 322.64375 
L 548.841344 318.16375 
L 549.218592 322.64375 
L 549.59584 331.60375 
L 549.973088 304.72375 
L 550.350336 313.68375 
L 550.727584 318.16375 
L 551.104832 309.20375 
L 551.48208 309.20375 
L 551.859328 318.16375 
L 552.236575 295.76375 
L 552.613823 327.12375 
L 553.368319 259.92375 
L 553.745567 280.08375 
L 554.122815 286.80375 
L 554.500063 280.08375 
L 554.877311 268.88375 
L 555.254559 250.96375 
L 555.631807 275.60375 
L 556.009055 255.44375 
L 556.386303 262.16375 
L 556.763551 253.20375 
L 557.140799 275.60375 
L 557.518047 262.16375 
L 557.895295 264.40375 
L 558.272542 264.40375 
L 558.64979 230.80375 
L 559.027038 253.20375 
L 559.404286 208.40375 
L 559.781534 192.72375 
L 560.53603 145.68375 
L 560.913278 168.08375 
L 561.290526 141.20375 
L 561.667774 172.56375 
L 562.045022 286.80375 
L 562.42227 271.12375 
L 562.799518 170.32375 
L 563.554014 203.92375 
L 563.931262 170.32375 
L 564.308509 194.96375 
L 564.685757 206.16375 
L 565.063005 190.48375 
L 565.440253 192.72375 
L 565.817501 197.20375 
L 566.194749 250.96375 
L 566.571997 250.96375 
L 566.949245 246.48375 
L 567.326493 266.64375 
L 567.703741 246.48375 
L 568.080989 259.92375 
L 568.458237 248.72375 
L 568.835485 257.68375 
L 569.212733 221.84375 
L 569.589981 235.28375 
L 569.967229 253.20375 
L 570.344476 233.04375 
L 570.721724 237.52375 
L 571.098972 239.76375 
L 571.47622 262.16375 
L 571.853468 228.56375 
L 572.230716 217.36375 
L 572.607964 253.20375 
L 572.985212 219.60375 
L 573.36246 239.76375 
L 573.739708 203.92375 
L 574.116956 244.24375 
L 574.494204 199.44375 
L 574.871452 235.28375 
L 575.2487 239.76375 
L 575.625948 242.00375 
L 576.003196 224.08375 
L 576.757691 271.12375 
L 577.134939 248.72375 
L 577.889435 217.36375 
L 578.266683 244.24375 
L 578.643931 244.24375 
L 579.021179 253.20375 
L 579.398427 242.00375 
L 579.775675 215.12375 
L 580.152923 248.72375 
L 580.530171 248.72375 
L 580.907419 242.00375 
L 581.284667 237.52375 
L 581.661915 271.12375 
L 582.039163 230.80375 
L 582.416411 250.96375 
L 582.793658 262.16375 
L 583.170906 259.92375 
L 583.548154 248.72375 
L 583.925402 242.00375 
L 584.30265 208.40375 
L 584.679898 226.32375 
L 585.057146 266.64375 
L 585.434394 253.20375 
L 585.811642 264.40375 
L 586.18889 253.20375 
L 586.566138 257.68375 
L 587.320634 194.96375 
L 587.697882 134.48375 
L 588.07513 94.16375 
L 588.452378 100.88375 
L 588.829625 98.64375 
L 589.206873 94.16375 
L 589.584121 56.08375 
L 589.961369 56.08375 
L 590.338617 51.60375 
L 590.715865 65.04375 
L 591.093113 42.64375 
L 591.470361 62.80375 
L 591.847609 58.32375 
L 592.224857 47.12375 
L 592.602105 56.08375 
L 592.979353 74.00375 
L 593.356601 78.48375 
L 593.733849 100.88375 
L 594.111097 94.16375 
L 594.488345 91.92375 
L 594.865592 112.08375 
L 595.24284 201.68375 
L 595.997336 228.56375 
L 596.374584 226.32375 
L 596.751832 210.64375 
L 597.12908 257.68375 
L 597.506328 226.32375 
L 597.883576 262.16375 
L 598.260824 264.40375 
L 598.638072 257.68375 
L 599.01532 255.44375 
L 599.392568 275.60375 
L 599.769816 282.32375 
L 600.147064 280.08375 
L 600.524312 280.08375 
L 601.656055 250.96375 
L 602.033303 295.76375 
L 602.410551 300.24375 
L 602.787799 289.04375 
L 603.165047 264.40375 
L 603.542295 289.04375 
L 603.919543 298.00375 
L 604.296791 284.56375 
L 604.674039 309.20375 
L 605.051287 304.72375 
L 605.428535 295.76375 
L 605.805783 304.72375 
L 606.560279 289.04375 
L 606.937526 311.44375 
L 607.314774 320.40375 
L 607.692022 311.44375 
L 608.06927 315.92375 
L 608.446518 313.68375 
L 608.823766 324.88375 
L 609.201014 311.44375 
L 609.578262 315.92375 
L 609.95551 322.64375 
L 610.332758 327.12375 
L 610.710006 327.12375 
L 611.087254 315.92375 
L 611.464502 320.40375 
L 611.84175 322.64375 
L 612.218998 327.12375 
L 612.973493 327.12375 
L 613.350741 322.64375 
L 613.727989 327.12375 
L 614.105237 327.12375 
L 614.482485 340.56375 
L 614.859733 322.64375 
L 615.236981 322.64375 
L 615.614229 329.36375 
L 615.991477 327.12375 
L 616.368725 329.36375 
L 616.745973 327.12375 
L 617.123221 331.60375 
L 617.500469 331.60375 
L 617.877717 327.12375 
L 618.254965 340.56375 
L 619.00946 331.60375 
L 619.386708 340.56375 
L 619.763956 331.60375 
L 620.141204 336.08375 
L 620.518452 331.60375 
L 620.8957 340.56375 
L 621.272948 336.08375 
L 621.650196 340.56375 
L 622.027444 336.08375 
L 622.404692 340.56375 
L 623.913684 340.56375 
L 624.290932 336.08375 
L 624.66818 340.56375 
L 625.045428 336.08375 
L 625.422675 340.56375 
L 625.799923 336.08375 
L 626.177171 340.56375 
L 630.326899 340.56375 
L 630.704147 336.08375 
L 631.081395 340.56375 
L 637.494609 340.56375 
L 637.871857 336.08375 
L 638.249105 340.56375 
L 644.66232 340.56375 
L 645.039568 336.08375 
L 645.416816 340.56375 
L 646.925808 340.56375 
L 647.303056 327.12375 
L 647.680304 340.56375 
L 648.057552 322.64375 
L 648.4348 336.08375 
L 648.812048 336.08375 
L 649.189296 331.60375 
L 649.566543 331.60375 
L 649.943791 336.08375 
L 650.321039 336.08375 
L 650.698287 340.56375 
L 651.075535 340.56375 
L 651.452783 336.08375 
L 652.584527 336.08375 
L 652.961775 329.36375 
L 653.339023 329.36375 
L 653.716271 340.56375 
L 654.093519 340.56375 
L 654.470767 336.08375 
L 654.848015 327.12375 
L 655.225263 336.08375 
L 655.60251 327.12375 
L 655.979758 331.60375 
L 656.357006 331.60375 
L 656.734254 324.88375 
L 657.111502 311.44375 
L 657.48875 322.64375 
L 658.243246 304.72375 
L 658.620494 313.68375 
L 658.997742 313.68375 
L 659.37499 306.96375 
L 659.752238 302.48375 
L 660.129486 333.84375 
L 660.506734 306.96375 
L 660.883982 306.96375 
L 661.26123 298.00375 
L 661.638477 280.08375 
L 662.015725 302.48375 
L 662.392973 277.84375 
L 662.770221 266.64375 
L 663.147469 289.04375 
L 663.524717 273.36375 
L 663.901965 273.36375 
L 664.279213 250.96375 
L 664.656461 257.68375 
L 665.033709 271.12375 
L 665.788205 262.16375 
L 666.542701 244.24375 
L 666.919949 255.44375 
L 667.297197 237.52375 
L 667.674444 246.48375 
L 668.051692 163.60375 
L 668.42894 170.32375 
L 668.806188 127.76375 
L 669.183436 150.16375 
L 669.560684 125.52375 
L 669.937932 109.84375 
L 670.31518 174.80375 
L 670.692428 183.76375 
L 671.069676 114.32375 
L 671.446924 201.68375 
L 671.824172 192.72375 
L 672.20142 156.88375 
L 672.578668 188.24375 
L 672.955916 208.40375 
L 673.333164 183.76375 
L 673.710412 217.36375 
L 674.087659 233.04375 
L 674.464907 217.36375 
L 674.842155 230.80375 
L 675.219403 239.76375 
L 675.973899 239.76375 
L 676.351147 230.80375 
L 676.728395 257.68375 
L 677.105643 273.36375 
L 677.482891 233.04375 
L 677.860139 230.80375 
L 678.237387 253.20375 
L 678.614635 224.08375 
L 678.991883 244.24375 
L 679.369131 228.56375 
L 679.746379 226.32375 
L 680.123626 217.36375 
L 680.500874 217.36375 
L 680.878122 277.84375 
L 681.25537 244.24375 
L 681.632618 255.44375 
L 682.009866 226.32375 
L 682.387114 264.40375 
L 682.764362 237.52375 
L 683.14161 255.44375 
L 683.896106 239.76375 
L 684.273354 268.88375 
L 684.650602 253.20375 
L 685.02785 273.36375 
L 685.405098 268.88375 
L 685.782346 266.64375 
L 686.159593 266.64375 
L 686.536841 226.32375 
L 686.914089 242.00375 
L 687.291337 268.88375 
L 687.668585 228.56375 
L 688.423081 246.48375 
L 689.177577 212.88375 
L 689.554825 250.96375 
L 689.932073 264.40375 
L 690.309321 253.20375 
L 690.686569 259.92375 
L 691.063817 237.52375 
L 691.441065 257.68375 
L 691.818313 228.56375 
L 692.19556 271.12375 
L 692.572808 255.44375 
L 692.950056 262.16375 
L 693.327304 259.92375 
L 694.0818 246.48375 
L 694.459048 277.84375 
L 694.836296 242.00375 
L 695.213544 248.72375 
L 695.590792 253.20375 
L 695.96804 138.96375 
L 696.345288 60.56375 
L 696.722536 76.24375 
L 697.099784 130.00375 
L 697.477032 89.68375 
L 697.85428 85.20375 
L 698.231527 38.16375 
L 698.608775 56.08375 
L 698.986023 58.32375 
L 699.363271 65.04375 
L 699.740519 51.60375 
L 700.117767 98.64375 
L 700.495015 42.64375 
L 700.872263 49.36375 
L 701.249511 74.00375 
L 701.626759 74.00375 
L 702.004007 62.80375 
L 702.381255 71.76375 
L 702.758503 87.44375 
L 703.135751 152.40375 
L 703.512999 145.68375 
L 703.890247 179.28375 
L 704.267494 188.24375 
L 704.644742 224.08375 
L 705.02199 217.36375 
L 705.399238 233.04375 
L 705.776486 239.76375 
L 706.153734 266.64375 
L 706.530982 246.48375 
L 706.90823 255.44375 
L 707.285478 271.12375 
L 707.662726 268.88375 
L 708.039974 246.48375 
L 708.417222 257.68375 
L 708.79447 275.60375 
L 709.171718 282.32375 
L 709.548966 295.76375 
L 709.926214 289.04375 
L 710.303461 295.76375 
L 710.680709 264.40375 
L 711.057957 284.56375 
L 711.812453 284.56375 
L 712.189701 311.44375 
L 712.566949 284.56375 
L 712.944197 286.80375 
L 713.321445 302.48375 
L 713.698693 293.52375 
L 714.075941 304.72375 
L 714.453189 293.52375 
L 714.830437 306.96375 
L 715.207685 306.96375 
L 715.584933 327.12375 
L 715.962181 300.24375 
L 716.339428 313.68375 
L 716.716676 322.64375 
L 717.093924 306.96375 
L 717.471172 300.24375 
L 718.225668 320.40375 
L 718.602916 331.60375 
L 718.980164 320.40375 
L 719.357412 320.40375 
L 719.73466 336.08375 
L 720.111908 322.64375 
L 720.489156 318.16375 
L 720.866404 327.12375 
L 721.243652 331.60375 
L 721.6209 327.12375 
L 721.998148 331.60375 
L 722.375396 318.16375 
L 722.752643 340.56375 
L 723.129891 313.68375 
L 723.507139 327.12375 
L 724.261635 336.08375 
L 724.638883 327.12375 
L 725.016131 327.12375 
L 725.770627 336.08375 
L 726.147875 331.60375 
L 726.525123 340.56375 
L 726.902371 336.08375 
L 727.279619 336.08375 
L 727.656867 331.60375 
L 728.411363 340.56375 
L 728.78861 329.36375 
L 729.165858 338.32375 
L 729.543106 336.08375 
L 729.920354 336.08375 
L 730.297602 329.36375 
L 730.67485 333.84375 
L 731.052098 340.56375 
L 731.806594 331.60375 
L 732.183842 340.56375 
L 732.938338 340.56375 
L 733.692834 331.60375 
L 734.44733 340.56375 
L 735.201825 340.56375 
L 735.579073 336.08375 
L 735.956321 340.56375 
L 736.710817 340.56375 
L 737.088065 336.08375 
L 737.465313 340.56375 
L 740.860544 340.56375 
L 741.237792 336.08375 
L 741.61504 340.56375 
L 748.782751 340.56375 
L 749.159999 336.08375 
L 749.537247 340.56375 
L 755.195966 340.56375 
L 755.573214 336.08375 
L 755.950462 327.12375 
L 756.32771 340.56375 
L 757.082206 340.56375 
L 757.459454 327.12375 
L 757.836702 331.60375 
L 758.21395 324.88375 
L 758.591198 329.36375 
L 758.968445 340.56375 
L 759.345693 340.56375 
L 759.722941 327.12375 
L 760.100189 340.56375 
L 760.854685 340.56375 
L 761.231933 331.60375 
L 761.609181 340.56375 
L 762.363677 340.56375 
L 762.740925 331.60375 
L 763.118173 340.56375 
L 763.495421 340.56375 
L 763.872669 315.92375 
L 764.249917 324.88375 
L 764.627165 322.64375 
L 765.004412 331.60375 
L 765.758908 309.20375 
L 766.136156 315.92375 
L 766.513404 327.12375 
L 766.890652 322.64375 
L 767.2679 302.48375 
L 767.645148 313.68375 
L 768.022396 306.96375 
L 768.399644 295.76375 
L 768.776892 315.92375 
L 769.15414 293.52375 
L 769.531388 298.00375 
L 769.908636 304.72375 
L 770.285884 280.08375 
L 770.663132 282.32375 
L 771.04038 273.36375 
L 771.417627 284.56375 
L 771.794875 268.88375 
L 772.172123 266.64375 
L 772.549371 291.28375 
L 772.926619 280.08375 
L 773.303867 264.40375 
L 773.681115 273.36375 
L 774.058363 259.92375 
L 774.435611 298.00375 
L 774.812859 266.64375 
L 775.190107 253.20375 
L 775.567355 257.68375 
L 775.944603 255.44375 
L 776.321851 221.84375 
L 776.699099 210.64375 
L 777.453594 118.80375 
L 777.830842 125.52375 
L 778.20809 112.08375 
L 778.585338 147.92375 
L 778.962586 136.72375 
L 779.717082 172.56375 
L 780.09433 152.40375 
L 780.471578 163.60375 
L 780.848826 183.76375 
L 781.226074 170.32375 
L 781.603322 206.16375 
L 781.98057 201.68375 
L 782.357818 203.92375 
L 782.735066 210.64375 
L 783.112314 208.40375 
L 783.489561 217.36375 
L 783.866809 250.96375 
L 784.244057 233.04375 
L 784.621305 250.96375 
L 784.998553 217.36375 
L 785.375801 242.00375 
L 785.753049 246.48375 
L 786.130297 230.80375 
L 786.507545 201.68375 
L 786.884793 273.36375 
L 787.262041 255.44375 
L 787.639289 224.08375 
L 788.393785 266.64375 
L 788.771033 246.48375 
L 789.148281 302.48375 
L 789.525528 239.76375 
L 789.902776 275.60375 
L 790.280024 228.56375 
L 790.657272 233.04375 
L 791.03452 255.44375 
L 791.411768 242.00375 
L 791.789016 239.76375 
L 792.166264 257.68375 
L 792.543512 228.56375 
L 792.92076 219.60375 
L 793.298008 246.48375 
L 793.675256 257.68375 
L 794.052504 242.00375 
L 794.429752 242.00375 
L 794.807 277.84375 
L 795.184248 228.56375 
L 795.561495 255.44375 
L 795.938743 221.84375 
L 796.315991 242.00375 
L 796.693239 253.20375 
L 797.070487 242.00375 
L 797.447735 239.76375 
L 797.824983 264.40375 
L 798.202231 228.56375 
L 798.956727 289.04375 
L 799.333975 246.48375 
L 799.711223 237.52375 
L 800.088471 280.08375 
L 800.465719 284.56375 
L 801.220215 246.48375 
L 801.597462 239.76375 
L 801.97471 244.24375 
L 802.351958 259.92375 
L 802.729206 239.76375 
L 803.106454 248.72375 
L 803.483702 266.64375 
L 803.86095 255.44375 
L 804.238198 212.88375 
L 804.615446 112.08375 
L 804.992694 85.20375 
L 805.369942 109.84375 
L 805.74719 78.48375 
L 806.124438 60.56375 
L 806.501686 56.08375 
L 806.878934 53.84375 
L 807.256182 49.36375 
L 807.633429 76.24375 
L 808.010677 51.60375 
L 808.387925 38.16375 
L 808.765173 114.32375 
L 809.142421 103.12375 
L 809.519669 71.76375 
L 809.896917 100.88375 
L 810.651413 40.40375 
L 811.028661 116.56375 
L 811.405909 127.76375 
L 811.783157 109.84375 
L 812.160405 127.76375 
L 812.537653 208.40375 
L 812.914901 250.96375 
L 813.292149 230.80375 
L 813.669396 233.04375 
L 814.046644 239.76375 
L 814.423892 242.00375 
L 814.80114 239.76375 
L 815.178388 215.12375 
L 815.555636 282.32375 
L 815.932884 282.32375 
L 816.310132 268.88375 
L 816.68738 250.96375 
L 817.441876 302.48375 
L 817.819124 284.56375 
L 818.196372 302.48375 
L 818.57362 280.08375 
L 819.328116 313.68375 
L 820.082611 275.60375 
L 820.837107 318.16375 
L 821.214355 298.00375 
L 821.591603 315.92375 
L 821.968851 318.16375 
L 822.346099 318.16375 
L 822.723347 291.28375 
L 823.477843 329.36375 
L 823.855091 327.12375 
L 824.232339 322.64375 
L 824.609587 327.12375 
L 824.986835 336.08375 
L 825.364083 327.12375 
L 825.741331 313.68375 
L 826.118578 336.08375 
L 826.495826 331.60375 
L 826.873074 322.64375 
L 827.250322 327.12375 
L 827.62757 327.12375 
L 828.004818 322.64375 
L 828.382066 327.12375 
L 828.759314 324.88375 
L 829.136562 327.12375 
L 829.51381 331.60375 
L 829.891058 331.60375 
L 830.645554 340.56375 
L 831.022802 336.08375 
L 831.40005 340.56375 
L 831.40005 340.56375 
" clip-path="url(#p2c07f7eb22)" style="fill: none; stroke: #008000; stroke-opacity: 0.6; stroke-width: 1.5; stroke-linecap: round"/>
   </g>
   <g id="patch_3">
    <path d="M 33.2 355.68375 
L 33.2 23.04375 
" style="fill: none; stroke: #cccccc; stroke-width: 1.25; stroke-linejoin: miter; stroke-linecap: square"/>
   </g>
   <g id="patch_4">
    <path d="M 870.2 355.68375 
L 870.2 23.04375 
" style="fill: none; stroke: #cccccc; stroke-width: 1.25; stroke-linejoin: miter; stroke-linecap: square"/>
   </g>
   <g id="patch_5">
    <path d="M 33.2 355.68375 
L 870.2 355.68375 
" style="fill: none; stroke: #cccccc; stroke-width: 1.25; stroke-linejoin: miter; stroke-linecap: square"/>
   </g>
   <g id="patch_6">
    <path d="M 33.2 23.04375 
L 870.2 23.04375 
" style="fill: none; stroke: #cccccc; stroke-width: 1.25; stroke-linejoin: miter; stroke-linecap: square"/>
   </g>
   <g id="text_17">
    <!-- Task 2: Up vs Down Analysis -->
    <g style="fill: #262626" transform="translate(357.2 17.04375) scale(0.14 -0.14)">
     <defs>
      <path id="SimHei-54" d="M 2850 3925 
L 1850 3925 
L 1850 125 
L 1275 125 
L 1275 3925 
L 275 3925 
L 275 4400 
L 2850 4400 
L 2850 3925 
z
" transform="scale(0.015625)"/>
      <path id="SimHei-61" d="M 2875 125 
L 2275 125 
Q 2225 175 2200 262 
Q 2175 350 2175 475 
Q 2000 275 1750 175 
Q 1500 75 1225 75 
Q 825 75 550 275 
Q 275 475 275 850 
Q 275 1225 525 1450 
Q 775 1675 1300 1750 
Q 1650 1800 1912 1875 
Q 2175 1950 2175 2075 
Q 2175 2225 2062 2375 
Q 1950 2525 1575 2525 
Q 1275 2525 1137 2412 
Q 1000 2300 950 2100 
L 400 2100 
Q 450 2500 762 2737 
Q 1075 2975 1575 2975 
Q 2125 2975 2400 2725 
Q 2675 2475 2675 2025 
L 2675 650 
Q 2675 500 2725 375 
Q 2775 250 2875 125 
z
M 2175 1050 
L 2175 1550 
Q 2025 1500 1887 1462 
Q 1750 1425 1425 1375 
Q 1050 1325 937 1200 
Q 825 1075 825 900 
Q 825 750 937 637 
Q 1050 525 1275 525 
Q 1500 525 1762 650 
Q 2025 775 2175 1050 
z
" transform="scale(0.015625)"/>
      <path id="SimHei-73" d="M 2750 900 
Q 2750 500 2437 287 
Q 2125 75 1650 75 
Q 1050 75 725 312 
Q 400 550 400 1000 
L 900 1000 
Q 900 700 1112 600 
Q 1325 500 1625 500 
Q 1925 500 2075 612 
Q 2225 725 2225 900 
Q 2225 1025 2100 1150 
Q 1975 1275 1475 1350 
Q 900 1425 687 1637 
Q 475 1850 475 2200 
Q 475 2500 762 2737 
Q 1050 2975 1600 2975 
Q 2100 2975 2387 2750 
Q 2675 2525 2675 2150 
L 2175 2150 
Q 2175 2375 2012 2462 
Q 1850 2550 1600 2550 
Q 1275 2550 1137 2437 
Q 1000 2325 1000 2175 
Q 1000 2000 1125 1900 
Q 1250 1800 1650 1750 
Q 2300 1650 2525 1437 
Q 2750 1225 2750 900 
z
" transform="scale(0.015625)"/>
      <path id="SimHei-6b" d="M 2925 125 
L 2350 125 
L 1450 1650 
L 875 1100 
L 875 125 
L 375 125 
L 375 4400 
L 875 4400 
L 875 1675 
L 2125 2925 
L 2750 2925 
L 1775 1975 
L 2925 125 
z
" transform="scale(0.015625)"/>
      <path id="SimHei-20" transform="scale(0.015625)"/>
      <path id="SimHei-3a" d="M 1825 2425 
L 1250 2425 
L 1250 2975 
L 1825 2975 
L 1825 2425 
z
M 1825 125 
L 1250 125 
L 1250 675 
L 1825 675 
L 1825 125 
z
" transform="scale(0.015625)"/>
      <path id="SimHei-55" d="M 2875 1375 
Q 2875 775 2562 425 
Q 2250 75 1575 75 
Q 900 75 587 425 
Q 275 775 275 1375 
L 275 4400 
L 850 4400 
L 850 1375 
Q 850 950 1050 750 
Q 1250 550 1575 550 
Q 1900 550 2100 750 
Q 2300 950 2300 1375 
L 2300 4400 
L 2875 4400 
L 2875 1375 
z
" transform="scale(0.015625)"/>
      <path id="SimHei-70" d="M 2825 1525 
Q 2825 800 2475 425 
Q 2125 50 1625 50 
Q 1350 50 1150 162 
Q 950 275 800 500 
L 800 -800 
L 300 -800 
L 300 2925 
L 800 2925 
L 800 2550 
Q 950 2775 1150 2875 
Q 1350 2975 1625 2975 
Q 2125 2975 2475 2612 
Q 2825 2250 2825 1525 
z
M 2275 1525 
Q 2275 2000 2087 2262 
Q 1900 2525 1525 2525 
Q 1225 2525 1012 2262 
Q 800 2000 800 1525 
Q 800 1050 1012 775 
Q 1225 500 1525 500 
Q 1900 500 2087 775 
Q 2275 1050 2275 1525 
z
" transform="scale(0.015625)"/>
      <path id="SimHei-76" d="M 2875 2925 
L 1825 75 
L 1275 75 
L 225 2925 
L 750 2925 
L 1525 750 
L 1575 750 
L 2350 2925 
L 2875 2925 
z
" transform="scale(0.015625)"/>
      <path id="SimHei-44" d="M 2925 2250 
Q 2925 1100 2437 612 
Q 1950 125 1125 125 
L 275 125 
L 275 4400 
L 1125 4400 
Q 2050 4400 2487 3900 
Q 2925 3400 2925 2250 
z
M 2325 2250 
Q 2325 3175 2025 3550 
Q 1725 3925 1125 3925 
L 850 3925 
L 850 600 
L 1125 600 
Q 1725 600 2025 962 
Q 2325 1325 2325 2250 
z
" transform="scale(0.015625)"/>
      <path id="SimHei-6f" d="M 2925 1525 
Q 2925 875 2525 475 
Q 2125 75 1575 75 
Q 1025 75 625 475 
Q 225 875 225 1525 
Q 225 2175 625 2575 
Q 1025 2975 1575 2975 
Q 2125 2975 2525 2575 
Q 2925 2175 2925 1525 
z
M 2375 1525 
Q 2375 2025 2125 2275 
Q 1875 2525 1575 2525 
Q 1275 2525 1025 2275 
Q 775 2025 775 1525 
Q 775 1025 1025 775 
Q 1275 525 1575 525 
Q 1875 525 2125 775 
Q 2375 1025 2375 1525 
z
" transform="scale(0.015625)"/>
      <path id="SimHei-77" d="M 3075 2925 
L 2450 75 
L 1975 75 
L 1575 2250 
L 1525 2250 
L 1125 75 
L 650 75 
L 25 2925 
L 550 2925 
L 875 1050 
L 925 1050 
L 1275 2925 
L 1825 2925 
L 2175 1050 
L 2225 1050 
L 2550 2925 
L 3075 2925 
z
" transform="scale(0.015625)"/>
      <path id="SimHei-6e" d="M 2800 125 
L 2300 125 
L 2300 1925 
Q 2300 2225 2150 2400 
Q 2000 2575 1750 2575 
Q 1425 2575 1137 2237 
Q 850 1900 850 1400 
L 850 125 
L 350 125 
L 350 2925 
L 850 2925 
L 850 2400 
Q 1050 2675 1287 2825 
Q 1525 2975 1900 2975 
Q 2350 2975 2575 2725 
Q 2800 2475 2800 2100 
L 2800 125 
z
" transform="scale(0.015625)"/>
      <path id="SimHei-41" d="M 3075 125 
L 2475 125 
L 2125 1450 
L 1025 1450 
L 675 125 
L 75 125 
L 1325 4450 
L 1825 4450 
L 3075 125 
z
M 2000 1925 
L 1600 3450 
L 1550 3450 
L 1150 1925 
L 2000 1925 
z
" transform="scale(0.015625)"/>
      <path id="SimHei-6c" d="M 1825 125 
L 1325 125 
L 1325 4400 
L 1825 4400 
L 1825 125 
z
" transform="scale(0.015625)"/>
      <path id="SimHei-79" d="M 2900 2925 
L 1750 -100 
Q 1650 -450 1450 -625 
Q 1250 -800 950 -800 
Q 825 -800 712 -787 
Q 600 -775 500 -725 
L 500 -225 
Q 600 -275 700 -300 
Q 800 -325 875 -325 
Q 1075 -325 1150 -262 
Q 1225 -200 1300 25 
L 200 2925 
L 750 2925 
L 1550 725 
L 1575 725 
L 2350 2925 
L 2900 2925 
z
" transform="scale(0.015625)"/>
      <path id="SimHei-69" d="M 1800 3725 
L 1300 3725 
L 1300 4375 
L 1800 4375 
L 1800 3725 
z
M 1800 125 
L 1300 125 
L 1300 2925 
L 1800 2925 
L 1800 125 
z
" transform="scale(0.015625)"/>
     </defs>
     <use xlink:href="#SimHei-54"/>
     <use xlink:href="#SimHei-61" transform="translate(50 0)"/>
     <use xlink:href="#SimHei-73" transform="translate(100 0)"/>
     <use xlink:href="#SimHei-6b" transform="translate(150 0)"/>
     <use xlink:href="#SimHei-20" transform="translate(200 0)"/>
     <use xlink:href="#SimHei-32" transform="translate(250 0)"/>
     <use xlink:href="#SimHei-3a" transform="translate(300 0)"/>
     <use xlink:href="#SimHei-20" transform="translate(350 0)"/>
     <use xlink:href="#SimHei-55" transform="translate(400 0)"/>
     <use xlink:href="#SimHei-70" transform="translate(450 0)"/>
     <use xlink:href="#SimHei-20" transform="translate(500 0)"/>
     <use xlink:href="#SimHei-76" transform="translate(550 0)"/>
     <use xlink:href="#SimHei-73" transform="translate(600 0)"/>
     <use xlink:href="#SimHei-20" transform="translate(650 0)"/>
     <use xlink:href="#SimHei-44" transform="translate(700 0)"/>
     <use xlink:href="#SimHei-6f" transform="translate(750 0)"/>
     <use xlink:href="#SimHei-77" transform="translate(800 0)"/>
     <use xlink:href="#SimHei-6e" transform="translate(850 0)"/>
     <use xlink:href="#SimHei-20" transform="translate(900 0)"/>
     <use xlink:href="#SimHei-41" transform="translate(950 0)"/>
     <use xlink:href="#SimHei-6e" transform="translate(1000 0)"/>
     <use xlink:href="#SimHei-61" transform="translate(1050 0)"/>
     <use xlink:href="#SimHei-6c" transform="translate(1100 0)"/>
     <use xlink:href="#SimHei-79" transform="translate(1150 0)"/>
     <use xlink:href="#SimHei-73" transform="translate(1200 0)"/>
     <use xlink:href="#SimHei-69" transform="translate(1250 0)"/>
     <use xlink:href="#SimHei-73" transform="translate(1300 0)"/>
    </g>
   </g>
   <g id="legend_1">
    <g id="patch_7">
     <path d="M 40.9 60.99375 
L 136.6 60.99375 
Q 138.8 60.99375 138.8 58.79375 
L 138.8 30.74375 
Q 138.8 28.54375 136.6 28.54375 
L 40.9 28.54375 
Q 38.7 28.54375 38.7 30.74375 
L 38.7 58.79375 
Q 38.7 60.99375 40.9 60.99375 
z
" style="fill: #ffffff; opacity: 0.8; stroke: #cccccc; stroke-linejoin: miter"/>
    </g>
    <g id="line2d_19">
     <path d="M 43.1 36.79375 
L 54.1 36.79375 
L 65.1 36.79375 
" style="fill: none; stroke: #ff0000; stroke-opacity: 0.6; stroke-width: 1.5; stroke-linecap: round"/>
    </g>
    <g id="text_18">
     <!-- Up Stream -->
     <g style="fill: #262626" transform="translate(73.9 40.64375) scale(0.11 -0.11)">
      <defs>
       <path id="SimHei-53" d="M 2900 1325 
Q 2900 750 2537 412 
Q 2175 75 1550 75 
Q 925 75 575 425 
Q 225 775 225 1300 
L 225 1475 
L 800 1475 
L 800 1325 
Q 800 950 1025 750 
Q 1250 550 1550 550 
Q 1950 550 2137 762 
Q 2325 975 2325 1275 
Q 2325 1525 2100 1737 
Q 1875 1950 1450 2125 
Q 850 2350 587 2625 
Q 325 2900 325 3275 
Q 325 3800 687 4125 
Q 1050 4450 1550 4450 
Q 2200 4450 2487 4062 
Q 2775 3675 2775 3225 
L 2200 3225 
Q 2225 3500 2050 3725 
Q 1875 3950 1550 3950 
Q 1250 3950 1075 3787 
Q 900 3625 900 3350 
Q 900 3125 1037 2962 
Q 1175 2800 1750 2575 
Q 2300 2350 2600 2037 
Q 2900 1725 2900 1325 
z
" transform="scale(0.015625)"/>
       <path id="SimHei-74" d="M 2750 200 
Q 2625 150 2462 112 
Q 2300 75 2025 75 
Q 1575 75 1300 325 
Q 1025 575 1025 1025 
L 1025 2525 
L 175 2525 
L 175 2925 
L 1025 2925 
L 1025 3900 
L 1525 3900 
L 1525 2925 
L 2550 2925 
L 2550 2525 
L 1525 2525 
L 1525 1000 
Q 1525 800 1625 662 
Q 1725 525 2000 525 
Q 2275 525 2450 575 
Q 2625 625 2750 700 
L 2750 200 
z
" transform="scale(0.015625)"/>
       <path id="SimHei-72" d="M 2500 2425 
Q 2025 2500 1700 2287 
Q 1375 2075 1150 1550 
L 1150 125 
L 650 125 
L 650 2925 
L 1150 2925 
L 1150 2200 
Q 1375 2600 1712 2787 
Q 2050 2975 2500 2975 
L 2500 2425 
z
" transform="scale(0.015625)"/>
       <path id="SimHei-65" d="M 2850 1075 
Q 2800 625 2450 350 
Q 2100 75 1625 75 
Q 1025 75 637 462 
Q 250 850 250 1525 
Q 250 2200 637 2587 
Q 1025 2975 1625 2975 
Q 2150 2975 2487 2637 
Q 2825 2300 2825 1525 
L 800 1525 
Q 800 975 1037 750 
Q 1275 525 1625 525 
Q 1900 525 2075 662 
Q 2250 800 2300 1075 
L 2850 1075 
z
M 2250 1925 
Q 2200 2275 2025 2412 
Q 1850 2550 1575 2550 
Q 1325 2550 1125 2412 
Q 925 2275 825 1925 
L 2250 1925 
z
" transform="scale(0.015625)"/>
       <path id="SimHei-6d" d="M 3050 125 
L 2550 125 
L 2550 2150 
Q 2550 2300 2500 2400 
Q 2450 2500 2300 2500 
Q 2125 2500 1975 2312 
Q 1825 2125 1825 1825 
L 1825 125 
L 1325 125 
L 1325 2150 
Q 1325 2300 1275 2400 
Q 1225 2500 1075 2500 
Q 900 2500 750 2312 
Q 600 2125 600 1825 
L 600 125 
L 100 125 
L 100 2925 
L 600 2925 
L 600 2550 
Q 725 2750 900 2862 
Q 1075 2975 1275 2975 
Q 1475 2975 1612 2862 
Q 1750 2750 1800 2550 
Q 1925 2750 2087 2862 
Q 2250 2975 2450 2975 
Q 2750 2975 2900 2812 
Q 3050 2650 3050 2350 
L 3050 125 
z
" transform="scale(0.015625)"/>
      </defs>
      <use xlink:href="#SimHei-55"/>
      <use xlink:href="#SimHei-70" transform="translate(50 0)"/>
      <use xlink:href="#SimHei-20" transform="translate(100 0)"/>
      <use xlink:href="#SimHei-53" transform="translate(150 0)"/>
      <use xlink:href="#SimHei-74" transform="translate(200 0)"/>
      <use xlink:href="#SimHei-72" transform="translate(250 0)"/>
      <use xlink:href="#SimHei-65" transform="translate(300 0)"/>
      <use xlink:href="#SimHei-61" transform="translate(350 0)"/>
      <use xlink:href="#SimHei-6d" transform="translate(400 0)"/>
     </g>
    </g>
    <g id="line2d_20">
     <path d="M 43.1 51.36875 
L 54.1 51.36875 
L 65.1 51.36875 
" style="fill: none; stroke: #008000; stroke-opacity: 0.6; stroke-width: 1.5; stroke-linecap: round"/>
    </g>
    <g id="text_19">
     <!-- Down Stream -->
     <g style="fill: #262626" transform="translate(73.9 55.21875) scale(0.11 -0.11)">
      <use xlink:href="#SimHei-44"/>
      <use xlink:href="#SimHei-6f" transform="translate(50 0)"/>
      <use xlink:href="#SimHei-77" transform="translate(100 0)"/>
      <use xlink:href="#SimHei-6e" transform="translate(150 0)"/>
      <use xlink:href="#SimHei-20" transform="translate(200 0)"/>
      <use xlink:href="#SimHei-53" transform="translate(250 0)"/>
      <use xlink:href="#SimHei-74" transform="translate(300 0)"/>
      <use xlink:href="#SimHei-72" transform="translate(350 0)"/>
      <use xlink:href="#SimHei-65" transform="translate(400 0)"/>
      <use xlink:href="#SimHei-61" transform="translate(450 0)"/>
      <use xlink:href="#SimHei-6d" transform="translate(500 0)"/>
     </g>
    </g>
   </g>
  </g>
 </g>
 <defs>
  <clipPath id="p2c07f7eb22">
   <rect x="33.2" y="23.04375" width="837" height="332.64"/>
  </clipPath>
 </defs>
</svg>
